<svg width="280" height="360" viewBox="0 0 280 360" fill="none" xmlns="http://www.w3.org/2000/svg">
<g clip-path="url(#clip0_1658_1561)">
<rect width="280" height="360" rx="8" fill="#FC060C"/>
<path d="M24.7398 153.421V142.106L15.3425 125.804H20.7316L27.0795 136.812L33.4083 125.804H38.7973L29.4192 142.106V153.421H24.7398ZM47.5521 153.996C45.4809 153.996 43.6718 153.529 42.1247 152.596C40.5777 151.663 39.3759 150.378 38.5192 148.741C37.6754 147.092 37.2535 145.2 37.2535 143.064C37.2535 140.891 37.6882 138.986 38.5576 137.349C39.427 135.713 40.6352 134.434 42.1823 133.514C43.7293 132.593 45.5192 132.133 47.5521 132.133C49.6361 132.133 51.4517 132.6 52.9987 133.533C54.5457 134.466 55.7476 135.758 56.6042 137.407C57.4608 139.043 57.8891 140.929 57.8891 143.064C57.8891 145.212 57.4544 147.111 56.585 148.76C55.7284 150.397 54.5265 151.682 52.9795 152.615C51.4325 153.536 49.6234 153.996 47.5521 153.996ZM47.5521 149.662C49.3932 149.662 50.7612 149.048 51.6562 147.821C52.5512 146.593 52.9987 145.008 52.9987 143.064C52.9987 141.057 52.5448 139.459 51.637 138.27C50.7293 137.068 49.3676 136.467 47.5521 136.467C46.3119 136.467 45.2891 136.749 44.4836 137.311C43.6909 137.861 43.1028 138.634 42.7192 139.632C42.3357 140.616 42.1439 141.76 42.1439 143.064C42.1439 145.072 42.5978 146.676 43.5055 147.878C44.4261 149.067 45.7749 149.662 47.5521 149.662ZM69.8817 154.015C68.3474 154.015 67.0817 153.759 66.0844 153.248C65.0872 152.737 64.2945 152.085 63.7064 151.292C63.1182 150.499 62.6835 149.655 62.4022 148.76C62.121 147.865 61.9356 147.022 61.8461 146.229C61.7694 145.423 61.731 144.771 61.731 144.273V132.708H66.4105V142.681C66.4105 143.32 66.4552 144.043 66.5447 144.848C66.6342 145.641 66.8388 146.408 67.1584 147.149C67.4908 147.878 67.9767 148.479 68.6159 148.952C69.268 149.425 70.1438 149.662 71.2433 149.662C71.8315 149.662 72.4132 149.566 72.9885 149.374C73.5639 149.182 74.0817 148.856 74.542 148.396C75.015 147.923 75.3922 147.277 75.6735 146.459C75.9548 145.641 76.0954 144.605 76.0954 143.352L78.8379 144.522C78.8379 146.286 78.4927 147.885 77.8022 149.317C77.1246 150.749 76.121 151.893 74.7913 152.749C73.4616 153.593 71.8251 154.015 69.8817 154.015ZM76.6516 153.421V146.996H76.0954V132.708H80.7365V153.421H76.6516ZM26.0247 194.996C23.4676 194.996 21.39 194.421 19.7918 193.27C18.1937 192.119 17.222 190.502 16.8768 188.418L21.5946 187.689C21.8375 188.712 22.3745 189.517 23.2055 190.106C24.0366 190.694 25.085 190.988 26.3507 190.988C27.4631 190.988 28.3197 190.77 28.9206 190.336C29.5343 189.888 29.8412 189.281 29.8412 188.514C29.8412 188.041 29.7261 187.664 29.496 187.382C29.2786 187.088 28.7928 186.807 28.0384 186.538C27.2841 186.27 26.127 185.931 24.5672 185.522C22.8284 185.062 21.4476 184.57 20.4247 184.045C19.4019 183.508 18.6667 182.875 18.2192 182.147C17.7718 181.418 17.548 180.536 17.548 179.5C17.548 178.209 17.8868 177.084 18.5644 176.125C19.2421 175.166 20.1882 174.431 21.4028 173.919C22.6174 173.395 24.0494 173.133 25.6987 173.133C27.3097 173.133 28.7352 173.382 29.9754 173.881C31.2284 174.38 32.2384 175.089 33.0055 176.01C33.7727 176.93 34.2457 178.011 34.4247 179.251L29.7069 180.095C29.5918 179.212 29.1891 178.516 28.4987 178.004C27.8211 177.493 26.9133 177.205 25.7754 177.141C24.6886 177.077 23.8128 177.243 23.148 177.64C22.4832 178.023 22.1507 178.567 22.1507 179.27C22.1507 179.666 22.285 180.005 22.5535 180.286C22.822 180.568 23.359 180.849 24.1644 181.13C24.9827 181.412 26.1973 181.757 27.8083 182.166C29.4576 182.588 30.7745 183.074 31.759 183.623C32.7562 184.16 33.4722 184.806 33.9069 185.56C34.3544 186.315 34.5781 187.229 34.5781 188.303C34.5781 190.387 33.8174 192.023 32.296 193.212C30.7873 194.401 28.6969 194.996 26.0247 194.996ZM44.5705 194.996C43.0746 194.996 41.8089 194.715 40.7733 194.152C39.7376 193.577 38.9513 192.816 38.4144 191.87C37.8902 190.924 37.6281 189.882 37.6281 188.744C37.6281 187.747 37.7943 186.852 38.1267 186.059C38.4591 185.254 38.9705 184.563 39.6609 183.988C40.3513 183.4 41.2463 182.92 42.3459 182.549C43.1769 182.281 44.1486 182.038 45.2609 181.821C46.3861 181.603 47.6007 181.405 48.9048 181.226C50.2217 181.034 51.5961 180.83 53.0281 180.612L51.3787 181.552C51.3915 180.12 51.0719 179.065 50.4198 178.388C49.7678 177.71 48.6682 177.371 47.1212 177.371C46.1879 177.371 45.2865 177.589 44.4171 178.023C43.5477 178.458 42.9404 179.206 42.5952 180.267L38.376 178.944C38.8874 177.192 39.8591 175.786 41.2911 174.725C42.7358 173.664 44.6792 173.133 47.1212 173.133C48.9623 173.133 50.5797 173.433 51.9733 174.034C53.3797 174.635 54.4217 175.62 55.0993 176.988C55.4701 177.717 55.6938 178.464 55.7705 179.232C55.8472 179.986 55.8856 180.811 55.8856 181.706V194.421H51.839V189.933L52.5103 190.662C51.5769 192.158 50.4838 193.257 49.2308 193.96C47.9906 194.651 46.4372 194.996 44.5705 194.996ZM45.4911 191.314C46.5395 191.314 47.4345 191.128 48.176 190.758C48.9176 190.387 49.5057 189.933 49.9404 189.396C50.3879 188.859 50.6883 188.354 50.8418 187.881C51.0847 187.293 51.2189 186.622 51.2445 185.867C51.2829 185.1 51.302 184.48 51.302 184.007L52.7212 184.429C51.3276 184.646 50.1322 184.838 49.1349 185.004C48.1376 185.17 47.281 185.33 46.565 185.484C45.8491 185.624 45.2162 185.784 44.6664 185.963C44.1294 186.155 43.6755 186.379 43.3048 186.634C42.934 186.89 42.6463 187.184 42.4418 187.517C42.25 187.849 42.1541 188.239 42.1541 188.686C42.1541 189.198 42.2819 189.652 42.5376 190.048C42.7934 190.432 43.1641 190.738 43.65 190.969C44.1486 191.199 44.7623 191.314 45.4911 191.314ZM65.7293 194.421L58.2115 173.708H62.8335L68.0499 188.725L73.2472 173.708H77.8882L70.3704 194.421H65.7293ZM89.9974 194.996C87.9006 194.996 86.0595 194.542 84.4741 193.634C82.8887 192.727 81.6485 191.467 80.7536 189.856C79.8714 188.245 79.4303 186.391 79.4303 184.295C79.4303 182.032 79.865 180.069 80.7344 178.407C81.6038 176.732 82.812 175.434 84.3591 174.514C85.9061 173.593 87.696 173.133 89.7289 173.133C91.8769 173.133 93.6988 173.638 95.1947 174.648C96.7033 175.645 97.8221 177.058 98.5508 178.886C99.2796 180.715 99.5545 182.869 99.3755 185.349H94.7919V183.662C94.7791 181.412 94.3828 179.769 93.6029 178.733C92.823 177.697 91.5956 177.18 89.9207 177.18C88.0285 177.18 86.6221 177.768 85.7015 178.944C84.781 180.107 84.3207 181.814 84.3207 184.064C84.3207 186.161 84.781 187.785 85.7015 188.936C86.6221 190.086 87.9645 190.662 89.7289 190.662C90.8668 190.662 91.8449 190.412 92.6632 189.914C93.4942 189.402 94.1335 188.667 94.581 187.708L99.1454 189.089C98.3527 190.956 97.1253 192.407 95.4632 193.443C93.8138 194.478 91.9919 194.996 89.9974 194.996ZM82.8632 185.349V181.859H97.1125V185.349H82.8632ZM111.959 194.996C110.054 194.996 108.392 194.517 106.972 193.558C105.553 192.599 104.454 191.295 103.674 189.645C102.894 187.996 102.504 186.136 102.504 184.064C102.504 181.968 102.894 180.101 103.674 178.464C104.466 176.815 105.585 175.517 107.03 174.571C108.475 173.612 110.175 173.133 112.131 173.133C114.1 173.133 115.75 173.612 117.079 174.571C118.422 175.517 119.438 176.815 120.129 178.464C120.819 180.114 121.164 181.98 121.164 184.064C121.164 186.123 120.819 187.983 120.129 189.645C119.438 191.295 118.409 192.599 117.041 193.558C115.673 194.517 113.979 194.996 111.959 194.996ZM112.668 190.854C113.908 190.854 114.906 190.572 115.66 190.01C116.427 189.434 116.983 188.635 117.329 187.612C117.687 186.59 117.866 185.407 117.866 184.064C117.866 182.709 117.687 181.527 117.329 180.517C116.983 179.494 116.44 178.701 115.698 178.138C114.957 177.563 113.998 177.275 112.822 177.275C111.582 177.275 110.559 177.582 109.753 178.196C108.948 178.797 108.353 179.615 107.97 180.651C107.586 181.674 107.394 182.812 107.394 184.064C107.394 185.33 107.58 186.481 107.95 187.517C108.334 188.539 108.916 189.351 109.696 189.952C110.476 190.553 111.466 190.854 112.668 190.854ZM117.866 194.421V179.884H117.29V166.804H121.95V194.421H117.866ZM25.2576 239.237V234.692H29.8795V239.237H25.2576ZM25.2576 208.552V204.007H29.8795V208.552H25.2576ZM27.674 235.996C25.7307 235.996 23.9918 235.638 22.4576 234.922C20.9234 234.206 19.664 233.196 18.6795 231.892C17.7078 230.588 17.0877 229.041 16.8192 227.251L21.3836 226.522C21.7416 228.095 22.5087 229.348 23.685 230.281C24.874 231.201 26.2932 231.662 27.9425 231.662C29.5279 231.662 30.832 231.291 31.8549 230.549C32.8777 229.795 33.3891 228.843 33.3891 227.692C33.3891 226.886 33.1462 226.234 32.6603 225.736C32.1745 225.224 31.3946 224.802 30.3206 224.47L23.6658 222.399C19.7918 221.197 17.8549 218.844 17.8549 215.341C17.8549 213.705 18.2448 212.279 19.0247 211.064C19.8174 209.837 20.9297 208.897 22.3617 208.245C23.7937 207.58 25.4813 207.254 27.4247 207.267C29.2275 207.28 30.832 207.606 32.2384 208.245C33.6576 208.885 34.8339 209.805 35.7672 211.007C36.7133 212.209 37.3845 213.654 37.7809 215.341L33.0439 216.204C32.8649 215.296 32.5133 214.497 31.9891 213.807C31.4649 213.117 30.8065 212.58 30.0138 212.196C29.2211 211.812 28.3389 211.608 27.3672 211.582C26.4339 211.57 25.5964 211.717 24.8549 212.023C24.1133 212.317 23.5252 212.739 23.0905 213.289C22.6558 213.826 22.4384 214.433 22.4384 215.111C22.4384 215.865 22.7389 216.511 23.3398 217.048C23.9535 217.585 24.9188 218.045 26.2357 218.429L31.2028 219.867C33.5937 220.558 35.3133 221.497 36.3617 222.686C37.4229 223.863 37.9535 225.429 37.9535 227.385C37.9535 229.098 37.5252 230.601 36.6686 231.892C35.8119 233.183 34.6101 234.193 33.0631 234.922C31.516 235.638 29.7197 235.996 27.674 235.996ZM50.3015 235.996C48.8951 235.996 47.5846 235.708 46.37 235.133C45.1554 234.545 44.107 233.739 43.2248 232.717C42.3554 231.694 41.7289 230.505 41.3453 229.149L45.7946 227.96C45.9736 228.702 46.2996 229.341 46.7727 229.878C47.2586 230.415 47.8211 230.831 48.4604 231.125C49.1124 231.419 49.7837 231.566 50.4741 231.566C51.3691 231.566 52.1873 231.349 52.9289 230.914C53.6704 230.479 54.2586 229.897 54.6933 229.169C55.128 228.427 55.3453 227.609 55.3453 226.714C55.3453 225.819 55.1216 225.007 54.6741 224.278C54.2394 223.537 53.6512 222.955 52.9097 222.533C52.1681 222.098 51.3563 221.881 50.4741 221.881C49.4129 221.881 48.5307 222.073 47.8275 222.456C47.1371 222.84 46.6065 223.249 46.2357 223.684L42.285 222.418L43.1289 207.804H58.1261V212.138H45.6028L47.3289 210.508L46.7152 220.673L45.8713 219.637C46.5873 218.985 47.4184 218.499 48.3645 218.18C49.3106 217.86 50.2248 217.7 51.107 217.7C52.833 217.7 54.3608 218.096 55.6905 218.889C57.033 219.669 58.0814 220.737 58.8357 222.092C59.6028 223.447 59.9864 224.988 59.9864 226.714C59.9864 228.44 59.5389 230.006 58.6439 231.412C57.749 232.806 56.5663 233.918 55.096 234.749C53.6385 235.58 52.0403 235.996 50.3015 235.996Z" fill="white"/>
<g filter="url(#filter0_d_1658_1561)">
<rect x="170" y="85" width="316" height="190" rx="20" fill="url(#paint0_linear_1658_1561)"/>
<rect x="170.5" y="85.5" width="315" height="189" rx="19.5" stroke="url(#paint1_linear_1658_1561)"/>
<path d="M189.128 254V244.32L186.96 245.64V243.776L189.128 242.48H190.832V254H189.128ZM195.95 253.992L195.958 252.504L200.974 248.008C201.379 247.651 201.654 247.309 201.798 246.984C201.947 246.659 202.022 246.333 202.022 246.008C202.022 245.597 201.931 245.229 201.75 244.904C201.569 244.573 201.318 244.312 200.998 244.12C200.678 243.928 200.31 243.832 199.894 243.832C199.467 243.832 199.086 243.933 198.75 244.136C198.419 244.333 198.161 244.597 197.974 244.928C197.787 245.259 197.697 245.616 197.702 246H195.99C195.99 245.253 196.158 244.6 196.494 244.04C196.835 243.475 197.302 243.035 197.894 242.72C198.486 242.4 199.163 242.24 199.926 242.24C200.651 242.24 201.302 242.405 201.878 242.736C202.454 243.061 202.907 243.509 203.238 244.08C203.574 244.651 203.742 245.301 203.742 246.032C203.742 246.56 203.673 247.008 203.534 247.376C203.395 247.744 203.187 248.085 202.91 248.4C202.633 248.715 202.286 249.056 201.87 249.424L197.998 252.88L197.814 252.4H203.742V253.992H195.95ZM211.285 254.216C210.714 254.216 210.178 254.109 209.677 253.896C209.175 253.677 208.741 253.368 208.373 252.968C208.01 252.568 207.746 252.096 207.581 251.552L209.197 251.104C209.351 251.6 209.621 251.981 210.005 252.248C210.389 252.509 210.815 252.637 211.285 252.632C211.706 252.627 212.077 252.528 212.397 252.336C212.717 252.144 212.967 251.885 213.149 251.56C213.33 251.229 213.421 250.851 213.421 250.424C213.421 249.784 213.221 249.256 212.821 248.84C212.426 248.424 211.909 248.216 211.269 248.216C211.087 248.216 210.901 248.243 210.709 248.296C210.522 248.349 210.346 248.419 210.181 248.504L209.397 247.184L213.461 243.592L213.637 244.072H208.037V242.48H214.965V244.072L211.589 247.32L211.573 246.776C212.298 246.776 212.927 246.939 213.461 247.264C213.994 247.584 214.405 248.021 214.693 248.576C214.986 249.125 215.133 249.741 215.133 250.424C215.133 251.16 214.959 251.813 214.613 252.384C214.271 252.955 213.81 253.403 213.229 253.728C212.653 254.053 212.005 254.216 211.285 254.216ZM224.497 254V251.992H219.297V250.408L223.041 242.48H224.953L221.209 250.408H224.497V247.288H226.193V250.408H227.337V251.992H226.193V254H224.497ZM239.269 254V244.32L237.101 245.64V243.776L239.269 242.48H240.973V254H239.269ZM246.091 253.992L246.099 252.504L251.115 248.008C251.52 247.651 251.795 247.309 251.939 246.984C252.088 246.659 252.163 246.333 252.163 246.008C252.163 245.597 252.072 245.229 251.891 244.904C251.709 244.573 251.459 244.312 251.139 244.12C250.819 243.928 250.451 243.832 250.035 243.832C249.608 243.832 249.227 243.933 248.891 244.136C248.56 244.333 248.301 244.597 248.115 244.928C247.928 245.259 247.837 245.616 247.843 246H246.131C246.131 245.253 246.299 244.6 246.635 244.04C246.976 243.475 247.443 243.035 248.035 242.72C248.627 242.4 249.304 242.24 250.067 242.24C250.792 242.24 251.443 242.405 252.019 242.736C252.595 243.061 253.048 243.509 253.379 244.08C253.715 244.651 253.883 245.301 253.883 246.032C253.883 246.56 253.813 247.008 253.675 247.376C253.536 247.744 253.328 248.085 253.051 248.4C252.773 248.715 252.427 249.056 252.011 249.424L248.139 252.88L247.955 252.4H253.883V253.992H246.091ZM261.425 254.216C260.855 254.216 260.319 254.109 259.817 253.896C259.316 253.677 258.881 253.368 258.513 252.968C258.151 252.568 257.887 252.096 257.721 251.552L259.337 251.104C259.492 251.6 259.761 251.981 260.145 252.248C260.529 252.509 260.956 252.637 261.425 252.632C261.847 252.627 262.217 252.528 262.537 252.336C262.857 252.144 263.108 251.885 263.289 251.56C263.471 251.229 263.561 250.851 263.561 250.424C263.561 249.784 263.361 249.256 262.961 248.84C262.567 248.424 262.049 248.216 261.409 248.216C261.228 248.216 261.041 248.243 260.849 248.296C260.663 248.349 260.487 248.419 260.321 248.504L259.537 247.184L263.601 243.592L263.777 244.072H258.177V242.48H265.105V244.072L261.729 247.32L261.713 246.776C262.439 246.776 263.068 246.939 263.601 247.264C264.135 247.584 264.545 248.021 264.833 248.576C265.127 249.125 265.273 249.741 265.273 250.424C265.273 251.16 265.1 251.813 264.753 252.384C264.412 252.955 263.951 253.403 263.369 253.728C262.793 254.053 262.145 254.216 261.425 254.216ZM274.637 254V251.992H269.437V250.408L273.181 242.48H275.093L271.349 250.408H274.637V247.288H276.333V250.408H277.477V251.992H276.333V254H274.637ZM289.409 254V244.32L287.241 245.64V243.776L289.409 242.48H291.113V254H289.409ZM296.231 253.992L296.239 252.504L301.255 248.008C301.661 247.651 301.935 247.309 302.079 246.984C302.229 246.659 302.303 246.333 302.303 246.008C302.303 245.597 302.213 245.229 302.031 244.904C301.85 244.573 301.599 244.312 301.279 244.12C300.959 243.928 300.591 243.832 300.175 243.832C299.749 243.832 299.367 243.933 299.031 244.136C298.701 244.333 298.442 244.597 298.255 244.928C298.069 245.259 297.978 245.616 297.983 246H296.271C296.271 245.253 296.439 244.6 296.775 244.04C297.117 243.475 297.583 243.035 298.175 242.72C298.767 242.4 299.445 242.24 300.207 242.24C300.933 242.24 301.583 242.405 302.159 242.736C302.735 243.061 303.189 243.509 303.519 244.08C303.855 244.651 304.023 245.301 304.023 246.032C304.023 246.56 303.954 247.008 303.815 247.376C303.677 247.744 303.469 248.085 303.191 248.4C302.914 248.715 302.567 249.056 302.151 249.424L298.279 252.88L298.095 252.4H304.023V253.992H296.231ZM311.566 254.216C310.995 254.216 310.459 254.109 309.958 253.896C309.457 253.677 309.022 253.368 308.654 252.968C308.291 252.568 308.027 252.096 307.862 251.552L309.478 251.104C309.633 251.6 309.902 251.981 310.286 252.248C310.67 252.509 311.097 252.637 311.566 252.632C311.987 252.627 312.358 252.528 312.678 252.336C312.998 252.144 313.249 251.885 313.43 251.56C313.611 251.229 313.702 250.851 313.702 250.424C313.702 249.784 313.502 249.256 313.102 248.84C312.707 248.424 312.19 248.216 311.55 248.216C311.369 248.216 311.182 248.243 310.99 248.296C310.803 248.349 310.627 248.419 310.462 248.504L309.678 247.184L313.742 243.592L313.918 244.072H308.318V242.48H315.246V244.072L311.87 247.32L311.854 246.776C312.579 246.776 313.209 246.939 313.742 247.264C314.275 247.584 314.686 248.021 314.974 248.576C315.267 249.125 315.414 249.741 315.414 250.424C315.414 251.16 315.241 251.813 314.894 252.384C314.553 252.955 314.091 253.403 313.51 253.728C312.934 254.053 312.286 254.216 311.566 254.216ZM324.778 254V251.992H319.578V250.408L323.322 242.48H325.234L321.49 250.408H324.778V247.288H326.474V250.408H327.618V251.992H326.474V254H324.778ZM339.55 254V244.32L337.382 245.64V243.776L339.55 242.48H341.254V254H339.55ZM346.372 253.992L346.38 252.504L351.396 248.008C351.801 247.651 352.076 247.309 352.22 246.984C352.369 246.659 352.444 246.333 352.444 246.008C352.444 245.597 352.353 245.229 352.172 244.904C351.991 244.573 351.74 244.312 351.42 244.12C351.1 243.928 350.732 243.832 350.316 243.832C349.889 243.832 349.508 243.933 349.172 244.136C348.841 244.333 348.583 244.597 348.396 244.928C348.209 245.259 348.119 245.616 348.124 246H346.412C346.412 245.253 346.58 244.6 346.916 244.04C347.257 243.475 347.724 243.035 348.316 242.72C348.908 242.4 349.585 242.24 350.348 242.24C351.073 242.24 351.724 242.405 352.3 242.736C352.876 243.061 353.329 243.509 353.66 244.08C353.996 244.651 354.164 245.301 354.164 246.032C354.164 246.56 354.095 247.008 353.956 247.376C353.817 247.744 353.609 248.085 353.332 248.4C353.055 248.715 352.708 249.056 352.292 249.424L348.42 252.88L348.236 252.4H354.164V253.992H346.372ZM361.707 254.216C361.136 254.216 360.6 254.109 360.099 253.896C359.597 253.677 359.163 253.368 358.795 252.968C358.432 252.568 358.168 252.096 358.003 251.552L359.619 251.104C359.773 251.6 360.043 251.981 360.427 252.248C360.811 252.509 361.237 252.637 361.707 252.632C362.128 252.627 362.499 252.528 362.819 252.336C363.139 252.144 363.389 251.885 363.571 251.56C363.752 251.229 363.843 250.851 363.843 250.424C363.843 249.784 363.643 249.256 363.243 248.84C362.848 248.424 362.331 248.216 361.691 248.216C361.509 248.216 361.323 248.243 361.131 248.296C360.944 248.349 360.768 248.419 360.603 248.504L359.819 247.184L363.883 243.592L364.059 244.072H358.459V242.48H365.387V244.072L362.011 247.32L361.995 246.776C362.72 246.776 363.349 246.939 363.883 247.264C364.416 247.584 364.827 248.021 365.115 248.576C365.408 249.125 365.555 249.741 365.555 250.424C365.555 251.16 365.381 251.813 365.035 252.384C364.693 252.955 364.232 253.403 363.651 253.728C363.075 254.053 362.427 254.216 361.707 254.216ZM374.919 254V251.992H369.719V250.408L373.463 242.48H375.375L371.631 250.408H374.919V247.288H376.615V250.408H377.759V251.992H376.615V254H374.919Z" fill="white"/>
<path d="M186.84 226V217.36H188.112L192.366 223.78V217.36H193.638V226H192.366L188.112 219.574V226H186.84ZM199.519 226.18C198.655 226.18 197.919 225.992 197.311 225.616C196.703 225.236 196.237 224.708 195.913 224.032C195.593 223.356 195.433 222.572 195.433 221.68C195.433 220.788 195.593 220.004 195.913 219.328C196.237 218.652 196.703 218.126 197.311 217.75C197.919 217.37 198.655 217.18 199.519 217.18C200.379 217.18 201.113 217.37 201.721 217.75C202.333 218.126 202.799 218.652 203.119 219.328C203.439 220.004 203.599 220.788 203.599 221.68C203.599 222.572 203.439 223.356 203.119 224.032C202.799 224.708 202.333 225.236 201.721 225.616C201.113 225.992 200.379 226.18 199.519 226.18ZM199.519 224.986C200.131 224.994 200.639 224.86 201.043 224.584C201.451 224.304 201.757 223.916 201.961 223.42C202.165 222.92 202.267 222.34 202.267 221.68C202.267 221.02 202.165 220.444 201.961 219.952C201.757 219.456 201.451 219.07 201.043 218.794C200.639 218.518 200.131 218.378 199.519 218.374C198.907 218.366 198.397 218.5 197.989 218.776C197.585 219.052 197.281 219.44 197.077 219.94C196.873 220.44 196.769 221.02 196.765 221.68C196.761 222.34 196.861 222.918 197.065 223.414C197.269 223.906 197.575 224.29 197.983 224.566C198.395 224.842 198.907 224.982 199.519 224.986ZM204.561 226L207.369 217.36H209.175L211.983 226H210.681L208.095 218.116H208.419L205.863 226H204.561ZM206.019 224.05V222.874H210.531V224.05H206.019ZM213.66 226V217.36H214.914V221.086H219.234V217.36H220.494V226H219.234V222.268H214.914V226H213.66ZM225.781 226V217.36H229.273C229.357 217.36 229.461 217.364 229.585 217.372C229.709 217.376 229.827 217.388 229.939 217.408C230.419 217.484 230.819 217.648 231.139 217.9C231.463 218.152 231.705 218.47 231.865 218.854C232.025 219.238 232.105 219.662 232.105 220.126C232.105 220.594 232.025 221.02 231.865 221.404C231.705 221.788 231.463 222.106 231.139 222.358C230.819 222.61 230.419 222.774 229.939 222.85C229.827 222.866 229.707 222.878 229.579 222.886C229.455 222.894 229.353 222.898 229.273 222.898H227.035V226H225.781ZM227.035 221.71H229.225C229.305 221.71 229.393 221.706 229.489 221.698C229.589 221.69 229.683 221.676 229.771 221.656C230.027 221.596 230.233 221.486 230.389 221.326C230.545 221.162 230.657 220.974 230.725 220.762C230.793 220.55 230.827 220.338 230.827 220.126C230.827 219.914 230.793 219.704 230.725 219.496C230.657 219.284 230.545 219.098 230.389 218.938C230.233 218.774 230.027 218.662 229.771 218.602C229.683 218.578 229.589 218.562 229.489 218.554C229.393 218.546 229.305 218.542 229.225 218.542H227.035V221.71ZM234.025 226V217.36H235.279V226H234.025ZM237.681 226V217.36H243.201V218.542H238.935V220.966H242.481V222.148H238.935V224.818H243.201V226H237.681ZM245.242 226V217.36H248.734C248.818 217.36 248.922 217.364 249.046 217.372C249.17 217.376 249.288 217.388 249.4 217.408C249.88 217.484 250.28 217.648 250.6 217.9C250.924 218.152 251.166 218.47 251.326 218.854C251.486 219.238 251.566 219.662 251.566 220.126C251.566 220.814 251.39 221.408 251.038 221.908C250.686 222.404 250.158 222.714 249.454 222.838L248.944 222.898H246.496V226H245.242ZM250.294 226L248.59 222.484L249.856 222.16L251.728 226H250.294ZM246.496 221.71H248.686C248.766 221.71 248.854 221.706 248.95 221.698C249.05 221.69 249.144 221.676 249.232 221.656C249.488 221.596 249.694 221.486 249.85 221.326C250.006 221.162 250.118 220.974 250.186 220.762C250.254 220.55 250.288 220.338 250.288 220.126C250.288 219.914 250.254 219.704 250.186 219.496C250.118 219.284 250.006 219.098 249.85 218.938C249.694 218.774 249.488 218.662 249.232 218.602C249.144 218.578 249.05 218.562 248.95 218.554C248.854 218.546 248.766 218.542 248.686 218.542H246.496V221.71ZM253.646 226V217.36H257.138C257.222 217.36 257.326 217.364 257.45 217.372C257.574 217.376 257.692 217.388 257.804 217.408C258.284 217.484 258.684 217.648 259.004 217.9C259.328 218.152 259.57 218.47 259.73 218.854C259.89 219.238 259.97 219.662 259.97 220.126C259.97 220.814 259.794 221.408 259.442 221.908C259.09 222.404 258.562 222.714 257.858 222.838L257.348 222.898H254.9V226H253.646ZM258.698 226L256.994 222.484L258.26 222.16L260.132 226H258.698ZM254.9 221.71H257.09C257.17 221.71 257.258 221.706 257.354 221.698C257.454 221.69 257.548 221.676 257.636 221.656C257.892 221.596 258.098 221.486 258.254 221.326C258.41 221.162 258.522 220.974 258.59 220.762C258.658 220.55 258.692 220.338 258.692 220.126C258.692 219.914 258.658 219.704 258.59 219.496C258.522 219.284 258.41 219.098 258.254 218.938C258.098 218.774 257.892 218.662 257.636 218.602C257.548 218.578 257.454 218.562 257.354 218.554C257.258 218.546 257.17 218.542 257.09 218.542H254.9V221.71ZM262.051 226V217.36H267.571V218.542H263.305V220.966H266.851V222.148H263.305V224.818H267.571V226H262.051Z" fill="white"/>
<g clip-path="url(#clip1_1658_1561)">
<path d="M205.143 106.286C207.024 109.543 208.014 113.238 208.014 117C208.014 120.761 207.024 124.457 205.143 127.714M200.429 108.643C201.896 111.184 202.668 114.066 202.668 117C202.668 119.934 201.896 122.816 200.429 125.357M195.929 110.807C196.989 112.664 197.548 114.77 197.548 116.914C197.548 119.058 196.989 121.165 195.929 123.021M191.429 113.143C192.193 114.3 192.598 115.636 192.598 117C192.598 118.364 192.193 119.7 191.429 120.857" stroke="white" stroke-width="2.57143" stroke-linecap="round"/>
</g>
</g>
</g>
<defs>
<filter id="filter0_d_1658_1561" x="162" y="79" width="348" height="222" filterUnits="userSpaceOnUse" color-interpolation-filters="sRGB">
<feFlood flood-opacity="0" result="BackgroundImageFix"/>
<feColorMatrix in="SourceAlpha" type="matrix" values="0 0 0 0 0 0 0 0 0 0 0 0 0 0 0 0 0 0 127 0" result="hardAlpha"/>
<feOffset dx="8" dy="10"/>
<feGaussianBlur stdDeviation="8"/>
<feColorMatrix type="matrix" values="0 0 0 0 0 0 0 0 0 0 0 0 0 0 0 0 0 0 0.05 0"/>
<feBlend mode="normal" in2="BackgroundImageFix" result="effect1_dropShadow_1658_1561"/>
<feBlend mode="normal" in="SourceGraphic" in2="effect1_dropShadow_1658_1561" result="shape"/>
</filter>
<linearGradient id="paint0_linear_1658_1561" x1="169.995" y1="274.999" x2="337.809" y2="-4.10222" gradientUnits="userSpaceOnUse">
<stop stop-color="#101828"/>
<stop offset="1" stop-color="#475467"/>
</linearGradient>
<linearGradient id="paint1_linear_1658_1561" x1="170" y1="93.023" x2="478.782" y2="286.518" gradientUnits="userSpaceOnUse">
<stop stop-color="white"/>
<stop offset="1" stop-color="white" stop-opacity="0.2"/>
</linearGradient>
<clipPath id="clip0_1658_1561">
<rect width="280" height="360" rx="8" fill="white"/>
</clipPath>
<clipPath id="clip1_1658_1561">
<rect width="20" height="24" fill="white" transform="translate(190 105)"/>
</clipPath>
</defs>
</svg>
