<svg width="90" height="126" viewBox="0 0 90 126" fill="none" xmlns="http://www.w3.org/2000/svg">
<path d="M41.2333 79.5148C62.662 79.5148 80.0333 62.1434 80.0333 40.7148C80.0333 19.2861 62.662 1.91479 41.2333 1.91479C19.8047 1.91479 2.43335 19.2861 2.43335 40.7148C2.43335 62.1434 19.8047 79.5148 41.2333 79.5148Z" fill="white"/>
<path d="M49.2334 76.8147C34.2334 79.9147 18.9334 73.4147 10.7334 60.5147C2.43341 47.3147 3.2334 30.3147 12.6334 17.8147C21.9334 5.81473 38.1334 0.614732 52.6334 5.61473C67.3334 10.8147 77.3334 24.6147 77.6334 40.2147C77.9334 55.5147 68.7334 69.4147 54.5334 75.2147C52.8334 75.9147 51.0334 76.4147 49.2334 76.8147C48.2334 77.1147 46.9334 77.9147 47.1334 79.1147C47.3334 80.3147 48.9334 80.6147 49.9334 80.4147C66.5334 76.7147 79.8334 63.0147 82.1334 45.9147C84.3334 28.8147 75.5334 12.2147 60.2334 4.41473C44.5334 -3.38527 25.5334 -0.585271 12.7334 11.3147C0.233408 23.1147 -3.46658 41.5147 3.43342 57.3147C10.2334 72.6147 26.6334 82.3147 43.2334 81.3147C45.4334 81.2147 47.7334 80.9147 49.8334 80.4147C50.8334 80.2147 52.1334 79.3147 51.9334 78.1147C51.7334 76.9147 50.2334 76.6147 49.2334 76.8147Z" fill="#FC060C"/>
<path d="M48.3335 79.2148C69.7621 79.2148 87.1335 61.8434 87.1335 40.4147C87.1335 18.9861 69.7621 1.61475 48.3335 1.61475C26.9048 1.61475 9.53345 18.9861 9.53345 40.4147C9.53345 61.8434 26.9048 79.2148 48.3335 79.2148Z" fill="white"/>
<path d="M56.4334 76.6147C41.4334 79.7147 26.0334 73.2147 17.8334 60.3147C9.53339 47.1147 10.2334 30.1147 19.6334 17.6147C29.0334 5.41474 45.2334 0.514742 59.8334 5.41474C74.4334 10.5147 84.3334 24.6147 84.7334 39.9147C85.0334 55.2147 75.8334 69.1147 61.7334 74.9147C60.0334 75.6147 58.2334 76.1147 56.4334 76.6147C55.4334 76.8147 54.1334 77.6147 54.3334 78.8147C54.5334 80.0147 56.1334 80.4147 57.1334 80.2147C65.5334 78.4147 73.2334 74.0147 79.0334 67.7147C94.1334 51.4147 93.2334 25.9147 76.8334 10.8147C74.0334 8.21474 70.9334 6.11474 67.5334 4.41474C51.8334 -3.38526 32.8334 -0.685262 19.9334 11.2147C7.4334 23.0147 3.73338 41.4147 10.5334 57.1147C17.3334 72.4147 33.6334 82.1147 50.3334 81.1147C52.5334 81.0147 54.8334 80.7147 56.9334 80.2147C57.9334 80.0147 59.3334 79.2147 59.0334 78.0147C58.7334 76.8147 57.3334 76.4147 56.4334 76.6147Z" fill="#FC060C"/>
<path d="M13.5334 13.8147C14.7334 14.7147 16.0335 15.4147 17.4335 15.9147Z" fill="white"/>
<path d="M11.3334 14.3148C12.5334 15.2148 13.8334 15.9148 15.2334 16.4148C15.7334 16.6148 16.2334 16.7148 16.7334 16.7148C17.3334 16.7148 18.0334 16.7148 18.6334 16.5148L19.1334 16.3148C19.3334 16.2148 19.6334 16.1148 19.7334 15.9148L19.8334 15.7148C19.8334 15.5148 19.6334 15.4148 19.4334 15.3148C18.0334 14.8148 16.7334 14.0148 15.5334 13.2148C15.3334 13.1148 15.1334 13.0148 14.8334 13.0148C14.5334 12.9148 14.2334 12.9148 13.9334 12.9148C13.3334 12.9148 12.6334 12.9148 12.0334 13.1148L11.5334 13.3148C11.3334 13.4148 11.0334 13.5148 10.9334 13.7148L10.8334 13.9148C11.0334 14.1148 11.1334 14.2148 11.3334 14.3148Z" fill="#FC060C"/>
<path d="M8.13342 22.2147C9.63342 22.5147 11.1334 23.0147 12.4334 23.9147Z" fill="white"/>
<path d="M9.03343 24.2148C9.73343 24.3148 10.4334 24.5148 11.1334 24.8148L10.7334 24.6148C11.3334 24.8148 11.9334 25.2148 12.5334 25.5148L12.0334 25.2148C12.1334 25.3148 12.3335 25.4148 12.4335 25.4148C12.7335 25.7148 13.2334 25.9148 13.6334 25.9148C13.9334 25.8148 14.1334 25.5148 14.1334 25.2148C14.0334 24.7148 13.8334 24.2148 13.5334 23.7148C13.2334 23.1148 12.7334 22.7148 12.2334 22.3148C10.6334 21.2148 8.93343 20.5148 7.03343 20.1148C6.73343 20.0148 6.33344 20.1148 6.23344 20.4148C6.13344 20.8148 6.23345 21.3148 6.43345 21.7148C6.73345 22.3148 7.13343 22.8148 7.53343 23.3148C8.03343 23.8148 8.53343 24.0148 9.03343 24.2148Z" fill="#FC060C"/>
<path d="M9.53345 31.9148C7.53345 32.1148 5.53345 32.1148 3.53345 32.1148Z" fill="white"/>
<path d="M10.3334 30.5148C9.33338 30.6148 8.33338 30.6148 7.33338 30.7148C6.83338 30.7148 6.43338 30.7148 5.93338 30.7148H5.03336C5.33336 30.7148 5.43337 30.7148 5.23337 30.7148H4.83338C4.23338 30.7148 3.63336 30.8148 3.03336 31.0148C2.43336 31.2148 1.93336 31.5148 1.53336 31.9148C1.33336 32.2148 0.933366 32.6148 1.13337 33.0148C1.33337 33.4148 1.73337 33.6148 2.13337 33.6148C4.33337 33.6148 6.53337 33.6148 8.63337 33.4148C9.23337 33.3148 9.93336 33.2148 10.5334 32.8148C11.0334 32.6148 11.4334 32.2148 11.7334 31.8148C11.9334 31.5148 11.9334 31.1148 11.6334 30.8148C11.2334 30.5148 10.8334 30.4148 10.3334 30.5148Z" fill="#FC060C"/>
<path d="M9.23346 43.0148C7.23346 43.5148 5.13345 43.9148 3.03345 44.1148Z" fill="white"/>
<path d="M8.53346 40.6147C6.53346 41.1147 4.43348 41.5147 2.33348 41.7147C1.73348 41.9147 1.23348 42.3147 0.933483 42.8147C0.633483 43.4147 0.633477 44.0147 0.833477 44.6147C1.03348 45.2147 1.43346 45.8147 2.03346 46.1147L2.63346 46.4148C3.03346 46.5148 3.43348 46.5147 3.83348 46.5147C5.93348 46.2147 7.93346 45.9148 10.0335 45.4148C11.2335 45.0148 11.9335 43.8147 11.5335 42.6147V42.5147C11.1335 41.2147 9.83346 40.4147 8.53346 40.6147Z" fill="#FC060C"/>
<path d="M11.0334 52.7147C9.13345 53.2147 7.33345 53.7147 5.53345 54.4147Z" fill="white"/>
<path d="M11.9335 51.7148C9.83345 52.2148 7.83345 52.8148 5.83345 53.5148C5.23345 53.7148 4.63343 54.0148 4.03343 54.3148C3.83343 54.5148 3.23343 54.8148 3.13343 55.1148C2.93343 55.9148 4.93343 55.3148 5.03343 55.2148C5.93343 54.9148 6.83344 54.6148 7.73344 54.3148C7.93344 54.2148 8.73345 54.0148 7.93345 54.2148L8.63343 54.0148L10.0334 53.6148C10.6334 53.4148 11.2334 53.2148 11.8334 52.9148C12.3334 52.7148 12.7334 52.4148 13.1334 52.0148C13.2334 51.8148 13.4334 51.6148 13.1334 51.4148C12.7334 51.5148 12.3335 51.5148 11.9335 51.7148Z" fill="#FC060C"/>
<path d="M15.6334 62.4148C14.4334 63.5148 13.1334 64.4148 11.6334 65.1148Z" fill="white"/>
<path d="M13.7335 62.4148C13.5335 62.6148 13.2335 62.8148 12.9335 63.0148L12.4335 63.3148L12.2335 63.4148L12.1335 63.5148L12.4335 63.3148C12.1335 63.5148 11.8335 63.7148 11.5335 63.8148L11.4335 63.9148L11.1335 64.0148C10.5335 64.2148 10.0335 64.6148 9.63346 65.0148C9.43346 65.2148 9.03346 65.7148 9.23346 66.0148C9.43346 66.3148 9.83346 66.4148 10.2335 66.4148C10.8335 66.4148 11.4335 66.2148 11.9335 66.0148C13.9335 65.1148 15.8335 63.9148 17.4335 62.4148C17.6335 62.2148 17.9335 61.8148 17.8335 61.4148C17.7335 61.0148 17.1335 61.0148 16.8335 61.0148C15.8335 61.1148 14.6335 61.6148 13.7335 62.4148Z" fill="#FC060C"/>
<path d="M22.1334 69.9148C21.0334 70.4148 20.0334 71.1148 19.1334 71.9148Z" fill="white"/>
<path d="M21.1334 68.4148C19.6334 69.0148 18.3334 69.9148 17.1334 71.0148C16.7334 71.3148 16.5334 71.8148 16.6334 72.3148C16.7334 72.8148 17.1334 73.1148 17.5334 73.3148C18.1334 73.5148 18.7334 73.6148 19.3334 73.5148C19.9334 73.4148 20.5334 73.1148 21.0334 72.7148C21.3334 72.4148 21.6334 72.2148 21.9334 71.9148L21.4334 72.2148C21.9334 71.8148 22.5334 71.5148 23.0334 71.2148L22.4334 71.5148L22.8334 71.3148C23.3334 71.1148 23.8334 70.8148 24.1334 70.3148C24.3334 69.9148 24.3334 69.4148 24.1334 69.0148C23.8334 68.6148 23.3334 68.3148 22.8334 68.2148C22.4334 68.1148 21.7334 68.2148 21.1334 68.4148Z" fill="#FC060C"/>
<path d="M56.8333 28.7147C54.7333 26.7147 52.3333 24.6147 49.4333 24.7147C46.8333 24.8147 44.4333 26.7147 43.2333 29.0147C42.2333 30.8147 41.7333 33.1147 42.8333 34.9147C43.4333 35.8147 44.2333 36.6147 45.1333 37.2147C47.5333 38.8147 49.7333 40.7147 51.5333 42.8147C53.3333 45.1147 54.3333 48.1147 53.4333 50.8147C52.2333 53.9147 49.3333 55.9147 46.0333 55.8147C42.8333 55.6147 39.8333 54.0147 37.9333 51.4147" fill="white"/>
<path d="M58.7333 27.5147C55.4333 24.5147 51.6333 22.0147 47.0333 23.4147C43.2333 24.6147 39.8333 28.4147 39.7333 32.5147C39.5333 37.2147 44.7333 39.2147 47.6333 42.0147C50.3333 44.5147 52.9334 49.2147 49.9334 52.5147C46.9334 55.8147 42.4333 53.4147 40.1333 50.5147C39.3333 49.6147 38.0334 49.4147 36.9334 49.9147C36.1334 50.2147 34.8333 51.3147 35.6333 52.3147C38.2333 55.8147 42.4333 57.8147 46.7333 57.5147C50.8333 57.1147 54.9333 54.6147 56.0333 50.4147C57.1333 45.9147 54.2333 41.7147 51.0333 38.9147C49.3333 37.4147 47.2333 36.3147 45.7333 34.7147C44.2333 33.1147 44.6333 31.0147 45.5333 29.4147C46.3333 28.0147 47.7333 26.2147 49.5333 26.4147C51.6333 26.6147 53.5334 28.6147 54.9334 29.9147C56.3334 31.2147 60.8333 29.3147 58.7333 27.5147Z" fill="#FC060C"/>
<path d="M51.4335 20.2147L51.0334 24.2147Z" fill="white"/>
<path d="M49.5334 18.7147L49.1334 22.7147C49.1334 23.1147 49.2334 23.6147 49.5334 23.9147C49.9334 24.4147 50.3334 24.9147 50.8334 25.3147C51.2334 25.7147 51.7334 25.9147 52.2334 26.0147C52.5334 26.0147 52.9334 26.0147 52.9334 25.6147L53.3334 21.6147C53.3334 21.2147 53.1334 20.7147 52.9334 20.4147C52.5334 19.9147 52.1334 19.4147 51.6334 19.0147C51.2334 18.6147 50.7334 18.4147 50.2334 18.3147C50.0334 18.3147 49.6334 18.3147 49.5334 18.7147Z" fill="#FC060C"/>
<path d="M44.3333 56.7147C44.3333 58.3147 44.0333 59.9147 43.4333 61.4147Z" fill="white"/>
<path d="M42.6334 55.7148C42.6334 55.8148 42.6334 56.0148 42.6334 56.1148V55.7148C42.5334 56.9148 42.3334 58.2148 41.9334 59.4148L42.0334 59.0148L41.8334 59.5148C41.6334 59.9148 41.6334 60.4148 41.7334 60.9148C41.9334 61.5148 42.2334 62.1148 42.6334 62.6148C42.9334 63.0148 43.4334 63.3148 43.9334 63.5148C44.3334 63.6148 44.8334 63.5148 44.9334 63.1148C45.3334 62.2148 45.5334 61.3148 45.7334 60.4148C45.9334 59.5148 46.0334 58.5148 45.9334 57.6148C45.8334 57.0148 45.6334 56.4148 45.3334 55.9148C45.0334 55.4148 44.5334 54.9148 44.0334 54.6148C43.6334 54.4148 43.1334 54.2148 42.8334 54.5148C42.6334 54.9148 42.5334 55.3148 42.6334 55.7148Z" fill="#FC060C"/>
<path d="M76.6334 83.6147C72.8334 90.2147 66.7334 95.3147 60.1334 99.1147C56.6334 101.115 53.0334 102.815 49.2334 104.215C45.0334 105.915 40.5334 107.015 36.0334 107.215C32.2334 107.315 28.5334 106.415 25.2334 104.715C22.1334 103.015 18.7334 100.115 18.0334 96.5147C17.8334 95.7147 17.9334 94.8147 18.4334 94.1147C18.6334 93.8147 18.7334 93.8147 19.1334 93.8147C20.5334 94.0147 21.7334 94.8147 22.4334 96.0147C24.3334 99.0147 24.2334 103.215 23.6334 106.615C22.1334 114.115 16.3334 120.815 8.8334 122.615C7.9334 122.815 6.6334 123.715 6.9334 124.815C7.2334 125.915 8.93339 125.815 9.73339 125.615C18.3334 123.415 25.2334 116.915 27.9334 108.415C29.1334 104.415 29.5334 99.6147 27.9334 95.7147C27.1334 93.6147 25.5334 91.9147 23.5334 91.0147C21.4334 90.2147 19.0334 90.3147 16.9334 91.2147C14.8334 92.1147 13.3334 94.1147 13.2334 96.4147C13.3334 98.7147 14.2334 100.915 15.7334 102.615C18.6334 106.115 22.6334 108.515 27.0334 109.615C37.4334 112.415 48.2334 108.615 57.5334 104.115C67.0334 99.6147 76.0334 93.1147 81.4334 83.9147C82.0334 82.9147 80.8334 82.2147 79.9334 82.1147C78.6334 82.0147 77.4334 82.6147 76.6334 83.6147Z" fill="#FC060C"/>
</svg>
