<svg width="32" height="32" viewBox="0 0 32 32" fill="none" xmlns="http://www.w3.org/2000/svg">
<rect width="32" height="32" rx="4" fill="white"/>
<path d="M13.461 15.5763H17.6385L17.6286 15.6121C17.584 15.7961 17.4252 15.9239 17.2416 15.9239H13.8579C13.6743 15.9239 13.5156 15.7961 13.4709 15.6121L13.461 15.5763ZM13.3469 15.1059L12.682 12.3195C12.6473 12.1662 12.553 12.0332 12.429 11.9412L12.0668 11.6805C11.9924 11.6242 11.9477 11.5322 11.9577 11.4402C11.9974 11.0414 12.1065 9.98306 12.1561 9.69676C12.2157 9.34398 12.3595 9.17527 12.7763 9.17527C13.1881 9.17527 15.5547 9.17527 15.5547 9.17527C15.5547 9.17527 17.9213 9.17527 18.3332 9.17527C18.745 9.17527 18.8938 9.34398 18.9533 9.69676C19.003 9.98306 19.1121 11.0414 19.1518 11.4402C19.1617 11.5373 19.122 11.6293 19.0426 11.6805L18.6805 11.9412C18.5564 12.0332 18.4621 12.1662 18.4274 12.3195L17.7626 15.1008C17.7179 15.2849 17.5592 15.4127 17.3756 15.4127H13.7488C13.5553 15.4178 13.3915 15.29 13.3469 15.1059ZM12.2554 11.1794C12.4489 10.9033 13.4163 9.74788 15.654 9.44112H12.6324C12.5282 9.44112 12.4439 9.51781 12.429 9.62518C12.3893 9.99329 12.2901 10.8011 12.2554 11.1794ZM13.0095 11.9923C13.1137 12.0588 13.2328 12.0946 13.3518 12.0946H17.7427C17.8668 12.0946 17.9858 12.0588 18.0851 11.9923L18.8095 11.5117C18.8541 11.4811 18.8442 11.4146 18.7946 11.3993C18.0752 11.2152 16.1055 11.1845 15.5448 11.1845C14.9842 11.1845 13.0145 11.2152 12.295 11.3993C12.2454 11.4146 12.2355 11.4811 12.2802 11.5117L13.0095 11.9923ZM13.3221 12.8564H14.6567C14.7708 12.8564 14.8849 12.887 14.9842 12.9433C15.1132 13.0097 15.3166 13.0558 15.5498 13.0558C15.783 13.0558 15.9864 13.0097 16.1154 12.9433C16.2196 12.887 16.3287 12.8564 16.4428 12.8564H17.7775C17.8221 12.8564 17.8519 12.8206 17.8519 12.7797C17.8519 12.7337 17.8172 12.6979 17.7775 12.6979H16.4428C16.3287 12.6979 16.2146 12.6672 16.1154 12.611C15.9864 12.5445 15.783 12.4985 15.5498 12.4985C15.3166 12.4985 15.1132 12.5445 14.9842 12.611C14.88 12.6672 14.7708 12.6979 14.6567 12.6979H13.3221C13.2774 12.6979 13.2476 12.7337 13.2476 12.7797C13.2427 12.8206 13.2774 12.8564 13.3221 12.8564ZM29.0995 19.1858C29.0995 19.5795 28.787 19.9016 28.4049 19.9016H21.0123L17.1176 19.9323H17.0878L15.5498 19.9425L14.0117 19.9323H13.9819L10.0872 19.9016H2.69461C2.31257 19.9016 2 19.5795 2 19.1858H3.08656L7.26908 13.8175C7.46754 13.567 7.57669 13.25 7.57669 12.9228V8.14251C7.57669 7.45231 7.93391 6.81323 8.51441 6.47068L10.2013 5.46861C13.5007 3.51046 17.6038 3.51046 20.9032 5.46861L22.5901 6.47068C23.1706 6.81323 23.5278 7.45231 23.5278 8.14251V12.9228C23.5278 13.2449 23.637 13.567 23.8354 13.8175L28.0179 19.1858H29.0995ZM18.3877 16.7778H17.5294C17.5294 16.8698 17.4947 16.9567 17.4351 17.0181C17.3756 17.0794 17.2912 17.1152 17.2019 17.1152H13.9026C13.8133 17.1152 13.7289 17.0743 13.6694 17.0181C13.6098 16.9567 13.5751 16.8698 13.5751 16.7778H12.7168V17.744L13.0393 17.4117H18.0652L18.3877 17.744V16.7778ZM19.003 15.7297H18.0007L18.2835 15.0701C18.3431 14.9321 18.4522 14.8247 18.5911 14.7787L19.9704 14.2828C20.0697 14.247 20.1044 14.1243 20.0399 14.0425L19.7174 13.6233C19.638 13.521 19.4991 13.4801 19.38 13.5312L18.9583 13.7051L19.0625 12.7439C19.0724 12.6621 19.1022 12.5854 19.1468 12.5189L19.4396 12.115C19.509 12.0179 19.5388 11.8952 19.5289 11.7776C19.4693 11.2561 19.3106 9.7939 19.2808 9.49736C19.2461 9.12925 18.9384 8.81738 18.4522 8.81738C17.971 8.81738 15.5498 8.81738 15.5498 8.81738C15.5498 8.81738 13.1335 8.81738 12.6473 8.81738C12.1611 8.81738 11.8584 9.13437 11.8187 9.49736C11.789 9.7939 11.6252 11.2561 11.5707 11.7776C11.5558 11.8952 11.5905 12.0179 11.66 12.115L11.9527 12.5189C12.0023 12.5854 12.0271 12.6621 12.037 12.7439L12.1412 13.7051L11.7195 13.5312C11.6004 13.4801 11.4615 13.521 11.3821 13.6233L11.0596 14.0425C10.9951 14.1243 11.0299 14.247 11.1291 14.2828L12.5084 14.7787C12.6473 14.8298 12.7565 14.9321 12.816 15.0701L13.0988 15.7297H12.0966C12.2008 16.0364 12.5927 16.4966 13.1335 16.4966H17.971C18.5118 16.4966 18.8988 16.0364 19.003 15.7297ZM11.5161 14.6662C11.5161 14.6611 11.5161 14.656 11.5161 14.6458L11.2333 14.5384C11.2234 14.5793 11.2234 14.6202 11.2234 14.6662C11.2234 15.0241 11.5012 15.3104 11.8485 15.3104C12.0817 15.3104 12.2901 15.1775 12.3943 14.9781L12.1115 14.8707C12.0519 14.9525 11.9577 15.0088 11.8485 15.0088C11.6649 15.0037 11.5161 14.8554 11.5161 14.6662ZM11.0497 9.97795V11.2561C11.0497 11.4146 10.9257 11.5424 10.7719 11.5424H10.5734C10.5734 11.6447 10.6528 11.7265 10.752 11.7265H11.3573V9.51781H10.752C10.7024 9.51781 10.6627 9.53826 10.628 9.56894C10.5982 9.59962 10.5784 9.64563 10.5784 9.69676H10.7669C10.9257 9.69676 11.0497 9.81946 11.0497 9.97795ZM15.1777 8.5413L15.2967 7.98402C15.3116 7.92267 15.3612 7.88177 15.4257 7.88177H15.6688C15.7284 7.88177 15.783 7.92267 15.7978 7.98402L15.9169 8.5413H17.7328C17.2416 7.54434 16.3883 7.13533 15.5448 7.13533C14.7014 7.13533 13.848 7.54945 13.3568 8.5413H15.1777ZM20.0498 11.2561V9.97795C20.0498 9.81946 20.1739 9.69164 20.3277 9.69164H20.5162C20.5162 9.64052 20.4964 9.59962 20.4666 9.56383C20.4368 9.53315 20.3922 9.5127 20.3425 9.5127H19.7372V11.7214H20.3425C20.4418 11.7214 20.5212 11.6396 20.5212 11.5373H20.3227C20.1739 11.5424 20.0498 11.4146 20.0498 11.2561ZM19.5834 14.6662C19.5834 14.8554 19.4346 15.0037 19.256 15.0037C19.1468 15.0037 19.0526 14.9474 18.993 14.8656L18.7102 14.973C18.8144 15.1724 19.0228 15.3053 19.256 15.3053C19.5983 15.3053 19.8811 15.019 19.8811 14.6611C19.8811 14.6202 19.8762 14.5742 19.8712 14.5333L19.5884 14.6407C19.5785 14.656 19.5834 14.6611 19.5834 14.6662ZM27.2588 19.1858L23.369 14.201C23.0862 13.8431 22.9324 13.3881 22.9324 12.9279V8.14763C22.9324 7.67726 22.6844 7.23758 22.2874 7.0024L20.6005 6.00032C17.4798 4.14954 13.6098 4.14954 10.4891 6.00032L8.80217 7.0024C8.40525 7.23758 8.15718 7.67726 8.15718 8.14763V12.9279C8.15718 13.3881 8.00338 13.8431 7.72057 14.201L3.8407 19.1858H11.8634L6.14283 18.0559H10.9703V16.5579C10.6627 16.5579 10.4494 16.3739 10.4494 16.062V14.6458C10.4494 14.4771 10.5089 14.3084 10.6131 14.1805L11.1886 13.4801C11.2581 13.3932 11.2978 13.2858 11.2978 13.1734V11.9617H10.623C10.4146 11.9617 10.246 11.7878 10.246 11.5731V9.81946C10.246 9.74277 10.3055 9.68653 10.375 9.68653V9.57405C10.375 9.39511 10.5139 9.24684 10.6925 9.24684H11.3573C11.0993 9.1497 10.8413 8.73047 11.139 8.39303C11.4417 8.0556 12.0023 8.34702 12.0271 8.73558C12.2653 8.60265 12.3943 8.53619 12.8309 8.53619C13.1831 7.37562 14.3044 6.58316 15.5448 6.58316C16.7852 6.58316 17.9015 7.38073 18.2587 8.53619C18.6953 8.53619 18.8243 8.59754 19.0625 8.73558C19.0873 8.34702 19.6479 8.0556 19.9506 8.39303C20.2532 8.73047 19.9952 9.1497 19.7323 9.24684H20.3971C20.5708 9.24684 20.7147 9.39 20.7147 9.57405V9.68653C20.7891 9.68653 20.8437 9.74788 20.8437 9.81946V11.5731C20.8437 11.7878 20.675 11.9617 20.4666 11.9617H19.7918V13.1734C19.7918 13.2858 19.8315 13.3932 19.901 13.4801L20.4765 14.1805C20.5857 14.3135 20.6402 14.4771 20.6402 14.6458V16.062C20.6402 16.379 20.4269 16.5579 20.1193 16.5579V18.0559H24.9468L19.2262 19.1858H27.2588ZM2 25.0449H7.25916L9.06017 27.4069C9.34793 27.7853 9.77958 28 10.246 28H20.8486C21.315 28 21.7466 27.7853 22.0344 27.4069L23.8354 25.0449H29.0946C29.0946 24.6512 28.782 24.3291 28.4 24.3291H2.69461C2.31257 24.3291 2 24.6512 2 25.0449ZM21.573 27.0337C21.3993 27.2638 21.1364 27.3967 20.8486 27.3967H10.2509C9.96812 27.3967 9.70516 27.2638 9.52655 27.0337L8.00834 25.05H23.0862L21.573 27.0337Z" fill="black"/>
<path d="M18.9337 8.39813C18.9933 8.30099 19.0726 8.21408 19.1669 8.14761L20.3676 6.13323C18.904 5.28965 17.2419 4.84485 15.55 4.84485C13.8581 4.84485 12.1961 5.28965 10.7324 6.13323L11.9331 8.14761C12.0274 8.21408 12.1067 8.30099 12.1663 8.39813C12.3002 8.34189 12.4441 8.31122 12.6674 8.30099C13.104 7.14042 14.26 6.34285 15.55 6.34285C16.84 6.34285 17.996 7.14042 18.4326 8.30099C18.6559 8.31122 18.7998 8.34701 18.9337 8.39813Z" fill="#FC060C"/>
<path d="M11.5559 8.00959C11.5311 8.00448 11.5063 8.00448 11.4815 8.00448C11.288 8.00448 11.1094 8.08628 10.9754 8.22943C10.8017 8.4186 10.7422 8.6589 10.7968 8.89919C10.8067 8.93498 10.8166 8.97077 10.8315 9.00144H10.7025C10.4147 9.00144 10.1766 9.23151 10.1518 9.52804C10.0724 9.59962 10.0178 9.70187 10.0178 9.81946V11.5731C10.0178 11.9208 10.2907 12.202 10.6281 12.202H11.0647V13.1734C11.0647 13.2296 11.0449 13.2807 11.0151 13.3216L10.4396 14.0221C10.4147 14.0527 10.3949 14.0783 10.3751 14.1141L8.40039 12.7695V8.14763C8.40039 7.76418 8.60381 7.4063 8.92631 7.21202L10.4445 6.31219L11.5559 8.00959ZM20.3079 8.9043C20.298 8.94009 20.2881 8.97588 20.2732 9.00655H20.4022C20.6899 9.00655 20.9281 9.23662 20.9529 9.53316C21.0323 9.60473 21.0869 9.70699 21.0869 9.82458V11.5782C21.0869 11.9259 20.814 12.2071 20.4766 12.2071H20.04V13.1785C20.04 13.2347 20.0598 13.2858 20.0896 13.3267L20.6651 14.0272C20.6899 14.0578 20.7098 14.0834 20.7296 14.1192L22.7043 12.7746V8.15274C22.7043 7.7693 22.5009 7.41141 22.1784 7.21713L20.6602 6.31731L19.5488 8.01982C19.5736 8.0147 19.5984 8.0147 19.6232 8.0147C19.8167 8.0147 19.9953 8.0965 20.1293 8.23966C20.298 8.42371 20.3625 8.6589 20.3079 8.9043Z" fill="#FF070A"/>
<path d="M10.2501 27.1513C10.0367 27.1513 9.84325 27.0542 9.71425 26.8803L8.49869 25.2903H22.6041L21.3886 26.8803C21.2596 27.0491 21.0611 27.1513 20.8527 27.1513H10.2501ZM4.33105 18.9404H9.38183L5.00581 18.0764L4.33105 18.9404ZM10.7363 16.7675V17.8105H6.14695L5.21916 17.8054L7.91324 14.3544C8.18612 14.0016 8.35481 13.5722 8.38954 13.1274L10.2799 14.3033C10.2402 14.4106 10.2154 14.5282 10.2154 14.6509V16.0671C10.2154 16.4148 10.4188 16.6806 10.7363 16.7675ZM26.7668 18.9404H21.716L26.0921 18.0764L26.7668 18.9404ZM24.9509 17.8105H20.3616V16.7675C20.6741 16.6806 20.8825 16.4097 20.8825 16.0569V14.6407C20.8825 14.5231 20.8627 14.4055 20.818 14.293L22.7083 13.1171C22.748 13.5619 22.9118 13.9914 23.1846 14.3442L25.8787 17.7952L24.9509 17.8105Z" fill="#FF070A"/>
<path d="M2.27734 22.8794H2.70798V22.2007H3.46793V21.8353H2.70798V21.4176H3.72124V21.0522H2.27734V22.8794ZM4.74957 22.9055C5.31713 22.9055 5.59852 22.6318 5.59852 22.0286L5.59578 21.0522H5.16514V22.1097C5.16514 22.399 5.03369 22.5401 4.74957 22.5401C4.46818 22.5401 4.33194 22.4046 4.33194 22.1097L4.3292 21.0522H3.89856V22.0286C3.89856 22.6134 4.1642 22.9055 4.74957 22.9055ZM5.85183 22.8794H7.29573V22.514H6.28247V22.1485H7.04242V21.7831H6.28247V21.4176H7.29573V21.0522H5.85183V22.8794ZM7.54905 22.8794H8.99295V22.514H7.97969V21.0522H7.54905V22.8794ZM9.7529 22.8794H10.8346C11.2091 22.8794 11.3919 22.7016 11.3919 22.3051C11.3919 22.049 11.3104 21.8797 11.1509 21.7965C11.2269 21.7182 11.2653 21.613 11.2653 21.4832C11.2653 21.2194 11.0975 21.0522 10.8469 21.0522H9.7529V22.8794ZM10.8346 22.514H10.1835V22.0963H10.8346C10.9229 22.0963 10.9613 22.1591 10.9613 22.3051C10.9613 22.4434 10.9229 22.514 10.8346 22.514ZM10.7504 21.7309H10.1835V21.4176H10.7504C10.8011 21.4176 10.8346 21.4832 10.8346 21.5742C10.8346 21.6681 10.799 21.7309 10.7504 21.7309ZM12.4962 22.9055C13.0638 22.9055 13.3445 22.6318 13.3445 22.0286L13.3424 21.0522H12.9118V22.1097C12.9118 22.399 12.7797 22.5401 12.4962 22.5401C12.2149 22.5401 12.0779 22.4046 12.0779 22.1097L12.0759 21.0522H11.6452V22.0286C11.6452 22.6134 11.9109 22.9055 12.4962 22.9055ZM14.2818 22.1746V22.8794H14.7124V22.1746L15.3964 21.0522H14.9404L14.4974 21.7802L14.0538 21.0522H13.5978L14.2818 22.1746ZM15.6497 22.8794H17.0936V22.514H16.0803V22.1485H16.8403V21.7831H16.0803V21.4176H17.0936V21.0522H15.6497V22.8794ZM17.3469 22.8794H17.7775V22.279H18.0993L18.4361 22.8794H18.8921L18.5327 22.2374C18.7504 22.1591 18.8593 21.9658 18.8593 21.6603C18.8593 21.2561 18.6621 21.0522 18.2664 21.0522H17.3469V22.8794ZM18.2643 21.9136H17.7775V21.4176H18.2643C18.3677 21.4176 18.4286 21.4987 18.4286 21.6631C18.4286 21.8303 18.3732 21.9136 18.2643 21.9136ZM19.9437 22.9055C20.3668 22.9055 20.5873 22.8117 20.6783 22.6417C20.7215 22.5556 20.7441 22.4462 20.7441 22.3101C20.7441 21.9552 20.5845 21.7831 20.1361 21.7831H19.9437C19.7664 21.7831 19.6651 21.7831 19.6144 21.7309C19.5911 21.7076 19.5788 21.6659 19.5788 21.6081C19.5788 21.491 19.6089 21.436 19.713 21.4099C19.7637 21.3964 19.8424 21.3915 19.9458 21.3915C20.0957 21.3915 20.1717 21.4049 20.2224 21.4853C20.2477 21.5248 20.26 21.5876 20.26 21.6681H20.6934C20.6934 21.1876 20.4401 21.0261 19.9458 21.0261C19.5234 21.0261 19.3029 21.1199 19.2139 21.2899C19.1687 21.376 19.1454 21.4853 19.1454 21.6215C19.1454 21.9764 19.305 22.1485 19.7534 22.1485H19.9437C20.1135 22.1485 20.2224 22.1591 20.2751 22.2113C20.2984 22.2374 20.3107 22.2741 20.3107 22.3235C20.3107 22.4406 20.2806 22.4928 20.1792 22.5189C20.1258 22.5323 20.0471 22.5401 19.9437 22.5401C19.7609 22.5401 19.6699 22.5245 19.6192 22.4462C19.5911 22.4067 19.5788 22.3468 19.5788 22.2635H19.1454C19.1454 22.5951 19.27 22.7722 19.5028 22.8484C19.6165 22.8872 19.7637 22.9055 19.9437 22.9055ZM22.4187 22.9055C22.9958 22.9055 23.2847 22.6889 23.2847 22.2557H22.8541C22.8541 22.4434 22.6515 22.5401 22.4187 22.5401C22.0914 22.5401 21.9346 22.3679 21.9346 21.963C21.9346 21.5742 22.0818 21.3915 22.4187 21.3915C22.6645 21.3915 22.8568 21.4698 22.8568 21.6786H23.2875C23.2567 21.2426 22.9253 21.0261 22.4187 21.0261C21.8005 21.0261 21.504 21.3132 21.504 21.963C21.504 22.6 21.7827 22.9055 22.4187 22.9055ZM23.5408 22.8794H24.9847V22.514H23.9714V21.0522H23.5408V22.8794ZM26.089 22.9055C26.6566 22.9055 26.9373 22.6318 26.9373 22.0286L26.9352 21.0522H26.5046V22.1097C26.5046 22.399 26.3725 22.5401 26.089 22.5401C25.8076 22.5401 25.6707 22.4046 25.6707 22.1097L25.6687 21.0522H25.238V22.0286C25.238 22.6134 25.5037 22.9055 26.089 22.9055ZM27.1906 22.8794H28.2723C28.6475 22.8794 28.8296 22.7016 28.8296 22.3051C28.8296 22.049 28.7488 21.8797 28.5893 21.7965C28.6653 21.7182 28.703 21.613 28.703 21.4832C28.703 21.2194 28.5359 21.0522 28.2853 21.0522H27.1906V22.8794ZM28.2723 22.514H27.6212V22.0963H28.2723C28.3613 22.0963 28.399 22.1591 28.399 22.3051C28.399 22.4434 28.3613 22.514 28.2723 22.514ZM28.1888 21.7309H27.6212V21.4176H28.1888C28.2395 21.4176 28.2723 21.4832 28.2723 21.5742C28.2723 21.6681 28.2374 21.7309 28.1888 21.7309Z" fill="black"/>
<path d="M10.4512 26.7677H11.2317V26.5702H10.6839V26.3727H11.0947V26.1751H10.6839V25.9776H11.2317V25.78H10.4512V26.7677ZM12.2545 26.7818C12.4832 26.7818 12.6023 26.7311 12.6516 26.6393C12.6749 26.5928 12.6872 26.5335 12.6872 26.4601C12.6872 26.2682 12.6009 26.1751 12.3586 26.1751H12.2545C12.1587 26.1751 12.1039 26.1751 12.0765 26.1469C12.0642 26.1342 12.0573 26.1116 12.0573 26.0806C12.0573 26.0171 12.0738 25.9875 12.1299 25.9733C12.1573 25.9663 12.1997 25.9635 12.2559 25.9635C12.3367 25.9635 12.3777 25.9705 12.4051 26.0143C12.4188 26.0354 12.4257 26.0693 12.4257 26.113H12.6598C12.6598 25.8534 12.5229 25.7659 12.2559 25.7659C12.0272 25.7659 11.9081 25.8167 11.8602 25.9084C11.8355 25.955 11.8232 26.0143 11.8232 26.0876C11.8232 26.2795 11.9094 26.3727 12.1518 26.3727H12.2545C12.3462 26.3727 12.4051 26.3783 12.4339 26.4065C12.4462 26.4206 12.4531 26.4404 12.4531 26.4672C12.4531 26.5307 12.4366 26.5589 12.3818 26.573C12.3531 26.5801 12.3106 26.5843 12.2545 26.5843C12.1559 26.5843 12.1066 26.5758 12.0792 26.5335C12.0642 26.5123 12.0573 26.4799 12.0573 26.4347H11.8232C11.8232 26.6139 11.8903 26.7099 12.0163 26.7508C12.0779 26.772 12.1573 26.7818 12.2545 26.7818ZM13.58 26.7677H13.8127V25.9776H14.114V25.78H13.2787V25.9776H13.58V26.7677ZM15.4353 26.5702L15.434 26.7677H16.2706V26.5702H15.6695C15.675 26.4587 15.7174 26.415 15.8393 26.415H15.942C16.1843 26.415 16.2706 26.3219 16.2706 26.13V26.0876C16.2706 25.9409 16.2295 25.852 16.1035 25.8026C16.0405 25.7786 15.9515 25.7659 15.8379 25.7659C15.5709 25.7659 15.434 25.8534 15.434 26.113H15.6681C15.6681 26.0241 15.6982 25.9846 15.7434 25.9719C15.7667 25.9663 15.7982 25.9635 15.8379 25.9635C15.9379 25.9635 15.9995 25.9733 16.0214 26.0086C16.031 26.0241 16.0364 26.0481 16.0364 26.0806V26.1229C16.0364 26.185 16.0104 26.2076 15.9611 26.2132C15.9365 26.216 15.8954 26.2174 15.8393 26.2174H15.7626C15.5503 26.2174 15.4449 26.3261 15.4353 26.5702ZM17.329 26.7818C17.6426 26.7818 17.7932 26.6266 17.7932 26.2725C17.7932 25.9282 17.6522 25.7659 17.329 25.7659C17.0127 25.7659 16.8621 25.9211 16.8621 26.2725C16.8621 26.6168 17.0045 26.7818 17.329 26.7818ZM17.0949 26.2725C17.0949 26.0622 17.1647 25.9635 17.329 25.9635C17.4865 25.9635 17.5604 26.058 17.5604 26.2725C17.5604 26.4827 17.4892 26.5843 17.329 26.5843C17.1702 26.5843 17.0949 26.4884 17.0949 26.2725ZM18.3861 26.5702L18.3847 26.7677H19.2214V26.5702H18.6203C18.6257 26.4587 18.6682 26.415 18.7901 26.415H18.8927C19.1351 26.415 19.2214 26.3219 19.2214 26.13V26.0876C19.2214 25.9409 19.1803 25.852 19.0543 25.8026C18.9913 25.7786 18.9023 25.7659 18.7887 25.7659C18.5217 25.7659 18.3847 25.8534 18.3847 26.113H18.6189C18.6189 26.0241 18.649 25.9846 18.6942 25.9719C18.7175 25.9663 18.749 25.9635 18.7887 25.9635C18.8886 25.9635 18.9503 25.9733 18.9722 26.0086C18.9817 26.0241 18.9872 26.0481 18.9872 26.0806V26.1229C18.9872 26.185 18.9612 26.2076 18.9119 26.2132C18.8873 26.216 18.8462 26.2174 18.7901 26.2174H18.7134C18.5011 26.2174 18.3957 26.3261 18.3861 26.5702ZM19.8129 26.3444V26.542H20.3195V26.7677H20.5523V26.542H20.6482V26.3444H20.5523V25.78H20.2223L19.8129 26.3444ZM20.3195 26.3444H20.0457L20.3195 25.9663V26.3444Z" fill="white"/>
</svg>
