<svg width="333" height="64" viewBox="0 0 333 64" fill="none" xmlns="http://www.w3.org/2000/svg">
<rect width="64" height="64" rx="8" fill="white"/>
<path d="M26.922 31.1526H35.2771L35.2572 31.2242C35.1679 31.5923 34.8504 31.8479 34.4833 31.8479H27.7158C27.3487 31.8479 27.0311 31.5923 26.9418 31.2242L26.922 31.1526ZM26.6938 30.2119L25.3641 24.6391C25.2946 24.3323 25.1061 24.0665 24.858 23.8824L24.1336 23.3609C23.9848 23.2484 23.8955 23.0644 23.9153 22.8803C23.9947 22.0828 24.213 19.9661 24.3123 19.3935C24.4313 18.688 24.7191 18.3505 25.5526 18.3505C26.3762 18.3505 31.1095 18.3505 31.1095 18.3505C31.1095 18.3505 35.8427 18.3505 36.6663 18.3505C37.4899 18.3505 37.7876 18.688 37.9067 19.3935C38.0059 19.9661 38.2242 22.0828 38.3036 22.8803C38.3234 23.0746 38.244 23.2587 38.0853 23.3609L37.3609 23.8824C37.1128 24.0665 36.9243 24.3323 36.8548 24.6391L35.5252 30.2016C35.4359 30.5697 35.1183 30.8254 34.7512 30.8254H27.4975C27.1105 30.8356 26.7831 30.58 26.6938 30.2119ZM24.5107 22.3588C24.8977 21.8067 26.8327 19.4958 31.3079 18.8822H25.2649C25.0565 18.8822 24.8878 19.0356 24.858 19.2504C24.7786 19.9866 24.5802 21.6022 24.5107 22.3588ZM26.019 23.9847C26.2274 24.1176 26.4655 24.1892 26.7037 24.1892H35.4855C35.7335 24.1892 35.9717 24.1176 36.1702 23.9847L37.6189 23.0235C37.7082 22.9621 37.6884 22.8292 37.5891 22.7985C36.1503 22.4304 32.2109 22.3691 31.0896 22.3691C29.9683 22.3691 26.0289 22.4304 24.5901 22.7985C24.4909 22.8292 24.471 22.9621 24.5603 23.0235L26.019 23.9847ZM26.6441 25.7127H29.3134C29.5416 25.7127 29.7699 25.7741 29.9683 25.8866C30.2263 26.0195 30.6332 26.1115 31.0995 26.1115C31.5659 26.1115 31.9728 26.0195 32.2308 25.8866C32.4391 25.7741 32.6574 25.7127 32.8857 25.7127H35.5549C35.6442 25.7127 35.7038 25.6412 35.7038 25.5594C35.7038 25.4673 35.6343 25.3958 35.5549 25.3958H32.8857C32.6574 25.3958 32.4292 25.3344 32.2308 25.2219C31.9728 25.089 31.5659 24.997 31.0995 24.997C30.6332 24.997 30.2263 25.089 29.9683 25.2219C29.7599 25.3344 29.5416 25.3958 29.3134 25.3958H26.6441C26.5548 25.3958 26.4953 25.4673 26.4953 25.5594C26.4854 25.6412 26.5548 25.7127 26.6441 25.7127ZM58.1991 38.3716C58.1991 39.159 57.5739 39.8032 56.8099 39.8032H42.0247L34.2352 39.8645H34.1756L31.0995 39.885L28.0234 39.8645H27.9639L20.1744 39.8032H5.38921C4.62514 39.8032 4 39.159 4 38.3716H6.17312L14.5382 27.6351C14.9351 27.134 15.1534 26.5001 15.1534 25.8457V16.285C15.1534 14.9046 15.8678 13.6265 17.0288 12.9414L20.4026 10.9372C27.0014 7.02093 35.2076 7.02093 41.8064 10.9372L45.1802 12.9414C46.3412 13.6265 47.0556 14.9046 47.0556 16.285V25.8457C47.0556 26.4899 47.2739 27.134 47.6708 27.6351L56.0359 38.3716H58.1991ZM36.7755 33.5555H35.0588C35.0588 33.7396 34.9893 33.9134 34.8703 34.0361C34.7512 34.1588 34.5825 34.2304 34.4039 34.2304H27.8051C27.6265 34.2304 27.4578 34.1486 27.3387 34.0361C27.2197 33.9134 27.1502 33.7396 27.1502 33.5555H25.4335V35.4881L26.0785 34.8235H36.1305L36.7755 35.4881V33.5555ZM38.0059 31.4593H36.0015L36.5671 30.1403C36.6861 29.8642 36.9045 29.6495 37.1823 29.5574L39.9409 28.5656C40.1393 28.494 40.2088 28.2486 40.0798 28.085L39.4348 27.2465C39.276 27.042 38.9982 26.9602 38.76 27.0625L37.9166 27.4101L38.125 25.4878C38.1448 25.3242 38.2044 25.1708 38.2937 25.0379L38.8791 24.2301C39.018 24.0358 39.0776 23.7904 39.0577 23.5552C38.9387 22.5122 38.6211 19.5878 38.5616 18.9947C38.4921 18.2585 37.8769 17.6348 36.9045 17.6348C35.9419 17.6348 31.0995 17.6348 31.0995 17.6348C31.0995 17.6348 26.2671 17.6348 25.2946 17.6348C24.3222 17.6348 23.7169 18.2687 23.6375 18.9947C23.5779 19.5878 23.2505 22.5122 23.1413 23.5552C23.1116 23.7904 23.181 24.0358 23.32 24.2301L23.9054 25.0379C24.0046 25.1708 24.0543 25.3242 24.0741 25.4878L24.2825 27.4101L23.439 27.0625C23.2009 26.9602 22.923 27.042 22.7643 27.2465L22.1193 28.085C21.9903 28.2486 22.0597 28.494 22.2582 28.5656L25.0168 29.5574C25.2946 29.6597 25.5129 29.8642 25.632 30.1403L26.1976 31.4593H24.1932C24.4016 32.0729 25.1855 32.9931 26.2671 32.9931H35.9419C37.0235 32.9931 37.7975 32.0729 38.0059 31.4593ZM23.0322 29.3325C23.0322 29.3223 23.0322 29.312 23.0322 29.2916L22.4666 29.0768C22.4467 29.1587 22.4467 29.2405 22.4467 29.3325C22.4467 30.0483 23.0024 30.6209 23.697 30.6209C24.1634 30.6209 24.5802 30.355 24.7885 29.9562L24.2229 29.7415C24.1039 29.9051 23.9153 30.0176 23.697 30.0176C23.3299 30.0073 23.0322 29.7108 23.0322 29.3325ZM22.0994 19.9559V22.5122C22.0994 22.8292 21.8514 23.0848 21.5438 23.0848H21.1468C21.1468 23.2893 21.3056 23.4529 21.5041 23.4529H22.7147V19.0356H21.5041C21.4048 19.0356 21.3254 19.0765 21.256 19.1379C21.1964 19.1992 21.1568 19.2913 21.1568 19.3935H21.5338C21.8514 19.3935 22.0994 19.6389 22.0994 19.9559ZM30.3553 17.0826L30.5935 15.968C30.6232 15.8453 30.7225 15.7635 30.8515 15.7635H31.3377C31.4568 15.7635 31.5659 15.8453 31.5957 15.968L31.8338 17.0826H35.4656C34.4833 15.0887 32.7765 14.2707 31.0896 14.2707C29.4027 14.2707 27.696 15.0989 26.7136 17.0826H30.3553ZM40.0996 22.5122V19.9559C40.0996 19.6389 40.3477 19.3833 40.6553 19.3833H41.0324C41.0324 19.281 40.9927 19.1992 40.9332 19.1277C40.8736 19.0663 40.7843 19.0254 40.6851 19.0254H39.4745V23.4427H40.6851C40.8836 23.4427 41.0423 23.2791 41.0423 23.0746H40.6454C40.3477 23.0848 40.0996 22.8292 40.0996 22.5122ZM39.1669 29.3325C39.1669 29.7108 38.8692 30.0073 38.512 30.0073C38.2937 30.0073 38.1051 29.8949 37.9861 29.7313L37.4204 29.946C37.6288 30.3448 38.0456 30.6106 38.512 30.6106C39.1967 30.6106 39.7623 30.038 39.7623 29.3223C39.7623 29.2405 39.7523 29.1484 39.7424 29.0666L39.1768 29.2814C39.157 29.312 39.1669 29.3223 39.1669 29.3325ZM54.5177 38.3716L46.7381 28.402C46.1725 27.6862 45.8649 26.7762 45.8649 25.8559V16.2953C45.8649 15.3545 45.3687 14.4752 44.5749 14.0048L41.2011 12.0006C34.9596 8.29909 27.2197 8.29909 20.9781 12.0006L17.6043 14.0048C16.8105 14.4752 16.3144 15.3545 16.3144 16.2953V25.8559C16.3144 26.7762 16.0068 27.6862 15.4411 28.402L7.68141 38.3716H23.7268L12.2857 36.1118H21.9407V33.1158C21.3254 33.1158 20.8988 32.7477 20.8988 32.124V29.2916C20.8988 28.9541 21.0178 28.6167 21.2262 28.3611L22.3773 26.9602C22.5162 26.7864 22.5956 26.5717 22.5956 26.3467V23.9233H21.2461C20.8293 23.9233 20.4919 23.5757 20.4919 23.1462V19.6389C20.4919 19.4855 20.611 19.3731 20.7499 19.3731V19.1481C20.7499 18.7902 21.0278 18.4937 21.385 18.4937H22.7147C22.1987 18.2994 21.6827 17.4609 22.278 16.7861C22.8833 16.1112 24.0046 16.694 24.0543 17.4712C24.5306 17.2053 24.7886 17.0724 25.6618 17.0724C26.3663 14.7512 28.6089 13.1663 31.0896 13.1663C33.5703 13.1663 35.803 14.7615 36.5175 17.0724C37.3907 17.0724 37.6487 17.1951 38.125 17.4712C38.1746 16.694 39.2959 16.1112 39.9012 16.7861C40.5065 17.4609 39.9905 18.2994 39.4646 18.4937H40.7942C41.1415 18.4937 41.4293 18.78 41.4293 19.1481V19.3731C41.5782 19.3731 41.6873 19.4958 41.6873 19.6389V23.1462C41.6873 23.5757 41.3499 23.9233 40.9332 23.9233H39.5836V26.3467C39.5836 26.5717 39.663 26.7864 39.802 26.9602L40.953 28.3611C41.1713 28.6269 41.2805 28.9541 41.2805 29.2916V32.124C41.2805 32.7579 40.8538 33.1158 40.2386 33.1158V36.1118H49.8936L38.4524 38.3716H54.5177ZM4 50.0898H14.5183L18.1203 54.8139C18.6959 55.5705 19.5592 56 20.4919 56H41.6972C42.63 56 43.4933 55.5705 44.0688 54.8139L47.6708 50.0898H58.1891C58.1891 49.3024 57.564 48.6583 56.7999 48.6583H5.38921C4.62514 48.6583 4 49.3024 4 50.0898ZM43.146 54.0674C42.7987 54.5276 42.2728 54.7934 41.6972 54.7934H20.5018C19.9362 54.7934 19.4103 54.5276 19.0531 54.0674L16.0167 50.1H46.1725L43.146 54.0674Z" fill="black"/>
<path d="M37.8675 16.796C37.9865 16.6017 38.1453 16.4279 38.3338 16.295L40.7352 12.2662C37.8079 10.5791 34.4837 9.68945 31.1 9.68945C27.7163 9.68945 24.3921 10.5791 21.4648 12.2662L23.8662 16.295C24.0547 16.4279 24.2135 16.6017 24.3326 16.796C24.6005 16.6835 24.8883 16.6222 25.3348 16.6017C26.208 14.2806 28.5201 12.6855 31.1 12.6855C33.68 12.6855 35.992 14.2806 36.8652 16.6017C37.3118 16.6222 37.5995 16.6938 37.8675 16.796Z" fill="#FC060C"/>
<path d="M23.112 16.0193C23.0624 16.0091 23.0128 16.0091 22.9632 16.0091C22.5762 16.0091 22.2189 16.1727 21.951 16.459C21.6037 16.8373 21.4847 17.3179 21.5938 17.7985C21.6137 17.8701 21.6335 17.9417 21.6633 18.003H21.4053C20.8297 18.003 20.3534 18.4631 20.3038 19.0562C20.1451 19.1994 20.0359 19.4039 20.0359 19.6391V23.1463C20.0359 23.8416 20.5817 24.404 21.2564 24.404H22.1296V26.3468C22.1296 26.4593 22.09 26.5616 22.0304 26.6434L20.8794 28.0442C20.8297 28.1056 20.79 28.1567 20.7504 28.2283L16.801 25.539V16.2954C16.801 15.5285 17.2079 14.8127 17.8529 14.4242L20.8893 12.6245L23.112 16.0193ZM40.6161 17.8087C40.5962 17.8803 40.5764 17.9519 40.5466 18.0132H40.8046C41.3801 18.0132 41.8564 18.4734 41.9061 19.0664C42.0648 19.2096 42.174 19.4141 42.174 19.6493V23.1565C42.174 23.8519 41.6282 24.4143 40.9534 24.4143H40.0802V26.3571C40.0802 26.4695 40.1199 26.5718 40.1795 26.6536L41.3305 28.0544C41.3801 28.1158 41.4198 28.1669 41.4595 28.2385L45.4088 25.5493V16.3056C45.4088 15.5387 45.002 14.8229 44.357 14.4344L41.3206 12.6347L39.0979 16.0398C39.1475 16.0295 39.1971 16.0295 39.2467 16.0295C39.6337 16.0295 39.9909 16.1931 40.2588 16.4794C40.5962 16.8475 40.7252 17.3179 40.6161 17.8087Z" fill="#FF070A"/>
<path d="M20.5002 54.3027C20.0735 54.3027 19.6865 54.1085 19.4285 53.7608L16.9974 50.5808H45.2083L42.7772 53.7608C42.5192 54.0982 42.1222 54.3027 41.7055 54.3027H20.5002ZM8.66211 37.881H18.7637L10.0116 36.1529L8.66211 37.881ZM21.4726 33.5352V35.6212H12.2939L10.4383 35.6109L15.8265 28.7089C16.3722 28.0033 16.7096 27.1444 16.7791 26.2548L20.5597 28.6066C20.4803 28.8214 20.4307 29.0566 20.4307 29.302V32.1344C20.4307 32.8297 20.8376 33.3614 21.4726 33.5352ZM53.5336 37.881H43.4321L52.1841 36.1529L53.5336 37.881ZM49.9018 35.6212H40.7231V33.5352C41.3483 33.3614 41.765 32.8195 41.765 32.1139V29.2815C41.765 29.0463 41.7253 28.8111 41.636 28.5862L45.4167 26.2344C45.496 27.124 45.8235 27.9829 46.3693 28.6884L51.7574 35.5905L49.9018 35.6212Z" fill="#FF070A"/>
<path d="M4.5542 45.7589H5.41547V44.4016H6.93537V43.6707H5.41547V42.8353H7.442V42.1045H4.5542V45.7589ZM9.49865 45.8111C10.6338 45.8111 11.1965 45.2637 11.1965 44.0573L11.1911 42.1045H10.3298V44.2195C10.3298 44.798 10.0669 45.0802 9.49865 45.0802C8.93588 45.0802 8.66339 44.8093 8.66339 44.2195L8.65791 42.1045H7.79664V44.0573C7.79664 45.227 8.32792 45.8111 9.49865 45.8111ZM11.7032 45.7589H14.591V45.028H12.5645V44.2971H14.0843V43.5662H12.5645V42.8353H14.591V42.1045H11.7032V45.7589ZM15.0976 45.7589H17.9854V45.028H15.9589V42.1045H15.0976V45.7589ZM19.5053 45.7589H21.6688C22.4177 45.7589 22.7833 45.4034 22.7833 44.6104C22.7833 44.0982 22.6204 43.7595 22.3014 43.5931C22.4534 43.4364 22.53 43.2262 22.53 42.9666C22.53 42.4389 22.1946 42.1045 21.6934 42.1045H19.5053V45.7589ZM21.6688 45.028H20.3666V44.1927H21.6688C21.8454 44.1927 21.9221 44.3183 21.9221 44.6104C21.9221 44.8869 21.8454 45.028 21.6688 45.028ZM21.5003 43.4618H20.3666V42.8353H21.5003C21.6017 42.8353 21.6688 42.9666 21.6688 43.1486C21.6688 43.3363 21.5976 43.4618 21.5003 43.4618ZM24.992 45.8111C26.1271 45.8111 26.6885 45.2637 26.6885 44.0573L26.6844 42.1045H25.8231V44.2195C25.8231 44.798 25.5589 45.0802 24.992 45.0802C24.4292 45.0802 24.1554 44.8093 24.1554 44.2195L24.1512 42.1045H23.29V44.0573C23.29 45.227 23.8213 45.8111 24.992 45.8111ZM28.5631 44.3493V45.7589H29.4243V44.3493L30.7922 42.1045H29.8803L28.9944 43.5606L28.1071 42.1045H27.1951L28.5631 44.3493ZM31.2989 45.7589H34.1867V45.028H32.1601V44.2971H33.68V43.5662H32.1601V42.8353H34.1867V42.1045H31.2989V45.7589ZM34.6933 45.7589H35.5546V44.5582H36.1981L36.8718 45.7589H37.7837L37.0649 44.4749C37.5003 44.3183 37.718 43.9317 37.718 43.3207C37.718 42.5122 37.3237 42.1045 36.5322 42.1045H34.6933V45.7589ZM36.5281 43.8273H35.5546V42.8353H36.5281C36.7349 42.8353 36.8567 42.9976 36.8567 43.3264C36.8567 43.6608 36.7458 43.8273 36.5281 43.8273ZM39.8869 45.8111C40.7332 45.8111 41.1741 45.6235 41.3562 45.2834C41.4424 45.1113 41.4876 44.8926 41.4876 44.6203C41.4876 43.9105 41.1686 43.5662 40.2717 43.5662H39.8869C39.5323 43.5662 39.3297 43.5662 39.2283 43.4618C39.1818 43.4153 39.1571 43.332 39.1571 43.2163C39.1571 42.9821 39.2174 42.872 39.4255 42.8198C39.5268 42.793 39.6843 42.7831 39.8911 42.7831C40.1909 42.7831 40.3429 42.8099 40.4442 42.9708C40.4949 43.0498 40.5196 43.1754 40.5196 43.3363H41.3863C41.3863 42.3754 40.8797 42.0522 39.8911 42.0522C39.0462 42.0522 38.6053 42.2399 38.4273 42.58C38.3369 42.7521 38.2904 42.9708 38.2904 43.2431C38.2904 43.9529 38.6094 44.2971 39.5063 44.2971H39.8869C40.2265 44.2971 40.4442 44.3183 40.5497 44.4227C40.5962 44.4749 40.6209 44.5483 40.6209 44.6471C40.6209 44.8813 40.5606 44.9857 40.358 45.0379C40.2512 45.0647 40.0937 45.0802 39.8869 45.0802C39.5214 45.0802 39.3392 45.0492 39.2379 44.8926C39.1818 44.8136 39.1571 44.6936 39.1571 44.5271H38.2904C38.2904 45.1903 38.5396 45.5445 39.0051 45.6968C39.2324 45.7744 39.5268 45.8111 39.8869 45.8111ZM44.8369 45.8111C45.9912 45.8111 46.569 45.378 46.569 44.5116H45.7077C45.7077 44.8869 45.3024 45.0802 44.8369 45.0802C44.1824 45.0802 43.8688 44.736 43.8688 43.926C43.8688 43.1486 44.1632 42.7831 44.8369 42.7831C45.3284 42.7831 45.7132 42.9398 45.7132 43.3574H46.5745C46.5129 42.4854 45.8501 42.0522 44.8369 42.0522C43.6004 42.0522 43.0075 42.6265 43.0075 43.926C43.0075 45.2002 43.5648 45.8111 44.8369 45.8111ZM47.0811 45.7589H49.9689V45.028H47.9424V42.1045H47.0811V45.7589ZM52.1776 45.8111C53.3127 45.8111 53.8741 45.2637 53.8741 44.0573L53.87 42.1045H53.0087V44.2195C53.0087 44.798 52.7444 45.0802 52.1776 45.0802C51.6148 45.0802 51.3409 44.8093 51.3409 44.2195L51.3368 42.1045H50.4755V44.0573C50.4755 45.227 51.0068 45.8111 52.1776 45.8111ZM54.3807 45.7589H56.5442C57.2945 45.7589 57.6588 45.4034 57.6588 44.6104C57.6588 44.0982 57.4972 43.7595 57.1781 43.5931C57.3301 43.4364 57.4054 43.2262 57.4054 42.9666C57.4054 42.4389 57.0713 42.1045 56.5702 42.1045H54.3807V45.7589ZM56.5442 45.028H55.242V44.1927H56.5442C56.7222 44.1927 56.7975 44.3183 56.7975 44.6104C56.7975 44.8869 56.7222 45.028 56.5442 45.028ZM56.3771 43.4618H55.242V42.8353H56.3771C56.4784 42.8353 56.5442 42.9666 56.5442 43.1486C56.5442 43.3363 56.4743 43.4618 56.3771 43.4618Z" fill="black"/>
<path d="M20.9031 53.5353H22.464V53.1403H21.3686V52.7452H22.1902V52.3501H21.3686V51.955H22.464V51.56H20.9031V53.5353ZM24.5097 53.5636C24.9671 53.5636 25.2053 53.462 25.3039 53.2785C25.3505 53.1854 25.3751 53.0669 25.3751 52.9202C25.3751 52.5364 25.2026 52.3501 24.7179 52.3501H24.5097C24.318 52.3501 24.2085 52.3501 24.1537 52.2937C24.1291 52.2683 24.1154 52.2231 24.1154 52.161C24.1154 52.0341 24.1483 51.9748 24.2605 51.9466C24.3153 51.9325 24.4002 51.9268 24.5125 51.9268C24.6741 51.9268 24.7562 51.9409 24.811 52.0284C24.8384 52.0707 24.8521 52.1385 24.8521 52.2259H25.3204C25.3204 51.7067 25.0465 51.5317 24.5125 51.5317C24.0551 51.5317 23.8169 51.6333 23.721 51.8168C23.6717 51.9099 23.6471 52.0284 23.6471 52.1752C23.6471 52.5589 23.8196 52.7452 24.3044 52.7452H24.5097C24.6932 52.7452 24.811 52.7565 24.8685 52.8129C24.8931 52.8411 24.9068 52.8806 24.9068 52.9343C24.9068 53.0613 24.874 53.1177 24.7644 53.1459C24.7069 53.16 24.622 53.1685 24.5097 53.1685C24.3126 53.1685 24.214 53.1516 24.1592 53.0669C24.1291 53.0246 24.1154 52.9597 24.1154 52.8694H23.6471C23.6471 53.2278 23.7813 53.4196 24.0332 53.5015C24.1565 53.5438 24.3153 53.5636 24.5097 53.5636ZM27.1607 53.5353H27.6262V51.955H28.2287V51.56H26.5582V51.955H27.1607V53.5353ZM30.8714 53.1403L30.8687 53.5353H32.5419V53.1403H31.3397C31.3506 52.9173 31.4355 52.8299 31.6793 52.8299H31.8847C32.3694 52.8299 32.5419 52.6436 32.5419 52.2598V52.1752C32.5419 51.8817 32.4597 51.7039 32.2078 51.6051C32.0818 51.5571 31.9038 51.5317 31.6765 51.5317C31.1425 51.5317 30.8687 51.7067 30.8687 52.2259H31.3369C31.3369 52.0482 31.3972 51.9691 31.4876 51.9437C31.5341 51.9325 31.5971 51.9268 31.6765 51.9268C31.8764 51.9268 31.9997 51.9466 32.0435 52.0171C32.0627 52.0482 32.0736 52.0961 32.0736 52.161V52.2457C32.0736 52.3699 32.0216 52.415 31.923 52.4263C31.8737 52.432 31.7915 52.4348 31.6793 52.4348H31.5259C31.1014 52.4348 30.8906 52.6521 30.8714 53.1403ZM34.6588 53.5636C35.2859 53.5636 35.5872 53.2532 35.5872 52.5448C35.5872 51.8563 35.3051 51.5317 34.6588 51.5317C34.0262 51.5317 33.725 51.8422 33.725 52.5448C33.725 53.2334 34.0098 53.5636 34.6588 53.5636ZM34.1905 52.5448C34.1905 52.1244 34.3302 51.9268 34.6588 51.9268C34.9737 51.9268 35.1216 52.1159 35.1216 52.5448C35.1216 52.9653 34.9792 53.1685 34.6588 53.1685C34.3411 53.1685 34.1905 52.9766 34.1905 52.5448ZM36.773 53.1403L36.7702 53.5353H38.4435V53.1403H37.2413C37.2522 52.9173 37.3371 52.8299 37.5808 52.8299H37.7862C38.2709 52.8299 38.4435 52.6436 38.4435 52.2598V52.1752C38.4435 51.8817 38.3613 51.7039 38.1094 51.6051C37.9834 51.5571 37.8054 51.5317 37.5781 51.5317C37.0441 51.5317 36.7702 51.7067 36.7702 52.2259H37.2385C37.2385 52.0482 37.2988 51.9691 37.3891 51.9437C37.4357 51.9325 37.4987 51.9268 37.5781 51.9268C37.778 51.9268 37.9012 51.9466 37.9451 52.0171C37.9642 52.0482 37.9752 52.0961 37.9752 52.161V52.2457C37.9752 52.3699 37.9232 52.415 37.8246 52.4263C37.7753 52.432 37.6931 52.4348 37.5808 52.4348H37.4275C37.003 52.4348 36.7921 52.6521 36.773 53.1403ZM39.6265 52.6888V53.0838H40.6398V53.5353H41.1053V53.0838H41.297V52.6888H41.1053V51.56H40.4454L39.6265 52.6888ZM40.6398 52.6888H40.0921L40.6398 51.9325V52.6888Z" fill="white"/>
<path d="M72 39.9199V16.8799H85.648V20.2239H75.344V26.7199H83.728V30.0799H75.344V39.9199H72Z" fill="white"/>
<path d="M95.3633 40.3839C94.1686 40.3839 93.1659 40.1919 92.3552 39.8079C91.5446 39.4239 90.8833 38.9226 90.3713 38.3039C89.8699 37.6746 89.4859 36.9919 89.2192 36.2559C88.9526 35.5199 88.7712 34.7999 88.6752 34.0959C88.5792 33.3919 88.5312 32.7732 88.5312 32.2399V22.6399H91.9233V31.1359C91.9233 31.8079 91.9766 32.5012 92.0833 33.2159C92.2006 33.9199 92.4139 34.5759 92.7232 35.1839C93.0432 35.7919 93.4859 36.2826 94.0513 36.6559C94.6273 37.0292 95.3739 37.2159 96.2913 37.2159C96.8886 37.2159 97.4539 37.1199 97.9872 36.9279C98.5206 36.7252 98.9846 36.4052 99.3792 35.9679C99.7846 35.5306 100.099 34.9546 100.323 34.2399C100.558 33.5252 100.675 32.6559 100.675 31.6319L102.755 32.4159C102.755 33.9839 102.462 35.3706 101.875 36.5759C101.289 37.7706 100.446 38.7039 99.3472 39.3759C98.2486 40.0479 96.9206 40.3839 95.3633 40.3839ZM101.075 39.9199V34.9279H100.675V22.6399H104.051V39.9199H101.075Z" fill="white"/>
<path d="M116.523 40.3999C114.805 40.3999 113.296 40.0266 111.995 39.2799C110.704 38.5226 109.696 37.4719 108.971 36.1279C108.256 34.7732 107.899 33.2052 107.899 31.4239C107.899 29.5359 108.251 27.8986 108.955 26.5119C109.669 25.1252 110.661 24.0532 111.931 23.2959C113.2 22.5386 114.677 22.1599 116.363 22.1599C118.123 22.1599 119.621 22.5706 120.859 23.3919C122.096 24.2026 123.019 25.3599 123.627 26.8639C124.245 28.3679 124.491 30.1546 124.363 32.2239H121.019V31.0079C120.997 29.0026 120.613 27.5199 119.867 26.5599C119.131 25.5999 118.005 25.1199 116.491 25.1199C114.816 25.1199 113.557 25.6479 112.715 26.7039C111.872 27.7599 111.451 29.2852 111.451 31.2799C111.451 33.1786 111.872 34.6506 112.715 35.6959C113.557 36.7306 114.773 37.2479 116.363 37.2479C117.408 37.2479 118.309 37.0132 119.067 36.5439C119.835 36.0639 120.432 35.3812 120.859 34.4959L124.139 35.5359C123.467 37.0826 122.448 38.2826 121.083 39.1359C119.717 39.9786 118.197 40.3999 116.523 40.3999ZM110.363 32.2239V29.6159H122.699V32.2239H110.363Z" fill="white"/>
<path d="M128.592 39.9199V16.3999H131.937V39.9199H128.592Z" fill="white"/>
<path d="M143.787 39.9199V16.8799H152.843C154.305 16.8799 155.531 17.1786 156.523 17.7759C157.515 18.3732 158.262 19.1466 158.763 20.0959C159.265 21.0346 159.515 22.0266 159.515 23.0719C159.515 24.3412 159.201 25.4292 158.571 26.3359C157.953 27.2426 157.116 27.8612 156.06 28.1919L156.027 27.4079C157.499 27.7706 158.63 28.4799 159.42 29.5359C160.209 30.5812 160.604 31.8026 160.604 33.1999C160.604 34.5546 160.331 35.7332 159.787 36.7359C159.254 37.7386 158.47 38.5226 157.436 39.0879C156.412 39.6426 155.169 39.9199 153.707 39.9199H143.787ZM147.179 36.7359H153.195C153.953 36.7359 154.63 36.5919 155.228 36.3039C155.836 36.0159 156.31 35.6052 156.651 35.0719C157.003 34.5279 157.179 33.8826 157.179 33.1359C157.179 32.4426 157.025 31.8186 156.715 31.2639C156.417 30.6986 155.979 30.2559 155.403 29.9359C154.838 29.6052 154.171 29.4399 153.403 29.4399H147.179V36.7359ZM147.179 26.2879H152.796C153.414 26.2879 153.969 26.1652 154.459 25.9199C154.961 25.6639 155.356 25.3012 155.644 24.8319C155.942 24.3519 156.091 23.7759 156.091 23.1039C156.091 22.2079 155.793 21.4719 155.195 20.8959C154.598 20.3199 153.798 20.0319 152.796 20.0319H147.179V26.2879Z" fill="white"/>
<path d="M170.619 40.3839C169.425 40.3839 168.422 40.1919 167.611 39.8079C166.801 39.4239 166.139 38.9226 165.627 38.3039C165.126 37.6746 164.742 36.9919 164.475 36.2559C164.209 35.5199 164.027 34.7999 163.931 34.0959C163.835 33.3919 163.787 32.7732 163.787 32.2399V22.6399H167.179V31.1359C167.179 31.8079 167.233 32.5012 167.34 33.2159C167.457 33.9199 167.67 34.5759 167.979 35.1839C168.299 35.7919 168.742 36.2826 169.307 36.6559C169.883 37.0292 170.63 37.2159 171.548 37.2159C172.145 37.2159 172.71 37.1199 173.243 36.9279C173.777 36.7252 174.241 36.4052 174.635 35.9679C175.041 35.5306 175.355 34.9546 175.579 34.2399C175.814 33.5252 175.931 32.6559 175.931 31.6319L178.011 32.4159C178.011 33.9839 177.718 35.3706 177.132 36.5759C176.545 37.7706 175.702 38.7039 174.604 39.3759C173.505 40.0479 172.177 40.3839 170.619 40.3839ZM176.331 39.9199V34.9279H175.931V22.6399H179.307V39.9199H176.331Z" fill="white"/>
<path d="M186.451 47.5999L189.795 38.4959L189.843 41.1839L182.307 22.6399H185.795L191.427 36.9599H190.403L195.779 22.6399H199.171L189.635 47.5999H186.451Z" fill="white"/>
<path d="M209.036 40.3999C207.319 40.3999 205.81 40.0266 204.508 39.2799C203.218 38.5226 202.21 37.4719 201.484 36.1279C200.77 34.7732 200.412 33.2052 200.412 31.4239C200.412 29.5359 200.764 27.8986 201.468 26.5119C202.183 25.1252 203.175 24.0532 204.445 23.2959C205.714 22.5386 207.191 22.1599 208.876 22.1599C210.636 22.1599 212.135 22.5706 213.372 23.3919C214.61 24.2026 215.533 25.3599 216.141 26.8639C216.759 28.3679 217.004 30.1546 216.876 32.2239H213.533V31.0079C213.511 29.0026 213.127 27.5199 212.38 26.5599C211.644 25.5999 210.519 25.1199 209.005 25.1199C207.33 25.1199 206.071 25.6479 205.229 26.7039C204.386 27.7599 203.964 29.2852 203.964 31.2799C203.964 33.1786 204.386 34.6506 205.229 35.6959C206.071 36.7306 207.287 37.2479 208.876 37.2479C209.922 37.2479 210.823 37.0132 211.581 36.5439C212.349 36.0639 212.946 35.3812 213.372 34.4959L216.652 35.5359C215.98 37.0826 214.962 38.2826 213.596 39.1359C212.231 39.9786 210.711 40.3999 209.036 40.3999ZM202.876 32.2239V29.6159H215.212V32.2239H202.876Z" fill="white"/>
<path d="M220.786 39.9199V22.6399H223.762V26.8319L223.346 26.2879C223.56 25.7332 223.837 25.2266 224.178 24.7679C224.52 24.2986 224.914 23.9146 225.362 23.6159C225.8 23.2959 226.285 23.0506 226.818 22.8799C227.362 22.6986 227.917 22.5919 228.482 22.5599C229.048 22.5172 229.592 22.5439 230.114 22.6399V25.7759C229.549 25.6266 228.92 25.5839 228.226 25.6479C227.544 25.7119 226.914 25.9306 226.338 26.3039C225.794 26.6559 225.362 27.0826 225.042 27.5839C224.733 28.0852 224.509 28.6452 224.37 29.2639C224.232 29.8719 224.162 30.5172 224.162 31.1999V39.9199H220.786Z" fill="white"/>
<path d="M233.801 24.5599L234.009 23.0719C234.468 23.1039 234.825 23.0186 235.081 22.8159C235.337 22.6132 235.508 22.3306 235.593 21.9679C235.679 21.6052 235.695 21.1946 235.641 20.7359H233.801V16.8799H237.337V21.0559C237.337 22.3146 237.033 23.2639 236.425 23.9039C235.828 24.5439 234.953 24.7626 233.801 24.5599Z" fill="white"/>
<path d="M246.284 40.3839C244.183 40.3839 242.471 39.9199 241.148 38.9919C239.826 38.0639 239.015 36.7572 238.716 35.0719L242.14 34.5439C242.354 35.4399 242.844 36.1492 243.612 36.6719C244.391 37.1839 245.356 37.4399 246.508 37.4399C247.554 37.4399 248.37 37.2266 248.956 36.7999C249.554 36.3732 249.852 35.7866 249.852 35.0399C249.852 34.6026 249.746 34.2506 249.532 33.9839C249.33 33.7066 248.898 33.4452 248.236 33.1999C247.575 32.9546 246.567 32.6506 245.212 32.2879C243.73 31.9039 242.551 31.4932 241.676 31.0559C240.812 30.6079 240.194 30.0906 239.82 29.5039C239.458 28.9066 239.276 28.1866 239.276 27.3439C239.276 26.2986 239.554 25.3866 240.108 24.6079C240.663 23.8292 241.442 23.2266 242.444 22.7999C243.458 22.3732 244.642 22.1599 245.996 22.1599C247.319 22.1599 248.498 22.3679 249.532 22.7839C250.567 23.1999 251.404 23.7919 252.044 24.5599C252.684 25.3172 253.068 26.2079 253.196 27.2319L249.772 27.8559C249.655 27.0239 249.266 26.3679 248.604 25.8879C247.943 25.4079 247.084 25.1466 246.028 25.1039C245.015 25.0612 244.194 25.2319 243.564 25.6159C242.935 25.9892 242.62 26.5066 242.62 27.1679C242.62 27.5519 242.738 27.8772 242.972 28.1439C243.218 28.4106 243.687 28.6666 244.38 28.9119C245.074 29.1572 246.098 29.4506 247.452 29.7919C248.903 30.1652 250.055 30.5812 250.908 31.0399C251.762 31.4879 252.37 32.0266 252.732 32.6559C253.106 33.2746 253.292 34.0266 253.292 34.9119C253.292 36.6186 252.668 37.9572 251.42 38.9279C250.183 39.8986 248.471 40.3839 246.284 40.3839Z" fill="white"/>
<path d="M273.495 40.3999C271.191 40.3999 269.228 39.8986 267.607 38.8959C265.985 37.8826 264.743 36.4746 263.879 34.6719C263.025 32.8692 262.599 30.7786 262.599 28.3999C262.599 26.0212 263.025 23.9306 263.879 22.1279C264.743 20.3252 265.985 18.9226 267.607 17.9199C269.228 16.9066 271.191 16.3999 273.495 16.3999C276.151 16.3999 278.348 17.0719 280.087 18.4159C281.836 19.7599 283.052 21.5679 283.735 23.8399L280.343 24.7519C279.895 23.1412 279.095 21.8772 277.943 20.9599C276.801 20.0426 275.319 19.5839 273.495 19.5839C271.863 19.5839 270.503 19.9519 269.415 20.6879C268.327 21.4239 267.505 22.4532 266.951 23.7759C266.407 25.0986 266.135 26.6399 266.135 28.3999C266.124 30.1599 266.391 31.7012 266.935 33.0239C267.489 34.3466 268.311 35.3759 269.399 36.1119C270.497 36.8479 271.863 37.2159 273.495 37.2159C275.319 37.2159 276.801 36.7572 277.943 35.8399C279.095 34.9119 279.895 33.6479 280.343 32.0479L283.735 32.9599C283.052 35.2319 281.836 37.0399 280.087 38.3839C278.348 39.7279 276.151 40.3999 273.495 40.3999Z" fill="white"/>
<path d="M287.894 39.9199V16.3999H291.238V39.9199H287.894Z" fill="white"/>
<path d="M302.874 40.3839C301.68 40.3839 300.677 40.1919 299.867 39.8079C299.056 39.4239 298.395 38.9226 297.883 38.3039C297.381 37.6746 296.997 36.9919 296.73 36.2559C296.464 35.5199 296.283 34.7999 296.187 34.0959C296.091 33.3919 296.042 32.7732 296.042 32.2399V22.6399H299.435V31.1359C299.435 31.8079 299.488 32.5012 299.594 33.2159C299.712 33.9199 299.925 34.5759 300.234 35.1839C300.554 35.7919 300.997 36.2826 301.562 36.6559C302.139 37.0292 302.885 37.2159 303.803 37.2159C304.4 37.2159 304.965 37.1199 305.499 36.9279C306.032 36.7252 306.496 36.4052 306.891 35.9679C307.296 35.5306 307.611 34.9546 307.835 34.2399C308.069 33.5252 308.187 32.6559 308.187 31.6319L310.267 32.4159C310.267 33.9839 309.973 35.3706 309.387 36.5759C308.8 37.7706 307.957 38.7039 306.859 39.3759C305.76 40.0479 304.432 40.3839 302.874 40.3839ZM308.587 39.9199V34.9279H308.187V22.6399H311.562V39.9199H308.587Z" fill="white"/>
<path d="M324.482 40.3999C322.829 40.3999 321.442 39.9999 320.322 39.1999C319.202 38.3892 318.354 37.2959 317.778 35.9199C317.202 34.5439 316.914 32.9919 316.914 31.2639C316.914 29.5359 317.197 27.9839 317.762 26.6079C318.338 25.2319 319.181 24.1492 320.29 23.3599C321.41 22.5599 322.786 22.1599 324.418 22.1599C326.039 22.1599 327.437 22.5599 328.61 23.3599C329.794 24.1492 330.706 25.2319 331.346 26.6079C331.986 27.9732 332.306 29.5252 332.306 31.2639C332.306 32.9919 331.986 34.5492 331.346 35.9359C330.717 37.3119 329.815 38.3999 328.642 39.1999C327.479 39.9999 326.093 40.3999 324.482 40.3999ZM316.354 39.9199V16.8799H319.714V27.4879H319.33V39.9199H316.354ZM324.018 37.3759C325.085 37.3759 325.965 37.1039 326.658 36.5599C327.362 36.0159 327.885 35.2852 328.226 34.3679C328.578 33.4399 328.754 32.4052 328.754 31.2639C328.754 30.1332 328.578 29.1092 328.226 28.1919C327.885 27.2746 327.357 26.5439 326.642 25.9999C325.927 25.4559 325.015 25.1839 323.906 25.1839C322.861 25.1839 321.997 25.4399 321.314 25.9519C320.642 26.4639 320.141 27.1786 319.81 28.0959C319.49 29.0132 319.33 30.0692 319.33 31.2639C319.33 32.4586 319.49 33.5146 319.81 34.4319C320.13 35.3492 320.637 36.0692 321.33 36.5919C322.023 37.1146 322.919 37.3759 324.018 37.3759Z" fill="white"/>
</svg>
