<svg width="333" height="65" viewBox="0 0 333 65" fill="none" xmlns="http://www.w3.org/2000/svg">
<rect y="0.25" width="64" height="64" rx="8" fill="white"/>
<path d="M26.922 31.4026H35.2771L35.2572 31.4742C35.1679 31.8423 34.8504 32.0979 34.4833 32.0979H27.7158C27.3487 32.0979 27.0311 31.8423 26.9418 31.4742L26.922 31.4026ZM26.6938 30.4619L25.3641 24.8891C25.2946 24.5823 25.1061 24.3165 24.858 24.1324L24.1336 23.6109C23.9848 23.4984 23.8955 23.3144 23.9153 23.1303C23.9947 22.3328 24.213 20.2161 24.3122 19.6435C24.4313 18.938 24.7191 18.6005 25.5526 18.6005C26.3762 18.6005 31.1095 18.6005 31.1095 18.6005C31.1095 18.6005 35.8427 18.6005 36.6663 18.6005C37.4899 18.6005 37.7876 18.938 37.9067 19.6435C38.0059 20.2161 38.2242 22.3328 38.3036 23.1303C38.3234 23.3246 38.244 23.5087 38.0853 23.6109L37.3609 24.1324C37.1128 24.3165 36.9243 24.5823 36.8548 24.8891L35.5252 30.4516C35.4359 30.8197 35.1183 31.0754 34.7512 31.0754H27.4975C27.1105 31.0856 26.7831 30.83 26.6938 30.4619ZM24.5107 22.6088C24.8977 22.0567 26.8327 19.7458 31.3079 19.1322H25.2649C25.0565 19.1322 24.8878 19.2856 24.858 19.5004C24.7786 20.2366 24.5802 21.8522 24.5107 22.6088ZM26.019 24.2347C26.2274 24.3676 26.4655 24.4392 26.7037 24.4392H35.4855C35.7335 24.4392 35.9717 24.3676 36.1702 24.2347L37.6189 23.2735C37.7082 23.2121 37.6884 23.0792 37.5891 23.0485C36.1503 22.6804 32.2109 22.6191 31.0896 22.6191C29.9683 22.6191 26.0289 22.6804 24.5901 23.0485C24.4909 23.0792 24.471 23.2121 24.5603 23.2735L26.019 24.2347ZM26.6441 25.9627H29.3134C29.5416 25.9627 29.7699 26.0241 29.9683 26.1366C30.2263 26.2695 30.6332 26.3615 31.0995 26.3615C31.5659 26.3615 31.9728 26.2695 32.2307 26.1366C32.4391 26.0241 32.6574 25.9627 32.8857 25.9627H35.5549C35.6442 25.9627 35.7038 25.8912 35.7038 25.8094C35.7038 25.7173 35.6343 25.6457 35.5549 25.6457H32.8857C32.6574 25.6457 32.4292 25.5844 32.2307 25.4719C31.9728 25.339 31.5659 25.247 31.0995 25.247C30.6332 25.247 30.2263 25.339 29.9683 25.4719C29.7599 25.5844 29.5416 25.6457 29.3134 25.6457H26.6441C26.5548 25.6457 26.4953 25.7173 26.4953 25.8094C26.4854 25.8912 26.5548 25.9627 26.6441 25.9627ZM58.1991 38.6216C58.1991 39.409 57.5739 40.0532 56.8099 40.0532H42.0247L34.2352 40.1145H34.1756L31.0995 40.135L28.0234 40.1145H27.9639L20.1744 40.0532H5.38921C4.62514 40.0532 4 39.409 4 38.6216H6.17312L14.5382 27.8851C14.9351 27.384 15.1534 26.7501 15.1534 26.0957V16.535C15.1534 15.1546 15.8678 13.8765 17.0288 13.1914L20.4026 11.1872C27.0014 7.27093 35.2076 7.27093 41.8064 11.1872L45.1802 13.1914C46.3412 13.8765 47.0556 15.1546 47.0556 16.535V26.0957C47.0556 26.7399 47.2739 27.384 47.6708 27.8851L56.0359 38.6216H58.1991ZM36.7755 33.8055H35.0588C35.0588 33.9896 34.9893 34.1634 34.8702 34.2861C34.7512 34.4088 34.5825 34.4804 34.4039 34.4804H27.8051C27.6265 34.4804 27.4578 34.3986 27.3387 34.2861C27.2197 34.1634 27.1502 33.9896 27.1502 33.8055H25.4335V35.7381L26.0785 35.0735H36.1305L36.7755 35.7381V33.8055ZM38.0059 31.7093H36.0015L36.5671 30.3903C36.6861 30.1142 36.9044 29.8995 37.1823 29.8074L39.9409 28.8156C40.1393 28.744 40.2088 28.4986 40.0798 28.335L39.4348 27.4965C39.276 27.292 38.9982 27.2102 38.76 27.3125L37.9166 27.6601L38.125 25.7378C38.1448 25.5742 38.2044 25.4208 38.2937 25.2879L38.8791 24.4801C39.018 24.2858 39.0776 24.0404 39.0577 23.8052C38.9387 22.7622 38.6211 19.8378 38.5616 19.2447C38.4921 18.5085 37.8769 17.8848 36.9044 17.8848C35.9419 17.8848 31.0995 17.8848 31.0995 17.8848C31.0995 17.8848 26.2671 17.8848 25.2946 17.8848C24.3222 17.8848 23.7169 18.5187 23.6375 19.2447C23.5779 19.8378 23.2505 22.7622 23.1413 23.8052C23.1116 24.0404 23.181 24.2858 23.32 24.4801L23.9054 25.2879C24.0046 25.4208 24.0543 25.5742 24.0741 25.7378L24.2825 27.6601L23.439 27.3125C23.2009 27.2102 22.923 27.292 22.7643 27.4965L22.1193 28.335C21.9903 28.4986 22.0597 28.744 22.2582 28.8156L25.0168 29.8074C25.2946 29.9097 25.5129 30.1142 25.632 30.3903L26.1976 31.7093H24.1932C24.4016 32.3229 25.1855 33.2431 26.2671 33.2431H35.9419C37.0235 33.2431 37.7975 32.3229 38.0059 31.7093ZM23.0322 29.5825C23.0322 29.5723 23.0322 29.562 23.0322 29.5416L22.4666 29.3268C22.4467 29.4086 22.4467 29.4905 22.4467 29.5825C22.4467 30.2982 23.0024 30.8709 23.697 30.8709C24.1634 30.8709 24.5802 30.605 24.7885 30.2062L24.2229 29.9915C24.1039 30.1551 23.9153 30.2676 23.697 30.2676C23.3299 30.2573 23.0322 29.9608 23.0322 29.5825ZM22.0994 20.2059V22.7622C22.0994 23.0792 21.8514 23.3348 21.5437 23.3348H21.1468C21.1468 23.5393 21.3056 23.7029 21.5041 23.7029H22.7147V19.2856H21.5041C21.4048 19.2856 21.3254 19.3265 21.256 19.3879C21.1964 19.4492 21.1568 19.5413 21.1568 19.6435H21.5338C21.8514 19.6435 22.0994 19.8889 22.0994 20.2059ZM30.3553 17.3326L30.5935 16.218C30.6232 16.0953 30.7225 16.0135 30.8515 16.0135H31.3377C31.4568 16.0135 31.5659 16.0953 31.5957 16.218L31.8338 17.3326H35.4656C34.4833 15.3387 32.7765 14.5206 31.0896 14.5206C29.4027 14.5206 27.696 15.3489 26.7136 17.3326H30.3553ZM40.0996 22.7622V20.2059C40.0996 19.8889 40.3477 19.6333 40.6553 19.6333H41.0324C41.0324 19.531 40.9927 19.4492 40.9332 19.3777C40.8736 19.3163 40.7843 19.2754 40.6851 19.2754H39.4745V23.6927H40.6851C40.8835 23.6927 41.0423 23.5291 41.0423 23.3246H40.6454C40.3477 23.3348 40.0996 23.0792 40.0996 22.7622ZM39.1669 29.5825C39.1669 29.9608 38.8692 30.2573 38.512 30.2573C38.2937 30.2573 38.1051 30.1449 37.986 29.9813L37.4204 30.196C37.6288 30.5948 38.0456 30.8606 38.512 30.8606C39.1967 30.8606 39.7623 30.288 39.7623 29.5723C39.7623 29.4904 39.7523 29.3984 39.7424 29.3166L39.1768 29.5314C39.157 29.562 39.1669 29.5723 39.1669 29.5825ZM54.5177 38.6216L46.7381 28.652C46.1725 27.9362 45.8649 27.0262 45.8649 26.1059V16.5453C45.8649 15.6045 45.3687 14.7252 44.5749 14.2548L41.2011 12.2506C34.9596 8.54909 27.2197 8.54909 20.9781 12.2506L17.6043 14.2548C16.8105 14.7252 16.3144 15.6045 16.3144 16.5453V26.1059C16.3144 27.0262 16.0068 27.9362 15.4411 28.652L7.68141 38.6216H23.7268L12.2856 36.3618H21.9407V33.3658C21.3254 33.3658 20.8988 32.9977 20.8988 32.374V29.5416C20.8988 29.2041 21.0178 28.8667 21.2262 28.6111L22.3773 27.2102C22.5162 27.0364 22.5956 26.8217 22.5956 26.5967V24.1733H21.2461C20.8293 24.1733 20.4919 23.8256 20.4919 23.3962V19.8889C20.4919 19.7355 20.611 19.6231 20.7499 19.6231V19.3981C20.7499 19.0402 21.0278 18.7437 21.385 18.7437H22.7147C22.1987 18.5494 21.6827 17.7109 22.278 17.0361C22.8833 16.3612 24.0046 16.944 24.0543 17.7212C24.5306 17.4553 24.7885 17.3224 25.6618 17.3224C26.3663 15.0012 28.6089 13.4163 31.0896 13.4163C33.5703 13.4163 35.803 15.0115 36.5175 17.3224C37.3907 17.3224 37.6487 17.4451 38.125 17.7212C38.1746 16.944 39.2959 16.3612 39.9012 17.0361C40.5065 17.7109 39.9905 18.5494 39.4646 18.7437H40.7942C41.1415 18.7437 41.4293 19.03 41.4293 19.3981V19.6231C41.5782 19.6231 41.6873 19.7458 41.6873 19.8889V23.3962C41.6873 23.8256 41.3499 24.1733 40.9332 24.1733H39.5836V26.5967C39.5836 26.8217 39.663 27.0364 39.8019 27.2102L40.953 28.6111C41.1713 28.8769 41.2805 29.2041 41.2805 29.5416V32.374C41.2805 33.0079 40.8538 33.3658 40.2386 33.3658V36.3618H49.8936L38.4524 38.6216H54.5177ZM4 50.3398H14.5183L18.1203 55.0639C18.6959 55.8205 19.5592 56.25 20.4919 56.25H41.6972C42.63 56.25 43.4933 55.8205 44.0688 55.0639L47.6708 50.3398H58.1891C58.1891 49.5524 57.564 48.9082 56.7999 48.9082H5.38921C4.62514 48.9082 4 49.5524 4 50.3398ZM43.146 54.3174C42.7987 54.7776 42.2728 55.0434 41.6972 55.0434H20.5018C19.9362 55.0434 19.4103 54.7776 19.0531 54.3174L16.0167 50.35H46.1725L43.146 54.3174Z" fill="black"/>
<path d="M37.8675 17.046C37.9865 16.8517 38.1453 16.6779 38.3338 16.545L40.7352 12.5162C37.8079 10.8291 34.4837 9.93945 31.1 9.93945C27.7163 9.93945 24.3921 10.8291 21.4648 12.5162L23.8662 16.545C24.0547 16.6779 24.2135 16.8517 24.3326 17.046C24.6005 16.9335 24.8883 16.8722 25.3348 16.8517C26.208 14.5306 28.5201 12.9355 31.1 12.9355C33.68 12.9355 35.992 14.5306 36.8652 16.8517C37.3118 16.8722 37.5995 16.9438 37.8675 17.046Z" fill="#FC060C"/>
<path d="M23.112 16.2693C23.0624 16.2591 23.0128 16.2591 22.9632 16.2591C22.5762 16.2591 22.2189 16.4227 21.951 16.709C21.6037 17.0873 21.4847 17.5679 21.5938 18.0485C21.6137 18.1201 21.6335 18.1917 21.6633 18.253H21.4053C20.8297 18.253 20.3534 18.7131 20.3038 19.3062C20.1451 19.4494 20.0359 19.6539 20.0359 19.889V23.3963C20.0359 24.0916 20.5817 24.654 21.2564 24.654H22.1296V26.5968C22.1296 26.7093 22.09 26.8116 22.0304 26.8934L20.8794 28.2942C20.8297 28.3556 20.79 28.4067 20.7504 28.4783L16.801 25.789V16.5454C16.801 15.7785 17.2079 15.0627 17.8529 14.6742L20.8893 12.8745L23.112 16.2693ZM40.6161 18.0587C40.5962 18.1303 40.5764 18.2019 40.5466 18.2632H40.8046C41.3801 18.2632 41.8564 18.7234 41.906 19.3164C42.0648 19.4596 42.174 19.6641 42.174 19.8993V23.4065C42.174 24.1019 41.6282 24.6643 40.9534 24.6643H40.0802V26.6071C40.0802 26.7195 40.1199 26.8218 40.1795 26.9036L41.3305 28.3044C41.3801 28.3658 41.4198 28.4169 41.4595 28.4885L45.4088 25.7993V16.5556C45.4088 15.7887 45.002 15.0729 44.357 14.6844L41.3206 12.8847L39.0979 16.2898C39.1475 16.2795 39.1971 16.2795 39.2467 16.2795C39.6337 16.2795 39.9909 16.4431 40.2588 16.7294C40.5962 17.0975 40.7252 17.5679 40.6161 18.0587Z" fill="#FF070A"/>
<path d="M20.5002 54.5527C20.0735 54.5527 19.6865 54.3585 19.4285 54.0108L16.9974 50.8308H45.2083L42.7772 54.0108C42.5192 54.3482 42.1222 54.5527 41.7055 54.5527H20.5002ZM8.66211 38.131H18.7637L10.0116 36.4029L8.66211 38.131ZM21.4726 33.7852V35.8712H12.2939L10.4383 35.8609L15.8265 28.9589C16.3722 28.2533 16.7096 27.3944 16.7791 26.5048L20.5597 28.8566C20.4803 29.0714 20.4307 29.3066 20.4307 29.552V32.3844C20.4307 33.0797 20.8376 33.6114 21.4726 33.7852ZM53.5336 38.131H43.4321L52.1841 36.4029L53.5336 38.131ZM49.9018 35.8712H40.7231V33.7852C41.3483 33.6114 41.765 33.0695 41.765 32.3639V29.5315C41.765 29.2963 41.7253 29.0611 41.636 28.8362L45.4167 26.4844C45.496 27.374 45.8235 28.2329 46.3693 28.9384L51.7574 35.8405L49.9018 35.8712Z" fill="#FF070A"/>
<path d="M4.5542 46.0089H5.41547V44.6516H6.93537V43.9207H5.41547V43.0853H7.442V42.3545H4.5542V46.0089ZM9.49865 46.0611C10.6338 46.0611 11.1965 45.5137 11.1965 44.3073L11.1911 42.3545H10.3298V44.4695C10.3298 45.048 10.0669 45.3302 9.49865 45.3302C8.93588 45.3302 8.66339 45.0593 8.66339 44.4695L8.65791 42.3545H7.79664V44.3073C7.79664 45.477 8.32792 46.0611 9.49865 46.0611ZM11.7032 46.0089H14.591V45.278H12.5645V44.5471H14.0843V43.8162H12.5645V43.0853H14.591V42.3545H11.7032V46.0089ZM15.0976 46.0089H17.9854V45.278H15.9589V42.3545H15.0976V46.0089ZM19.5053 46.0089H21.6688C22.4177 46.0089 22.7833 45.6534 22.7833 44.8604C22.7833 44.3482 22.6204 44.0095 22.3014 43.8431C22.4533 43.6864 22.53 43.4762 22.53 43.2166C22.53 42.6889 22.1946 42.3545 21.6934 42.3545H19.5053V46.0089ZM21.6688 45.278H20.3666V44.4427H21.6688C21.8454 44.4427 21.9221 44.5683 21.9221 44.8604C21.9221 45.1369 21.8454 45.278 21.6688 45.278ZM21.5003 43.7118H20.3666V43.0853H21.5003C21.6017 43.0853 21.6688 43.2166 21.6688 43.3986C21.6688 43.5863 21.5976 43.7118 21.5003 43.7118ZM24.992 46.0611C26.1271 46.0611 26.6885 45.5137 26.6885 44.3073L26.6844 42.3545H25.8231V44.4695C25.8231 45.048 25.5589 45.3302 24.992 45.3302C24.4292 45.3302 24.1554 45.0593 24.1554 44.4695L24.1512 42.3545H23.29V44.3073C23.29 45.477 23.8213 46.0611 24.992 46.0611ZM28.563 44.5993V46.0089H29.4243V44.5993L30.7922 42.3545H29.8803L28.9944 43.8106L28.1071 42.3545H27.1951L28.563 44.5993ZM31.2989 46.0089H34.1867V45.278H32.1601V44.5471H33.68V43.8162H32.1601V43.0853H34.1867V42.3545H31.2989V46.0089ZM34.6933 46.0089H35.5546V44.8082H36.1981L36.8718 46.0089H37.7837L37.0649 44.7249C37.5003 44.5683 37.718 44.1817 37.718 43.5707C37.718 42.7622 37.3237 42.3545 36.5322 42.3545H34.6933V46.0089ZM36.5281 44.0773H35.5546V43.0853H36.5281C36.7349 43.0853 36.8567 43.2476 36.8567 43.5764C36.8567 43.9108 36.7458 44.0773 36.5281 44.0773ZM39.8869 46.0611C40.7332 46.0611 41.1741 45.8735 41.3562 45.5334C41.4424 45.3613 41.4876 45.1426 41.4876 44.8703C41.4876 44.1605 41.1686 43.8162 40.2717 43.8162H39.8869C39.5323 43.8162 39.3297 43.8162 39.2283 43.7118C39.1818 43.6653 39.1571 43.582 39.1571 43.4663C39.1571 43.2321 39.2174 43.122 39.4255 43.0698C39.5268 43.043 39.6843 43.0331 39.8911 43.0331C40.1909 43.0331 40.3429 43.0599 40.4442 43.2208C40.4949 43.2998 40.5196 43.4254 40.5196 43.5863H41.3863C41.3863 42.6254 40.8797 42.3022 39.8911 42.3022C39.0462 42.3022 38.6053 42.4899 38.4273 42.83C38.3369 43.0021 38.2904 43.2208 38.2904 43.4931C38.2904 44.2029 38.6094 44.5471 39.5063 44.5471H39.8869C40.2265 44.5471 40.4442 44.5683 40.5497 44.6727C40.5962 44.7249 40.6209 44.7983 40.6209 44.8971C40.6209 45.1313 40.5606 45.2357 40.358 45.2879C40.2512 45.3147 40.0937 45.3302 39.8869 45.3302C39.5214 45.3302 39.3392 45.2992 39.2379 45.1426C39.1818 45.0636 39.1571 44.9436 39.1571 44.7771H38.2904C38.2904 45.4403 38.5396 45.7945 39.0051 45.9468C39.2324 46.0244 39.5268 46.0611 39.8869 46.0611ZM44.8369 46.0611C45.9912 46.0611 46.569 45.628 46.569 44.7616H45.7077C45.7077 45.1369 45.3024 45.3302 44.8369 45.3302C44.1824 45.3302 43.8688 44.986 43.8688 44.176C43.8688 43.3986 44.1632 43.0331 44.8369 43.0331C45.3284 43.0331 45.7132 43.1898 45.7132 43.6074H46.5745C46.5129 42.7354 45.8501 42.3022 44.8369 42.3022C43.6004 42.3022 43.0075 42.8765 43.0075 44.176C43.0075 45.4502 43.5648 46.0611 44.8369 46.0611ZM47.0811 46.0089H49.9689V45.278H47.9424V42.3545H47.0811V46.0089ZM52.1775 46.0611C53.3127 46.0611 53.8741 45.5137 53.8741 44.3073L53.87 42.3545H53.0087V44.4695C53.0087 45.048 52.7444 45.3302 52.1775 45.3302C51.6148 45.3302 51.3409 45.0593 51.3409 44.4695L51.3368 42.3545H50.4755V44.3073C50.4755 45.477 51.0068 46.0611 52.1775 46.0611ZM54.3807 46.0089H56.5442C57.2945 46.0089 57.6587 45.6534 57.6587 44.8604C57.6587 44.3482 57.4972 44.0095 57.1781 43.8431C57.3301 43.6864 57.4054 43.4762 57.4054 43.2166C57.4054 42.6889 57.0713 42.3545 56.5702 42.3545H54.3807V46.0089ZM56.5442 45.278H55.242V44.4427H56.5442C56.7222 44.4427 56.7975 44.5683 56.7975 44.8604C56.7975 45.1369 56.7222 45.278 56.5442 45.278ZM56.3771 43.7118H55.242V43.0853H56.3771C56.4784 43.0853 56.5442 43.2166 56.5442 43.3986C56.5442 43.5863 56.4743 43.7118 56.3771 43.7118Z" fill="black"/>
<path d="M20.9031 53.7853H22.464V53.3903H21.3686V52.9952H22.1902V52.6001H21.3686V52.205H22.464V51.81H20.9031V53.7853ZM24.5097 53.8136C24.9671 53.8136 25.2053 53.712 25.3039 53.5285C25.3505 53.4354 25.3751 53.3169 25.3751 53.1702C25.3751 52.7864 25.2026 52.6001 24.7179 52.6001H24.5097C24.318 52.6001 24.2085 52.6001 24.1537 52.5437C24.1291 52.5183 24.1154 52.4731 24.1154 52.411C24.1154 52.2841 24.1483 52.2248 24.2605 52.1966C24.3153 52.1825 24.4002 52.1768 24.5125 52.1768C24.6741 52.1768 24.7562 52.1909 24.811 52.2784C24.8384 52.3207 24.8521 52.3885 24.8521 52.4759H25.3204C25.3204 51.9567 25.0465 51.7817 24.5125 51.7817C24.0551 51.7817 23.8169 51.8833 23.721 52.0668C23.6717 52.1599 23.6471 52.2784 23.6471 52.4252C23.6471 52.8089 23.8196 52.9952 24.3044 52.9952H24.5097C24.6932 52.9952 24.811 53.0065 24.8685 53.0629C24.8931 53.0911 24.9068 53.1306 24.9068 53.1843C24.9068 53.3113 24.874 53.3677 24.7644 53.3959C24.7069 53.41 24.622 53.4185 24.5097 53.4185C24.3126 53.4185 24.214 53.4016 24.1592 53.3169C24.1291 53.2746 24.1154 53.2097 24.1154 53.1194H23.6471C23.6471 53.4778 23.7813 53.6696 24.0332 53.7515C24.1565 53.7938 24.3153 53.8136 24.5097 53.8136ZM27.1607 53.7853H27.6262V52.205H28.2287V51.81H26.5582V52.205H27.1607V53.7853ZM30.8714 53.3903L30.8687 53.7853H32.5419V53.3903H31.3397C31.3506 53.1673 31.4355 53.0799 31.6793 53.0799H31.8847C32.3694 53.0799 32.5419 52.8936 32.5419 52.5098V52.4252C32.5419 52.1317 32.4597 51.9539 32.2078 51.8551C32.0818 51.8071 31.9038 51.7817 31.6765 51.7817C31.1425 51.7817 30.8687 51.9567 30.8687 52.4759H31.3369C31.3369 52.2982 31.3972 52.2191 31.4876 52.1937C31.5341 52.1825 31.5971 52.1768 31.6765 52.1768C31.8764 52.1768 31.9997 52.1966 32.0435 52.2671C32.0627 52.2982 32.0736 52.3461 32.0736 52.411V52.4957C32.0736 52.6199 32.0216 52.665 31.923 52.6763C31.8737 52.682 31.7915 52.6848 31.6793 52.6848H31.5259C31.1014 52.6848 30.8906 52.9021 30.8714 53.3903ZM34.6588 53.8136C35.2859 53.8136 35.5872 53.5032 35.5872 52.7948C35.5872 52.1063 35.3051 51.7817 34.6588 51.7817C34.0262 51.7817 33.725 52.0922 33.725 52.7948C33.725 53.4834 34.0098 53.8136 34.6588 53.8136ZM34.1905 52.7948C34.1905 52.3744 34.3302 52.1768 34.6588 52.1768C34.9737 52.1768 35.1216 52.3659 35.1216 52.7948C35.1216 53.2153 34.9792 53.4185 34.6588 53.4185C34.3411 53.4185 34.1905 53.2266 34.1905 52.7948ZM36.773 53.3903L36.7702 53.7853H38.4435V53.3903H37.2413C37.2522 53.1673 37.3371 53.0799 37.5808 53.0799H37.7862C38.2709 53.0799 38.4435 52.8936 38.4435 52.5098V52.4252C38.4435 52.1317 38.3613 51.9539 38.1094 51.8551C37.9834 51.8071 37.8054 51.7817 37.5781 51.7817C37.0441 51.7817 36.7702 51.9567 36.7702 52.4759H37.2385C37.2385 52.2982 37.2988 52.2191 37.3891 52.1937C37.4357 52.1825 37.4987 52.1768 37.5781 52.1768C37.778 52.1768 37.9012 52.1966 37.9451 52.2671C37.9642 52.2982 37.9752 52.3461 37.9752 52.411V52.4957C37.9752 52.6199 37.9231 52.665 37.8246 52.6763C37.7753 52.682 37.6931 52.6848 37.5808 52.6848H37.4275C37.003 52.6848 36.7921 52.9021 36.773 53.3903ZM39.6265 52.9388V53.3338H40.6398V53.7853H41.1053V53.3338H41.297V52.9388H41.1053V51.81H40.4454L39.6265 52.9388ZM40.6398 52.9388H40.0921L40.6398 52.1825V52.9388Z" fill="white"/>
<path d="M72 40.17V17.13H85.648V20.474H75.344V26.97H83.728V30.33H75.344V40.17H72Z" fill="#101828"/>
<path d="M95.3633 40.634C94.1686 40.634 93.1659 40.442 92.3552 40.058C91.5446 39.674 90.8833 39.1727 90.3713 38.554C89.8699 37.9247 89.4859 37.242 89.2192 36.506C88.9526 35.77 88.7712 35.05 88.6752 34.346C88.5792 33.642 88.5312 33.0234 88.5312 32.49V22.89H91.9233V31.386C91.9233 32.058 91.9766 32.7514 92.0833 33.466C92.2006 34.17 92.4139 34.826 92.7232 35.434C93.0432 36.042 93.4859 36.5327 94.0513 36.906C94.6273 37.2794 95.3739 37.466 96.2913 37.466C96.8886 37.466 97.4539 37.37 97.9872 37.178C98.5206 36.9754 98.9846 36.6554 99.3792 36.218C99.7846 35.7807 100.099 35.2047 100.323 34.49C100.558 33.7754 100.675 32.906 100.675 31.882L102.755 32.666C102.755 34.234 102.462 35.6207 101.875 36.826C101.289 38.0207 100.446 38.954 99.3472 39.626C98.2486 40.298 96.9206 40.634 95.3633 40.634ZM101.075 40.17V35.178H100.675V22.89H104.051V40.17H101.075Z" fill="#101828"/>
<path d="M116.523 40.65C114.805 40.65 113.296 40.2767 111.995 39.53C110.704 38.7727 109.696 37.722 108.971 36.378C108.256 35.0234 107.899 33.4554 107.899 31.674C107.899 29.786 108.251 28.1487 108.955 26.762C109.669 25.3754 110.661 24.3034 111.931 23.546C113.2 22.7887 114.677 22.41 116.363 22.41C118.123 22.41 119.621 22.8207 120.859 23.642C122.096 24.4527 123.019 25.61 123.627 27.114C124.245 28.618 124.491 30.4047 124.363 32.474H121.019V31.258C120.997 29.2527 120.613 27.77 119.867 26.81C119.131 25.85 118.005 25.37 116.491 25.37C114.816 25.37 113.557 25.898 112.715 26.954C111.872 28.01 111.451 29.5354 111.451 31.53C111.451 33.4287 111.872 34.9007 112.715 35.946C113.557 36.9807 114.773 37.498 116.363 37.498C117.408 37.498 118.309 37.2634 119.067 36.794C119.835 36.314 120.432 35.6314 120.859 34.746L124.139 35.786C123.467 37.3327 122.448 38.5327 121.083 39.386C119.717 40.2287 118.197 40.65 116.523 40.65ZM110.363 32.474V29.866H122.699V32.474H110.363Z" fill="#101828"/>
<path d="M128.592 40.17V16.65H131.937V40.17H128.592Z" fill="#101828"/>
<path d="M143.787 40.17V17.13H152.843C154.305 17.13 155.531 17.4287 156.523 18.026C157.515 18.6234 158.262 19.3967 158.763 20.346C159.265 21.2847 159.515 22.2767 159.515 23.322C159.515 24.5914 159.201 25.6794 158.571 26.586C157.953 27.4927 157.116 28.1114 156.06 28.442L156.027 27.658C157.499 28.0207 158.63 28.73 159.42 29.786C160.209 30.8314 160.604 32.0527 160.604 33.45C160.604 34.8047 160.331 35.9834 159.787 36.986C159.254 37.9887 158.47 38.7727 157.436 39.338C156.412 39.8927 155.169 40.17 153.707 40.17H143.787ZM147.179 36.986H153.195C153.953 36.986 154.63 36.842 155.228 36.554C155.836 36.266 156.31 35.8554 156.651 35.322C157.003 34.778 157.179 34.1327 157.179 33.386C157.179 32.6927 157.025 32.0687 156.715 31.514C156.417 30.9487 155.979 30.506 155.403 30.186C154.838 29.8554 154.171 29.69 153.403 29.69H147.179V36.986ZM147.179 26.538H152.796C153.414 26.538 153.969 26.4154 154.459 26.17C154.961 25.914 155.356 25.5514 155.644 25.082C155.942 24.602 156.091 24.026 156.091 23.354C156.091 22.458 155.793 21.722 155.195 21.146C154.598 20.57 153.798 20.282 152.796 20.282H147.179V26.538Z" fill="#101828"/>
<path d="M170.619 40.634C169.425 40.634 168.422 40.442 167.611 40.058C166.801 39.674 166.139 39.1727 165.627 38.554C165.126 37.9247 164.742 37.242 164.475 36.506C164.209 35.77 164.027 35.05 163.931 34.346C163.835 33.642 163.787 33.0234 163.787 32.49V22.89H167.179V31.386C167.179 32.058 167.233 32.7514 167.34 33.466C167.457 34.17 167.67 34.826 167.979 35.434C168.299 36.042 168.742 36.5327 169.307 36.906C169.883 37.2794 170.63 37.466 171.548 37.466C172.145 37.466 172.71 37.37 173.243 37.178C173.777 36.9754 174.241 36.6554 174.635 36.218C175.041 35.7807 175.355 35.2047 175.579 34.49C175.814 33.7754 175.931 32.906 175.931 31.882L178.011 32.666C178.011 34.234 177.718 35.6207 177.132 36.826C176.545 38.0207 175.702 38.954 174.604 39.626C173.505 40.298 172.177 40.634 170.619 40.634ZM176.331 40.17V35.178H175.931V22.89H179.307V40.17H176.331Z" fill="#101828"/>
<path d="M186.451 47.85L189.795 38.746L189.843 41.434L182.307 22.89H185.795L191.427 37.21H190.403L195.779 22.89H199.171L189.635 47.85H186.451Z" fill="#101828"/>
<path d="M209.036 40.65C207.319 40.65 205.81 40.2767 204.508 39.53C203.218 38.7727 202.21 37.722 201.484 36.378C200.77 35.0234 200.412 33.4554 200.412 31.674C200.412 29.786 200.764 28.1487 201.468 26.762C202.183 25.3754 203.175 24.3034 204.445 23.546C205.714 22.7887 207.191 22.41 208.876 22.41C210.636 22.41 212.135 22.8207 213.372 23.642C214.61 24.4527 215.533 25.61 216.141 27.114C216.759 28.618 217.004 30.4047 216.876 32.474H213.533V31.258C213.511 29.2527 213.127 27.77 212.38 26.81C211.644 25.85 210.519 25.37 209.005 25.37C207.33 25.37 206.071 25.898 205.229 26.954C204.386 28.01 203.964 29.5354 203.964 31.53C203.964 33.4287 204.386 34.9007 205.229 35.946C206.071 36.9807 207.287 37.498 208.876 37.498C209.922 37.498 210.823 37.2634 211.581 36.794C212.349 36.314 212.946 35.6314 213.372 34.746L216.652 35.786C215.98 37.3327 214.962 38.5327 213.596 39.386C212.231 40.2287 210.711 40.65 209.036 40.65ZM202.876 32.474V29.866H215.212V32.474H202.876Z" fill="#101828"/>
<path d="M220.786 40.17V22.89H223.762V27.082L223.346 26.538C223.56 25.9834 223.837 25.4767 224.178 25.018C224.52 24.5487 224.914 24.1647 225.362 23.866C225.8 23.546 226.285 23.3007 226.818 23.13C227.362 22.9487 227.917 22.842 228.482 22.81C229.048 22.7674 229.592 22.794 230.114 22.89V26.026C229.549 25.8767 228.92 25.834 228.226 25.898C227.544 25.962 226.914 26.1807 226.338 26.554C225.794 26.906 225.362 27.3327 225.042 27.834C224.733 28.3354 224.509 28.8954 224.37 29.514C224.232 30.122 224.162 30.7674 224.162 31.45V40.17H220.786Z" fill="#101828"/>
<path d="M233.801 24.81L234.009 23.322C234.468 23.354 234.825 23.2687 235.081 23.066C235.337 22.8634 235.508 22.5807 235.593 22.218C235.679 21.8554 235.695 21.4447 235.641 20.986H233.801V17.13H237.337V21.306C237.337 22.5647 237.033 23.514 236.425 24.154C235.828 24.794 234.953 25.0127 233.801 24.81Z" fill="#101828"/>
<path d="M246.284 40.634C244.183 40.634 242.471 40.17 241.148 39.242C239.826 38.314 239.015 37.0074 238.716 35.322L242.14 34.794C242.354 35.69 242.844 36.3994 243.612 36.922C244.391 37.434 245.356 37.69 246.508 37.69C247.554 37.69 248.37 37.4767 248.956 37.05C249.554 36.6234 249.852 36.0367 249.852 35.29C249.852 34.8527 249.746 34.5007 249.532 34.234C249.33 33.9567 248.898 33.6954 248.236 33.45C247.575 33.2047 246.567 32.9007 245.212 32.538C243.73 32.154 242.551 31.7434 241.676 31.306C240.812 30.858 240.194 30.3407 239.82 29.754C239.458 29.1567 239.276 28.4367 239.276 27.594C239.276 26.5487 239.554 25.6367 240.108 24.858C240.663 24.0794 241.442 23.4767 242.444 23.05C243.458 22.6234 244.642 22.41 245.996 22.41C247.319 22.41 248.498 22.618 249.532 23.034C250.567 23.45 251.404 24.042 252.044 24.81C252.684 25.5674 253.068 26.458 253.196 27.482L249.772 28.106C249.655 27.274 249.266 26.618 248.604 26.138C247.943 25.658 247.084 25.3967 246.028 25.354C245.015 25.3114 244.194 25.482 243.564 25.866C242.935 26.2394 242.62 26.7567 242.62 27.418C242.62 27.802 242.738 28.1274 242.972 28.394C243.218 28.6607 243.687 28.9167 244.38 29.162C245.074 29.4074 246.098 29.7007 247.452 30.042C248.903 30.4154 250.055 30.8314 250.908 31.29C251.762 31.738 252.37 32.2767 252.732 32.906C253.106 33.5247 253.292 34.2767 253.292 35.162C253.292 36.8687 252.668 38.2074 251.42 39.178C250.183 40.1487 248.471 40.634 246.284 40.634Z" fill="#101828"/>
<path d="M273.495 40.65C271.191 40.65 269.228 40.1487 267.607 39.146C265.985 38.1327 264.743 36.7247 263.879 34.922C263.025 33.1194 262.599 31.0287 262.599 28.65C262.599 26.2714 263.025 24.1807 263.879 22.378C264.743 20.5754 265.985 19.1727 267.607 18.17C269.228 17.1567 271.191 16.65 273.495 16.65C276.151 16.65 278.348 17.322 280.087 18.666C281.836 20.01 283.052 21.818 283.735 24.09L280.343 25.002C279.895 23.3914 279.095 22.1274 277.943 21.21C276.801 20.2927 275.319 19.834 273.495 19.834C271.863 19.834 270.503 20.202 269.415 20.938C268.327 21.674 267.505 22.7034 266.951 24.026C266.407 25.3487 266.135 26.89 266.135 28.65C266.124 30.41 266.391 31.9514 266.935 33.274C267.489 34.5967 268.311 35.626 269.399 36.362C270.497 37.098 271.863 37.466 273.495 37.466C275.319 37.466 276.801 37.0074 277.943 36.09C279.095 35.162 279.895 33.898 280.343 32.298L283.735 33.21C283.052 35.482 281.836 37.29 280.087 38.634C278.348 39.978 276.151 40.65 273.495 40.65Z" fill="#101828"/>
<path d="M287.894 40.17V16.65H291.238V40.17H287.894Z" fill="#101828"/>
<path d="M302.874 40.634C301.68 40.634 300.677 40.442 299.867 40.058C299.056 39.674 298.395 39.1727 297.883 38.554C297.381 37.9247 296.997 37.242 296.73 36.506C296.464 35.77 296.283 35.05 296.187 34.346C296.091 33.642 296.042 33.0234 296.042 32.49V22.89H299.435V31.386C299.435 32.058 299.488 32.7514 299.594 33.466C299.712 34.17 299.925 34.826 300.234 35.434C300.554 36.042 300.997 36.5327 301.562 36.906C302.139 37.2794 302.885 37.466 303.803 37.466C304.4 37.466 304.965 37.37 305.499 37.178C306.032 36.9754 306.496 36.6554 306.891 36.218C307.296 35.7807 307.611 35.2047 307.835 34.49C308.069 33.7754 308.187 32.906 308.187 31.882L310.267 32.666C310.267 34.234 309.973 35.6207 309.387 36.826C308.8 38.0207 307.957 38.954 306.859 39.626C305.76 40.298 304.432 40.634 302.874 40.634ZM308.587 40.17V35.178H308.187V22.89H311.562V40.17H308.587Z" fill="#101828"/>
<path d="M324.482 40.65C322.829 40.65 321.442 40.25 320.322 39.45C319.202 38.6394 318.354 37.546 317.778 36.17C317.202 34.794 316.914 33.242 316.914 31.514C316.914 29.786 317.197 28.234 317.762 26.858C318.338 25.482 319.181 24.3994 320.29 23.61C321.41 22.81 322.786 22.41 324.418 22.41C326.039 22.41 327.437 22.81 328.61 23.61C329.794 24.3994 330.706 25.482 331.346 26.858C331.986 28.2234 332.306 29.7754 332.306 31.514C332.306 33.242 331.986 34.7994 331.346 36.186C330.717 37.562 329.815 38.65 328.642 39.45C327.479 40.25 326.093 40.65 324.482 40.65ZM316.354 40.17V17.13H319.714V27.738H319.33V40.17H316.354ZM324.018 37.626C325.085 37.626 325.965 37.354 326.658 36.81C327.362 36.266 327.885 35.5354 328.226 34.618C328.578 33.69 328.754 32.6554 328.754 31.514C328.754 30.3834 328.578 29.3594 328.226 28.442C327.885 27.5247 327.357 26.794 326.642 26.25C325.927 25.706 325.015 25.434 323.906 25.434C322.861 25.434 321.997 25.69 321.314 26.202C320.642 26.714 320.141 27.4287 319.81 28.346C319.49 29.2634 319.33 30.3194 319.33 31.514C319.33 32.7087 319.49 33.7647 319.81 34.682C320.13 35.5994 320.637 36.3194 321.33 36.842C322.023 37.3647 322.919 37.626 324.018 37.626Z" fill="#101828"/>
</svg>
