<svg width="325" height="64" viewBox="0 0 325 64" fill="none" xmlns="http://www.w3.org/2000/svg">
<rect width="64" height="64" rx="8" fill="white"/>
<path d="M26.922 31.1526H35.2771L35.2572 31.2242C35.1679 31.5923 34.8504 31.8479 34.4833 31.8479H27.7158C27.3487 31.8479 27.0311 31.5923 26.9418 31.2242L26.922 31.1526ZM26.6938 30.2119L25.3641 24.6391C25.2946 24.3323 25.1061 24.0665 24.858 23.8824L24.1336 23.3609C23.9848 23.2484 23.8955 23.0644 23.9153 22.8803C23.9947 22.0828 24.213 19.9661 24.3122 19.3935C24.4313 18.688 24.7191 18.3505 25.5526 18.3505C26.3762 18.3505 31.1095 18.3505 31.1095 18.3505C31.1095 18.3505 35.8427 18.3505 36.6663 18.3505C37.4899 18.3505 37.7876 18.688 37.9067 19.3935C38.0059 19.9661 38.2242 22.0828 38.3036 22.8803C38.3234 23.0746 38.244 23.2587 38.0853 23.3609L37.3609 23.8824C37.1128 24.0665 36.9243 24.3323 36.8548 24.6391L35.5252 30.2016C35.4359 30.5697 35.1183 30.8254 34.7512 30.8254H27.4975C27.1105 30.8356 26.7831 30.58 26.6938 30.2119ZM24.5107 22.3588C24.8977 21.8067 26.8327 19.4958 31.3079 18.8822H25.2649C25.0565 18.8822 24.8878 19.0356 24.858 19.2504C24.7786 19.9866 24.5802 21.6022 24.5107 22.3588ZM26.019 23.9847C26.2274 24.1176 26.4655 24.1892 26.7037 24.1892H35.4855C35.7335 24.1892 35.9717 24.1176 36.1702 23.9847L37.6189 23.0235C37.7082 22.9621 37.6884 22.8292 37.5891 22.7985C36.1503 22.4304 32.2109 22.3691 31.0896 22.3691C29.9683 22.3691 26.0289 22.4304 24.5901 22.7985C24.4909 22.8292 24.471 22.9621 24.5603 23.0235L26.019 23.9847ZM26.6441 25.7127H29.3134C29.5416 25.7127 29.7699 25.7741 29.9683 25.8866C30.2263 26.0195 30.6332 26.1115 31.0995 26.1115C31.5659 26.1115 31.9728 26.0195 32.2308 25.8866C32.4391 25.7741 32.6574 25.7127 32.8857 25.7127H35.5549C35.6442 25.7127 35.7038 25.6412 35.7038 25.5594C35.7038 25.4673 35.6343 25.3957 35.5549 25.3957H32.8857C32.6574 25.3957 32.4292 25.3344 32.2308 25.2219C31.9728 25.089 31.5659 24.997 31.0995 24.997C30.6332 24.997 30.2263 25.089 29.9683 25.2219C29.7599 25.3344 29.5416 25.3957 29.3134 25.3957H26.6441C26.5548 25.3957 26.4953 25.4673 26.4953 25.5594C26.4854 25.6412 26.5548 25.7127 26.6441 25.7127ZM58.1991 38.3716C58.1991 39.159 57.5739 39.8032 56.8099 39.8032H42.0247L34.2352 39.8645H34.1756L31.0995 39.885L28.0234 39.8645H27.9639L20.1744 39.8032H5.38921C4.62514 39.8032 4 39.159 4 38.3716H6.17312L14.5382 27.6351C14.9351 27.134 15.1534 26.5001 15.1534 25.8457V16.285C15.1534 14.9046 15.8678 13.6265 17.0288 12.9414L20.4026 10.9372C27.0014 7.02093 35.2076 7.02093 41.8064 10.9372L45.1802 12.9414C46.3412 13.6265 47.0556 14.9046 47.0556 16.285V25.8457C47.0556 26.4899 47.2739 27.134 47.6708 27.6351L56.0359 38.3716H58.1991ZM36.7755 33.5555H35.0588C35.0588 33.7396 34.9893 33.9134 34.8703 34.0361C34.7512 34.1588 34.5825 34.2304 34.4039 34.2304H27.8051C27.6265 34.2304 27.4578 34.1486 27.3387 34.0361C27.2197 33.9134 27.1502 33.7396 27.1502 33.5555H25.4335V35.4881L26.0785 34.8235H36.1305L36.7755 35.4881V33.5555ZM38.0059 31.4593H36.0015L36.5671 30.1403C36.6861 29.8642 36.9045 29.6495 37.1823 29.5574L39.9409 28.5656C40.1393 28.494 40.2088 28.2486 40.0798 28.085L39.4348 27.2465C39.276 27.042 38.9982 26.9602 38.76 27.0625L37.9166 27.4101L38.125 25.4878C38.1448 25.3242 38.2044 25.1708 38.2937 25.0379L38.8791 24.2301C39.018 24.0358 39.0776 23.7904 39.0577 23.5552C38.9387 22.5122 38.6211 19.5878 38.5616 18.9947C38.4921 18.2585 37.8769 17.6348 36.9045 17.6348C35.9419 17.6348 31.0995 17.6348 31.0995 17.6348C31.0995 17.6348 26.2671 17.6348 25.2946 17.6348C24.3222 17.6348 23.7169 18.2687 23.6375 18.9947C23.578 19.5878 23.2505 22.5122 23.1413 23.5552C23.1116 23.7904 23.181 24.0358 23.32 24.2301L23.9054 25.0379C24.0046 25.1708 24.0543 25.3242 24.0741 25.4878L24.2825 27.4101L23.439 27.0625C23.2009 26.9602 22.923 27.042 22.7643 27.2465L22.1193 28.085C21.9903 28.2486 22.0597 28.494 22.2582 28.5656L25.0168 29.5574C25.2946 29.6597 25.5129 29.8642 25.632 30.1403L26.1976 31.4593H24.1932C24.4016 32.0729 25.1855 32.9931 26.2671 32.9931H35.9419C37.0235 32.9931 37.7975 32.0729 38.0059 31.4593ZM23.0322 29.3325C23.0322 29.3223 23.0322 29.312 23.0322 29.2916L22.4666 29.0768C22.4467 29.1587 22.4467 29.2405 22.4467 29.3325C22.4467 30.0482 23.0024 30.6209 23.697 30.6209C24.1634 30.6209 24.5802 30.355 24.7885 29.9562L24.2229 29.7415C24.1039 29.9051 23.9153 30.0176 23.697 30.0176C23.3299 30.0073 23.0322 29.7108 23.0322 29.3325ZM22.0994 19.9559V22.5122C22.0994 22.8292 21.8514 23.0848 21.5438 23.0848H21.1468C21.1468 23.2893 21.3056 23.4529 21.5041 23.4529H22.7147V19.0356H21.5041C21.4048 19.0356 21.3254 19.0765 21.256 19.1379C21.1964 19.1992 21.1568 19.2913 21.1568 19.3935H21.5338C21.8514 19.3935 22.0994 19.6389 22.0994 19.9559ZM30.3553 17.0826L30.5935 15.968C30.6232 15.8453 30.7225 15.7635 30.8515 15.7635H31.3377C31.4568 15.7635 31.5659 15.8453 31.5957 15.968L31.8338 17.0826H35.4656C34.4833 15.0887 32.7765 14.2707 31.0896 14.2707C29.4027 14.2707 27.696 15.0989 26.7136 17.0826H30.3553ZM40.0996 22.5122V19.9559C40.0996 19.6389 40.3477 19.3833 40.6553 19.3833H41.0324C41.0324 19.281 40.9927 19.1992 40.9332 19.1277C40.8736 19.0663 40.7843 19.0254 40.6851 19.0254H39.4745V23.4427H40.6851C40.8836 23.4427 41.0423 23.2791 41.0423 23.0746H40.6454C40.3477 23.0848 40.0996 22.8292 40.0996 22.5122ZM39.1669 29.3325C39.1669 29.7108 38.8692 30.0073 38.512 30.0073C38.2937 30.0073 38.1051 29.8949 37.9861 29.7313L37.4204 29.946C37.6288 30.3448 38.0456 30.6106 38.512 30.6106C39.1967 30.6106 39.7623 30.038 39.7623 29.3223C39.7623 29.2405 39.7523 29.1484 39.7424 29.0666L39.1768 29.2814C39.157 29.312 39.1669 29.3223 39.1669 29.3325ZM54.5177 38.3716L46.7381 28.402C46.1725 27.6862 45.8649 26.7762 45.8649 25.8559V16.2953C45.8649 15.3545 45.3687 14.4752 44.5749 14.0048L41.2011 12.0006C34.9596 8.29909 27.2197 8.29909 20.9781 12.0006L17.6043 14.0048C16.8105 14.4752 16.3144 15.3545 16.3144 16.2953V25.8559C16.3144 26.7762 16.0068 27.6862 15.4411 28.402L7.68141 38.3716H23.7268L12.2857 36.1118H21.9407V33.1158C21.3254 33.1158 20.8988 32.7477 20.8988 32.124V29.2916C20.8988 28.9541 21.0178 28.6167 21.2262 28.3611L22.3773 26.9602C22.5162 26.7864 22.5956 26.5717 22.5956 26.3467V23.9233H21.2461C20.8293 23.9233 20.4919 23.5757 20.4919 23.1462V19.6389C20.4919 19.4855 20.611 19.3731 20.7499 19.3731V19.1481C20.7499 18.7902 21.0278 18.4937 21.385 18.4937H22.7147C22.1987 18.2994 21.6827 17.4609 22.278 16.7861C22.8833 16.1112 24.0046 16.694 24.0543 17.4712C24.5306 17.2053 24.7886 17.0724 25.6618 17.0724C26.3663 14.7512 28.6089 13.1663 31.0896 13.1663C33.5703 13.1663 35.803 14.7615 36.5175 17.0724C37.3907 17.0724 37.6487 17.1951 38.125 17.4712C38.1746 16.694 39.2959 16.1112 39.9012 16.7861C40.5065 17.4609 39.9905 18.2994 39.4646 18.4937H40.7942C41.1415 18.4937 41.4293 18.78 41.4293 19.1481V19.3731C41.5782 19.3731 41.6873 19.4958 41.6873 19.6389V23.1462C41.6873 23.5757 41.3499 23.9233 40.9332 23.9233H39.5836V26.3467C39.5836 26.5717 39.663 26.7864 39.802 26.9602L40.953 28.3611C41.1713 28.6269 41.2805 28.9541 41.2805 29.2916V32.124C41.2805 32.7579 40.8538 33.1158 40.2386 33.1158V36.1118H49.8936L38.4524 38.3716H54.5177ZM4 50.0898H14.5183L18.1203 54.8139C18.6959 55.5705 19.5592 56 20.4919 56H41.6972C42.63 56 43.4933 55.5705 44.0688 54.8139L47.6708 50.0898H58.1891C58.1891 49.3024 57.564 48.6583 56.7999 48.6583H5.38921C4.62514 48.6583 4 49.3024 4 50.0898ZM43.146 54.0674C42.7987 54.5276 42.2728 54.7934 41.6972 54.7934H20.5018C19.9362 54.7934 19.4103 54.5276 19.0531 54.0674L16.0167 50.1H46.1725L43.146 54.0674Z" fill="black"/>
<path d="M37.8675 16.796C37.9865 16.6017 38.1453 16.4279 38.3338 16.295L40.7352 12.2662C37.8079 10.5791 34.4837 9.68945 31.1 9.68945C27.7163 9.68945 24.3921 10.5791 21.4648 12.2662L23.8662 16.295C24.0547 16.4279 24.2135 16.6017 24.3326 16.796C24.6005 16.6835 24.8883 16.6222 25.3348 16.6017C26.208 14.2806 28.5201 12.6855 31.1 12.6855C33.68 12.6855 35.992 14.2806 36.8652 16.6017C37.3118 16.6222 37.5995 16.6938 37.8675 16.796Z" fill="#FC060C"/>
<path d="M23.112 16.0193C23.0624 16.0091 23.0128 16.0091 22.9632 16.0091C22.5762 16.0091 22.2189 16.1727 21.951 16.459C21.6037 16.8373 21.4847 17.3179 21.5938 17.7985C21.6137 17.8701 21.6335 17.9417 21.6633 18.003H21.4053C20.8297 18.003 20.3534 18.4631 20.3038 19.0562C20.1451 19.1994 20.0359 19.4039 20.0359 19.6391V23.1463C20.0359 23.8416 20.5817 24.404 21.2564 24.404H22.1296V26.3468C22.1296 26.4593 22.09 26.5616 22.0304 26.6434L20.8794 28.0442C20.8297 28.1056 20.79 28.1567 20.7504 28.2283L16.801 25.539V16.2954C16.801 15.5285 17.2079 14.8127 17.8529 14.4242L20.8893 12.6245L23.112 16.0193ZM40.6161 17.8087C40.5962 17.8803 40.5764 17.9519 40.5466 18.0132H40.8046C41.3801 18.0132 41.8564 18.4734 41.9061 19.0664C42.0648 19.2096 42.174 19.4141 42.174 19.6493V23.1565C42.174 23.8519 41.6282 24.4143 40.9534 24.4143H40.0802V26.3571C40.0802 26.4695 40.1199 26.5718 40.1795 26.6536L41.3305 28.0544C41.3801 28.1158 41.4198 28.1669 41.4595 28.2385L45.4088 25.5493V16.3056C45.4088 15.5387 45.002 14.8229 44.357 14.4344L41.3206 12.6347L39.0979 16.0398C39.1475 16.0295 39.1971 16.0295 39.2467 16.0295C39.6337 16.0295 39.9909 16.1931 40.2588 16.4794C40.5962 16.8475 40.7252 17.3179 40.6161 17.8087Z" fill="#FF070A"/>
<path d="M20.5002 54.3028C20.0735 54.3028 19.6865 54.1085 19.4285 53.7608L16.9974 50.5808H45.2083L42.7772 53.7608C42.5192 54.0982 42.1222 54.3028 41.7055 54.3028H20.5002ZM8.66211 37.881H18.7637L10.0116 36.1529L8.66211 37.881ZM21.4726 33.5352V35.6212H12.2939L10.4383 35.6109L15.8265 28.7089C16.3722 28.0033 16.7096 27.1444 16.7791 26.2548L20.5597 28.6066C20.4803 28.8214 20.4307 29.0566 20.4307 29.302V32.1344C20.4307 32.8297 20.8376 33.3614 21.4726 33.5352ZM53.5336 37.881H43.4321L52.1841 36.1529L53.5336 37.881ZM49.9018 35.6212H40.7231V33.5352C41.3483 33.3614 41.765 32.8195 41.765 32.1139V29.2815C41.765 29.0463 41.7253 28.8111 41.636 28.5862L45.4167 26.2344C45.496 27.124 45.8235 27.9829 46.3693 28.6884L51.7574 35.5905L49.9018 35.6212Z" fill="#FF070A"/>
<path d="M4.5542 45.7589H5.41547V44.4016H6.93537V43.6707H5.41547V42.8353H7.442V42.1045H4.5542V45.7589ZM9.49865 45.8111C10.6338 45.8111 11.1965 45.2637 11.1965 44.0573L11.1911 42.1045H10.3298V44.2195C10.3298 44.798 10.0669 45.0802 9.49865 45.0802C8.93588 45.0802 8.66339 44.8093 8.66339 44.2195L8.65791 42.1045H7.79664V44.0573C7.79664 45.227 8.32792 45.8111 9.49865 45.8111ZM11.7032 45.7589H14.591V45.028H12.5645V44.2971H14.0843V43.5662H12.5645V42.8353H14.591V42.1045H11.7032V45.7589ZM15.0976 45.7589H17.9854V45.028H15.9589V42.1045H15.0976V45.7589ZM19.5053 45.7589H21.6688C22.4177 45.7589 22.7833 45.4034 22.7833 44.6104C22.7833 44.0982 22.6204 43.7595 22.3014 43.5931C22.4534 43.4364 22.53 43.2262 22.53 42.9666C22.53 42.4389 22.1946 42.1045 21.6934 42.1045H19.5053V45.7589ZM21.6688 45.028H20.3666V44.1927H21.6688C21.8454 44.1927 21.9221 44.3183 21.9221 44.6104C21.9221 44.8869 21.8454 45.028 21.6688 45.028ZM21.5003 43.4618H20.3666V42.8353H21.5003C21.6017 42.8353 21.6688 42.9666 21.6688 43.1486C21.6688 43.3363 21.5976 43.4618 21.5003 43.4618ZM24.992 45.8111C26.1271 45.8111 26.6885 45.2637 26.6885 44.0573L26.6844 42.1045H25.8231V44.2195C25.8231 44.798 25.5589 45.0802 24.992 45.0802C24.4292 45.0802 24.1554 44.8093 24.1554 44.2195L24.1512 42.1045H23.29V44.0573C23.29 45.227 23.8213 45.8111 24.992 45.8111ZM28.5631 44.3493V45.7589H29.4243V44.3493L30.7922 42.1045H29.8803L28.9944 43.5606L28.1071 42.1045H27.1951L28.5631 44.3493ZM31.2989 45.7589H34.1867V45.028H32.1601V44.2971H33.68V43.5662H32.1601V42.8353H34.1867V42.1045H31.2989V45.7589ZM34.6933 45.7589H35.5546V44.5582H36.1981L36.8718 45.7589H37.7837L37.0649 44.4749C37.5003 44.3183 37.718 43.9317 37.718 43.3207C37.718 42.5122 37.3237 42.1045 36.5322 42.1045H34.6933V45.7589ZM36.5281 43.8273H35.5546V42.8353H36.5281C36.7349 42.8353 36.8567 42.9976 36.8567 43.3264C36.8567 43.6608 36.7458 43.8273 36.5281 43.8273ZM39.8869 45.8111C40.7332 45.8111 41.1741 45.6235 41.3562 45.2834C41.4424 45.1113 41.4876 44.8926 41.4876 44.6203C41.4876 43.9105 41.1686 43.5662 40.2717 43.5662H39.8869C39.5323 43.5662 39.3297 43.5662 39.2283 43.4618C39.1818 43.4153 39.1571 43.332 39.1571 43.2163C39.1571 42.9821 39.2174 42.872 39.4255 42.8198C39.5268 42.793 39.6843 42.7831 39.8911 42.7831C40.1909 42.7831 40.3429 42.8099 40.4442 42.9708C40.4949 43.0498 40.5196 43.1754 40.5196 43.3363H41.3863C41.3863 42.3754 40.8797 42.0522 39.8911 42.0522C39.0462 42.0522 38.6053 42.2399 38.4273 42.58C38.3369 42.7521 38.2904 42.9708 38.2904 43.2431C38.2904 43.9529 38.6094 44.2971 39.5063 44.2971H39.8869C40.2265 44.2971 40.4442 44.3183 40.5497 44.4227C40.5962 44.4749 40.6209 44.5483 40.6209 44.6471C40.6209 44.8813 40.5606 44.9857 40.358 45.0379C40.2512 45.0647 40.0937 45.0802 39.8869 45.0802C39.5214 45.0802 39.3392 45.0492 39.2379 44.8926C39.1818 44.8136 39.1571 44.6936 39.1571 44.5271H38.2904C38.2904 45.1903 38.5396 45.5445 39.0051 45.6968C39.2324 45.7744 39.5268 45.8111 39.8869 45.8111ZM44.8369 45.8111C45.9912 45.8111 46.569 45.378 46.569 44.5116H45.7077C45.7077 44.8869 45.3024 45.0802 44.8369 45.0802C44.1824 45.0802 43.8688 44.736 43.8688 43.926C43.8688 43.1486 44.1632 42.7831 44.8369 42.7831C45.3284 42.7831 45.7132 42.9398 45.7132 43.3574H46.5745C46.5129 42.4854 45.8501 42.0522 44.8369 42.0522C43.6004 42.0522 43.0075 42.6265 43.0075 43.926C43.0075 45.2002 43.5648 45.8111 44.8369 45.8111ZM47.0811 45.7589H49.9689V45.028H47.9424V42.1045H47.0811V45.7589ZM52.1776 45.8111C53.3127 45.8111 53.8741 45.2637 53.8741 44.0573L53.87 42.1045H53.0087V44.2195C53.0087 44.798 52.7444 45.0802 52.1776 45.0802C51.6148 45.0802 51.3409 44.8093 51.3409 44.2195L51.3368 42.1045H50.4755V44.0573C50.4755 45.227 51.0068 45.8111 52.1776 45.8111ZM54.3807 45.7589H56.5442C57.2945 45.7589 57.6588 45.4034 57.6588 44.6104C57.6588 44.0982 57.4972 43.7595 57.1781 43.5931C57.3301 43.4364 57.4054 43.2262 57.4054 42.9666C57.4054 42.4389 57.0713 42.1045 56.5702 42.1045H54.3807V45.7589ZM56.5442 45.028H55.242V44.1927H56.5442C56.7222 44.1927 56.7975 44.3183 56.7975 44.6104C56.7975 44.8869 56.7222 45.028 56.5442 45.028ZM56.3771 43.4618H55.242V42.8353H56.3771C56.4784 42.8353 56.5442 42.9666 56.5442 43.1486C56.5442 43.3363 56.4743 43.4618 56.3771 43.4618Z" fill="black"/>
<path d="M20.9031 53.5353H22.464V53.1403H21.3686V52.7452H22.1902V52.3501H21.3686V51.955H22.464V51.56H20.9031V53.5353ZM24.5097 53.5636C24.9671 53.5636 25.2053 53.462 25.3039 53.2785C25.3505 53.1854 25.3751 53.0669 25.3751 52.9202C25.3751 52.5364 25.2026 52.3501 24.7179 52.3501H24.5097C24.318 52.3501 24.2085 52.3501 24.1537 52.2937C24.1291 52.2683 24.1154 52.2231 24.1154 52.161C24.1154 52.0341 24.1483 51.9748 24.2605 51.9466C24.3153 51.9325 24.4002 51.9268 24.5125 51.9268C24.6741 51.9268 24.7562 51.9409 24.811 52.0284C24.8384 52.0707 24.8521 52.1385 24.8521 52.2259H25.3204C25.3204 51.7067 25.0465 51.5317 24.5125 51.5317C24.0551 51.5317 23.8169 51.6333 23.721 51.8168C23.6717 51.9099 23.6471 52.0284 23.6471 52.1752C23.6471 52.5589 23.8196 52.7452 24.3044 52.7452H24.5097C24.6932 52.7452 24.811 52.7565 24.8685 52.8129C24.8931 52.8411 24.9068 52.8806 24.9068 52.9343C24.9068 53.0613 24.874 53.1177 24.7644 53.1459C24.7069 53.16 24.622 53.1685 24.5097 53.1685C24.3126 53.1685 24.214 53.1516 24.1592 53.0669C24.1291 53.0246 24.1154 52.9597 24.1154 52.8694H23.6471C23.6471 53.2278 23.7813 53.4196 24.0332 53.5015C24.1565 53.5438 24.3153 53.5636 24.5097 53.5636ZM27.1607 53.5353H27.6262V51.955H28.2287V51.56H26.5582V51.955H27.1607V53.5353ZM30.8714 53.1403L30.8687 53.5353H32.5419V53.1403H31.3397C31.3506 52.9173 31.4355 52.8299 31.6793 52.8299H31.8847C32.3694 52.8299 32.5419 52.6436 32.5419 52.2598V52.1752C32.5419 51.8817 32.4597 51.7039 32.2078 51.6051C32.0818 51.5571 31.9038 51.5317 31.6765 51.5317C31.1425 51.5317 30.8687 51.7067 30.8687 52.2259H31.3369C31.3369 52.0482 31.3972 51.9691 31.4876 51.9437C31.5341 51.9325 31.5971 51.9268 31.6765 51.9268C31.8764 51.9268 31.9997 51.9466 32.0435 52.0171C32.0627 52.0482 32.0736 52.0961 32.0736 52.161V52.2457C32.0736 52.3699 32.0216 52.415 31.923 52.4263C31.8737 52.432 31.7915 52.4348 31.6793 52.4348H31.5259C31.1014 52.4348 30.8906 52.6521 30.8714 53.1403ZM34.6588 53.5636C35.2859 53.5636 35.5872 53.2532 35.5872 52.5448C35.5872 51.8563 35.3051 51.5317 34.6588 51.5317C34.0262 51.5317 33.725 51.8422 33.725 52.5448C33.725 53.2334 34.0098 53.5636 34.6588 53.5636ZM34.1905 52.5448C34.1905 52.1244 34.3302 51.9268 34.6588 51.9268C34.9737 51.9268 35.1216 52.1159 35.1216 52.5448C35.1216 52.9653 34.9792 53.1685 34.6588 53.1685C34.3411 53.1685 34.1905 52.9766 34.1905 52.5448ZM36.773 53.1403L36.7702 53.5353H38.4435V53.1403H37.2413C37.2522 52.9173 37.3371 52.8299 37.5808 52.8299H37.7862C38.2709 52.8299 38.4435 52.6436 38.4435 52.2598V52.1752C38.4435 51.8817 38.3613 51.7039 38.1094 51.6051C37.9834 51.5571 37.8054 51.5317 37.5781 51.5317C37.0441 51.5317 36.7702 51.7067 36.7702 52.2259H37.2385C37.2385 52.0482 37.2988 51.9691 37.3891 51.9437C37.4357 51.9325 37.4987 51.9268 37.5781 51.9268C37.778 51.9268 37.9012 51.9466 37.9451 52.0171C37.9642 52.0482 37.9752 52.0961 37.9752 52.161V52.2457C37.9752 52.3699 37.9232 52.415 37.8246 52.4263C37.7753 52.432 37.6931 52.4348 37.5808 52.4348H37.4275C37.003 52.4348 36.7921 52.6521 36.773 53.1403ZM39.6265 52.6888V53.0838H40.6398V53.5353H41.1053V53.0838H41.297V52.6888H41.1053V51.56H40.4454L39.6265 52.6888ZM40.6398 52.6888H40.0921L40.6398 51.9325V52.6888Z" fill="white"/>
<path d="M72 39.9199V16.8799H85.872V20.7359H75.856V26.4799H83.952V30.3199H75.856V39.9199H72Z" fill="white"/>
<path d="M95.23 40.4159C93.95 40.4159 92.894 40.2026 92.062 39.7759C91.23 39.3492 90.5687 38.8052 90.078 38.1439C89.5873 37.4826 89.2247 36.7786 88.99 36.0319C88.7553 35.2852 88.6007 34.5812 88.526 33.9199C88.462 33.2479 88.43 32.7039 88.43 32.2879V22.6399H92.334V30.9599C92.334 31.4932 92.3713 32.0959 92.446 32.7679C92.5207 33.4292 92.6913 34.0692 92.958 34.6879C93.2353 35.2959 93.6407 35.7972 94.174 36.1919C94.718 36.5866 95.4487 36.7839 96.366 36.7839C96.8567 36.7839 97.342 36.7039 97.822 36.5439C98.302 36.3839 98.734 36.1119 99.118 35.7279C99.5127 35.3332 99.8273 34.7946 100.062 34.1119C100.297 33.4292 100.414 32.5652 100.414 31.5199L102.702 32.4959C102.702 33.9679 102.414 35.3012 101.838 36.4959C101.273 37.6906 100.435 38.6452 99.326 39.3599C98.2167 40.0639 96.8513 40.4159 95.23 40.4159ZM100.878 39.9199V34.5599H100.414V22.6399H104.286V39.9199H100.878Z" fill="white"/>
<path d="M116.637 40.3999C114.888 40.3999 113.352 40.0212 112.029 39.2639C110.707 38.5066 109.672 37.4559 108.925 36.1119C108.189 34.7679 107.821 33.2212 107.821 31.4719C107.821 29.5839 108.184 27.9466 108.909 26.5599C109.635 25.1626 110.643 24.0799 111.933 23.3119C113.224 22.5439 114.717 22.1599 116.413 22.1599C118.205 22.1599 119.725 22.5812 120.973 23.4239C122.232 24.2559 123.165 25.4346 123.773 26.9599C124.381 28.4852 124.611 30.2826 124.461 32.3519H120.637V30.9439C120.627 29.0666 120.296 27.6959 119.645 26.8319C118.995 25.9679 117.971 25.5359 116.573 25.5359C114.995 25.5359 113.821 26.0266 113.053 27.0079C112.285 27.9786 111.901 29.4026 111.901 31.2799C111.901 33.0292 112.285 34.3839 113.053 35.3439C113.821 36.3039 114.941 36.7839 116.413 36.7839C117.363 36.7839 118.179 36.5759 118.861 36.1599C119.555 35.7332 120.088 35.1199 120.461 34.3199L124.269 35.4719C123.608 37.0292 122.584 38.2399 121.197 39.1039C119.821 39.9679 118.301 40.3999 116.637 40.3999ZM110.685 32.3519V29.4399H122.573V32.3519H110.685Z" fill="white"/>
<path d="M128.351 39.9199V16.3999H132.207V39.9199H128.351Z" fill="white"/>
<path d="M143.406 39.9199V16.8799H152.542C154.1 16.8799 155.374 17.1946 156.366 17.8239C157.369 18.4426 158.11 19.2372 158.59 20.2079C159.081 21.1786 159.326 22.1812 159.326 23.2159C159.326 24.4852 159.022 25.5626 158.414 26.4479C157.817 27.3332 157.001 27.9306 155.966 28.2399V27.4399C157.417 27.7706 158.516 28.4586 159.262 29.5039C160.02 30.5492 160.398 31.7386 160.398 33.0719C160.398 34.4372 160.137 35.6319 159.614 36.6559C159.092 37.6799 158.313 38.4799 157.278 39.0559C156.254 39.6319 154.985 39.9199 153.47 39.9199H143.406ZM147.31 36.2879H152.99C153.662 36.2879 154.265 36.1546 154.798 35.8879C155.332 35.6106 155.748 35.2266 156.046 34.7359C156.356 34.2346 156.51 33.6426 156.51 32.9599C156.51 32.3412 156.377 31.7866 156.11 31.2959C155.844 30.8052 155.454 30.4159 154.942 30.1279C154.43 29.8292 153.817 29.6799 153.102 29.6799H147.31V36.2879ZM147.31 26.0799H152.494C153.049 26.0799 153.545 25.9732 153.982 25.7599C154.42 25.5466 154.766 25.2319 155.022 24.8159C155.278 24.3999 155.406 23.8879 155.406 23.2799C155.406 22.4799 155.15 21.8132 154.638 21.2799C154.126 20.7466 153.412 20.4799 152.494 20.4799H147.31V26.0799Z" fill="white"/>
<path d="M170.074 40.4159C168.794 40.4159 167.738 40.2026 166.906 39.7759C166.074 39.3492 165.412 38.8052 164.922 38.1439C164.431 37.4826 164.068 36.7786 163.834 36.0319C163.599 35.2852 163.444 34.5812 163.37 33.9199C163.306 33.2479 163.274 32.7039 163.274 32.2879V22.6399H167.178V30.9599C167.178 31.4932 167.215 32.0959 167.29 32.7679C167.364 33.4292 167.535 34.0692 167.802 34.6879C168.079 35.2959 168.484 35.7972 169.018 36.1919C169.562 36.5866 170.292 36.7839 171.21 36.7839C171.7 36.7839 172.186 36.7039 172.666 36.5439C173.146 36.3839 173.578 36.1119 173.962 35.7279C174.356 35.3332 174.671 34.7946 174.906 34.1119C175.14 33.4292 175.258 32.5652 175.258 31.5199L177.546 32.4959C177.546 33.9679 177.258 35.3012 176.682 36.4959C176.116 37.6906 175.279 38.6452 174.17 39.3599C173.06 40.0639 171.695 40.4159 170.074 40.4159ZM175.722 39.9199V34.5599H175.258V22.6399H179.13V39.9199H175.722Z" fill="white"/>
<path d="M185.897 47.5999L189.225 38.4639L189.289 41.1519L181.753 22.6399H185.769L191.113 36.3359H190.089L195.289 22.6399H199.145L189.513 47.5999H185.897Z" fill="white"/>
<path d="M208.762 40.3999C207.013 40.3999 205.477 40.0212 204.154 39.2639C202.832 38.5066 201.797 37.4559 201.05 36.1119C200.314 34.7679 199.946 33.2212 199.946 31.4719C199.946 29.5839 200.309 27.9466 201.034 26.5599C201.76 25.1626 202.768 24.0799 204.058 23.3119C205.349 22.5439 206.842 22.1599 208.538 22.1599C210.33 22.1599 211.85 22.5812 213.098 23.4239C214.357 24.2559 215.29 25.4346 215.898 26.9599C216.506 28.4852 216.736 30.2826 216.586 32.3519H212.762V30.9439C212.752 29.0666 212.421 27.6959 211.77 26.8319C211.12 25.9679 210.096 25.5359 208.698 25.5359C207.12 25.5359 205.946 26.0266 205.178 27.0079C204.41 27.9786 204.026 29.4026 204.026 31.2799C204.026 33.0292 204.41 34.3839 205.178 35.3439C205.946 36.3039 207.066 36.7839 208.538 36.7839C209.488 36.7839 210.304 36.5759 210.986 36.1599C211.68 35.7332 212.213 35.1199 212.586 34.3199L216.394 35.4719C215.733 37.0292 214.709 38.2399 213.322 39.1039C211.946 39.9679 210.426 40.3999 208.762 40.3999ZM202.81 32.3519V29.4399H214.698V32.3519H202.81Z" fill="white"/>
<path d="M220.156 39.9199V22.6399H223.564V26.8479L223.148 26.3039C223.362 25.7279 223.644 25.2052 223.996 24.7359C224.359 24.2559 224.791 23.8612 225.292 23.5519C225.719 23.2639 226.188 23.0399 226.7 22.8799C227.223 22.7092 227.756 22.6079 228.3 22.5759C228.844 22.5332 229.372 22.5546 229.884 22.6399V26.2399C229.372 26.0906 228.78 26.0426 228.108 26.0959C227.447 26.1492 226.85 26.3359 226.316 26.6559C225.783 26.9439 225.346 27.3119 225.004 27.7599C224.674 28.2079 224.428 28.7199 224.268 29.2959C224.108 29.8612 224.028 30.4746 224.028 31.1359V39.9199H220.156Z" fill="white"/>
<path d="M238.984 40.3999C236.851 40.3999 235.118 39.9199 233.785 38.9599C232.451 37.9999 231.64 36.6506 231.352 34.9119L235.288 34.3039C235.491 35.1572 235.939 35.8292 236.633 36.3199C237.326 36.8106 238.201 37.0559 239.257 37.0559C240.185 37.0559 240.899 36.8746 241.4 36.5119C241.912 36.1386 242.169 35.6319 242.169 34.9919C242.169 34.5972 242.072 34.2826 241.88 34.0479C241.699 33.8026 241.294 33.5679 240.665 33.3439C240.035 33.1199 239.07 32.8372 237.768 32.4959C236.318 32.1119 235.166 31.7012 234.312 31.2639C233.459 30.8159 232.846 30.2879 232.473 29.6799C232.099 29.0719 231.913 28.3359 231.913 27.4719C231.913 26.3946 232.195 25.4559 232.76 24.6559C233.326 23.8559 234.115 23.2426 235.128 22.8159C236.142 22.3786 237.336 22.1599 238.712 22.1599C240.056 22.1599 241.246 22.3679 242.281 22.7839C243.326 23.1999 244.169 23.7919 244.809 24.5599C245.449 25.3279 245.843 26.2292 245.993 27.2639L242.057 27.9679C241.961 27.2319 241.625 26.6506 241.049 26.2239C240.483 25.7972 239.726 25.5572 238.777 25.5039C237.87 25.4506 237.139 25.5892 236.585 25.9199C236.03 26.2399 235.753 26.6932 235.753 27.2799C235.753 27.6106 235.865 27.8932 236.089 28.1279C236.313 28.3626 236.76 28.5972 237.432 28.8319C238.115 29.0666 239.129 29.3546 240.473 29.6959C241.849 30.0479 242.947 30.4532 243.768 30.9119C244.6 31.3599 245.198 31.8986 245.561 32.5279C245.934 33.1572 246.12 33.9199 246.12 34.8159C246.12 36.5546 245.486 37.9199 244.217 38.9119C242.958 39.9039 241.214 40.3999 238.984 40.3999Z" fill="white"/>
<path d="M265.775 40.3999C263.471 40.3999 261.498 39.8986 259.855 38.8959C258.213 37.8826 256.949 36.4746 256.063 34.6719C255.189 32.8692 254.751 30.7786 254.751 28.3999C254.751 26.0212 255.189 23.9306 256.063 22.1279C256.949 20.3252 258.213 18.9226 259.855 17.9199C261.498 16.9066 263.471 16.3999 265.775 16.3999C268.431 16.3999 270.645 17.0666 272.415 18.3999C274.186 19.7226 275.429 21.5092 276.143 23.7599L272.255 24.8319C271.807 23.3279 271.045 22.1546 269.967 21.3119C268.89 20.4586 267.493 20.0319 265.775 20.0319C264.229 20.0319 262.938 20.3786 261.903 21.0719C260.879 21.7652 260.106 22.7412 259.583 23.9999C259.071 25.2479 258.81 26.7146 258.799 28.3999C258.799 30.0852 259.055 31.5572 259.567 32.8159C260.09 34.0639 260.869 35.0346 261.903 35.7279C262.938 36.4212 264.229 36.7679 265.775 36.7679C267.493 36.7679 268.89 36.3412 269.967 35.4879C271.045 34.6346 271.807 33.4612 272.255 31.9679L276.143 33.0399C275.429 35.2906 274.186 37.0826 272.415 38.4159C270.645 39.7386 268.431 40.3999 265.775 40.3999Z" fill="white"/>
<path d="M279.976 39.9199V16.3999H283.832V39.9199H279.976Z" fill="white"/>
<path d="M295.105 40.4159C293.825 40.4159 292.769 40.2026 291.937 39.7759C291.105 39.3492 290.444 38.8052 289.953 38.1439C289.462 37.4826 289.1 36.7786 288.865 36.0319C288.63 35.2852 288.476 34.5812 288.401 33.9199C288.337 33.2479 288.305 32.7039 288.305 32.2879V22.6399H292.209V30.9599C292.209 31.4932 292.246 32.0959 292.321 32.7679C292.396 33.4292 292.566 34.0692 292.833 34.6879C293.11 35.2959 293.516 35.7972 294.049 36.1919C294.593 36.5866 295.324 36.7839 296.241 36.7839C296.732 36.7839 297.217 36.7039 297.697 36.5439C298.177 36.3839 298.609 36.1119 298.993 35.7279C299.388 35.3332 299.702 34.7946 299.937 34.1119C300.172 33.4292 300.289 32.5652 300.289 31.5199L302.577 32.4959C302.577 33.9679 302.289 35.3012 301.713 36.4959C301.148 37.6906 300.31 38.6452 299.201 39.3599C298.092 40.0639 296.726 40.4159 295.105 40.4159ZM300.753 39.9199V34.5599H300.289V22.6399H304.161V39.9199H300.753Z" fill="white"/>
<path d="M316.96 40.3999C315.275 40.3999 313.862 39.9999 312.72 39.1999C311.579 38.3999 310.72 37.3119 310.144 35.9359C309.568 34.5492 309.28 32.9972 309.28 31.2799C309.28 29.5412 309.568 27.9839 310.144 26.6079C310.72 25.2319 311.563 24.1492 312.672 23.3599C313.792 22.5599 315.174 22.1599 316.816 22.1599C318.448 22.1599 319.862 22.5599 321.056 23.3599C322.262 24.1492 323.195 25.2319 323.856 26.6079C324.518 27.9732 324.848 29.5306 324.848 31.2799C324.848 33.0079 324.523 34.5599 323.872 35.9359C323.222 37.3119 322.304 38.3999 321.12 39.1999C319.936 39.9999 318.55 40.3999 316.96 40.3999ZM308.624 39.9199V16.8799H312.512V27.7919H312.032V39.9199H308.624ZM316.368 36.9439C317.371 36.9439 318.198 36.6932 318.848 36.1919C319.499 35.6906 319.979 35.0132 320.288 34.1599C320.608 33.2959 320.768 32.3359 320.768 31.2799C320.768 30.2346 320.608 29.2852 320.288 28.4319C319.968 27.5679 319.472 26.8852 318.8 26.3839C318.128 25.8719 317.275 25.6159 316.24 25.6159C315.259 25.6159 314.459 25.8559 313.84 26.3359C313.222 26.8052 312.763 27.4666 312.464 28.3199C312.176 29.1626 312.032 30.1492 312.032 31.2799C312.032 32.3999 312.176 33.3866 312.464 34.2399C312.763 35.0932 313.227 35.7599 313.856 36.2399C314.496 36.7092 315.334 36.9439 316.368 36.9439Z" fill="white"/>
</svg>
