<svg width="470" height="64" viewBox="0 0 470 64" fill="none" xmlns="http://www.w3.org/2000/svg">
<rect width="64" height="64" rx="8" fill="white"/>
<path d="M26.922 31.1526H35.2771L35.2572 31.2242C35.1679 31.5923 34.8504 31.8479 34.4833 31.8479H27.7158C27.3487 31.8479 27.0311 31.5923 26.9418 31.2242L26.922 31.1526ZM26.6938 30.2119L25.3641 24.6391C25.2946 24.3323 25.1061 24.0665 24.858 23.8824L24.1336 23.3609C23.9848 23.2484 23.8955 23.0644 23.9153 22.8803C23.9947 22.0828 24.213 19.9661 24.3123 19.3935C24.4313 18.688 24.7191 18.3505 25.5526 18.3505C26.3762 18.3505 31.1095 18.3505 31.1095 18.3505C31.1095 18.3505 35.8427 18.3505 36.6663 18.3505C37.4899 18.3505 37.7876 18.688 37.9067 19.3935C38.0059 19.9661 38.2242 22.0828 38.3036 22.8803C38.3234 23.0746 38.244 23.2587 38.0853 23.3609L37.3609 23.8824C37.1128 24.0665 36.9243 24.3323 36.8548 24.6391L35.5252 30.2016C35.4359 30.5697 35.1183 30.8254 34.7512 30.8254H27.4975C27.1105 30.8356 26.7831 30.58 26.6938 30.2119ZM24.5107 22.3588C24.8977 21.8067 26.8327 19.4958 31.3079 18.8822H25.2649C25.0565 18.8822 24.8878 19.0356 24.858 19.2504C24.7786 19.9866 24.5802 21.6022 24.5107 22.3588ZM26.019 23.9847C26.2274 24.1176 26.4655 24.1892 26.7037 24.1892H35.4855C35.7335 24.1892 35.9717 24.1176 36.1702 23.9847L37.6189 23.0235C37.7082 22.9621 37.6884 22.8292 37.5891 22.7985C36.1503 22.4304 32.2109 22.3691 31.0896 22.3691C29.9683 22.3691 26.0289 22.4304 24.5901 22.7985C24.4909 22.8292 24.471 22.9621 24.5603 23.0235L26.019 23.9847ZM26.6441 25.7127H29.3134C29.5416 25.7127 29.7699 25.7741 29.9683 25.8866C30.2263 26.0195 30.6332 26.1115 31.0995 26.1115C31.5659 26.1115 31.9728 26.0195 32.2308 25.8866C32.4391 25.7741 32.6574 25.7127 32.8857 25.7127H35.5549C35.6442 25.7127 35.7038 25.6412 35.7038 25.5594C35.7038 25.4673 35.6343 25.3958 35.5549 25.3958H32.8857C32.6574 25.3958 32.4292 25.3344 32.2308 25.2219C31.9728 25.089 31.5659 24.997 31.0995 24.997C30.6332 24.997 30.2263 25.089 29.9683 25.2219C29.7599 25.3344 29.5416 25.3958 29.3134 25.3958H26.6441C26.5548 25.3958 26.4953 25.4673 26.4953 25.5594C26.4854 25.6412 26.5548 25.7127 26.6441 25.7127ZM58.1991 38.3716C58.1991 39.159 57.5739 39.8032 56.8099 39.8032H42.0247L34.2352 39.8645H34.1756L31.0995 39.885L28.0234 39.8645H27.9639L20.1744 39.8032H5.38921C4.62514 39.8032 4 39.159 4 38.3716H6.17312L14.5382 27.6351C14.9351 27.134 15.1534 26.5001 15.1534 25.8457V16.285C15.1534 14.9046 15.8678 13.6265 17.0288 12.9414L20.4026 10.9372C27.0014 7.02093 35.2076 7.02093 41.8064 10.9372L45.1802 12.9414C46.3412 13.6265 47.0556 14.9046 47.0556 16.285V25.8457C47.0556 26.4899 47.2739 27.134 47.6708 27.6351L56.0359 38.3716H58.1991ZM36.7755 33.5555H35.0588C35.0588 33.7396 34.9893 33.9134 34.8703 34.0361C34.7512 34.1588 34.5825 34.2304 34.4039 34.2304H27.8051C27.6265 34.2304 27.4578 34.1486 27.3387 34.0361C27.2197 33.9134 27.1502 33.7396 27.1502 33.5555H25.4335V35.4881L26.0785 34.8235H36.1305L36.7755 35.4881V33.5555ZM38.0059 31.4593H36.0015L36.5671 30.1403C36.6861 29.8642 36.9045 29.6495 37.1823 29.5574L39.9409 28.5656C40.1393 28.494 40.2088 28.2486 40.0798 28.085L39.4348 27.2465C39.276 27.042 38.9982 26.9602 38.76 27.0625L37.9166 27.4101L38.125 25.4878C38.1448 25.3242 38.2044 25.1708 38.2937 25.0379L38.8791 24.2301C39.018 24.0358 39.0776 23.7904 39.0577 23.5552C38.9387 22.5122 38.6211 19.5878 38.5616 18.9947C38.4921 18.2585 37.8769 17.6348 36.9045 17.6348C35.9419 17.6348 31.0995 17.6348 31.0995 17.6348C31.0995 17.6348 26.2671 17.6348 25.2946 17.6348C24.3222 17.6348 23.7169 18.2687 23.6375 18.9947C23.5779 19.5878 23.2505 22.5122 23.1413 23.5552C23.1116 23.7904 23.181 24.0358 23.32 24.2301L23.9054 25.0379C24.0046 25.1708 24.0543 25.3242 24.0741 25.4878L24.2825 27.4101L23.439 27.0625C23.2009 26.9602 22.923 27.042 22.7643 27.2465L22.1193 28.085C21.9903 28.2486 22.0597 28.494 22.2582 28.5656L25.0168 29.5574C25.2946 29.6597 25.5129 29.8642 25.632 30.1403L26.1976 31.4593H24.1932C24.4016 32.0729 25.1855 32.9931 26.2671 32.9931H35.9419C37.0235 32.9931 37.7975 32.0729 38.0059 31.4593ZM23.0322 29.3325C23.0322 29.3223 23.0322 29.312 23.0322 29.2916L22.4666 29.0768C22.4467 29.1587 22.4467 29.2405 22.4467 29.3325C22.4467 30.0483 23.0024 30.6209 23.697 30.6209C24.1634 30.6209 24.5802 30.355 24.7885 29.9562L24.2229 29.7415C24.1039 29.9051 23.9153 30.0176 23.697 30.0176C23.3299 30.0073 23.0322 29.7108 23.0322 29.3325ZM22.0994 19.9559V22.5122C22.0994 22.8292 21.8514 23.0848 21.5438 23.0848H21.1468C21.1468 23.2893 21.3056 23.4529 21.5041 23.4529H22.7147V19.0356H21.5041C21.4048 19.0356 21.3254 19.0765 21.256 19.1379C21.1964 19.1992 21.1568 19.2913 21.1568 19.3935H21.5338C21.8514 19.3935 22.0994 19.6389 22.0994 19.9559ZM30.3553 17.0826L30.5935 15.968C30.6232 15.8453 30.7225 15.7635 30.8515 15.7635H31.3377C31.4568 15.7635 31.5659 15.8453 31.5957 15.968L31.8338 17.0826H35.4656C34.4833 15.0887 32.7765 14.2707 31.0896 14.2707C29.4027 14.2707 27.696 15.0989 26.7136 17.0826H30.3553ZM40.0996 22.5122V19.9559C40.0996 19.6389 40.3477 19.3833 40.6553 19.3833H41.0324C41.0324 19.281 40.9927 19.1992 40.9332 19.1277C40.8736 19.0663 40.7843 19.0254 40.6851 19.0254H39.4745V23.4427H40.6851C40.8836 23.4427 41.0423 23.2791 41.0423 23.0746H40.6454C40.3477 23.0848 40.0996 22.8292 40.0996 22.5122ZM39.1669 29.3325C39.1669 29.7108 38.8692 30.0073 38.512 30.0073C38.2937 30.0073 38.1051 29.8949 37.9861 29.7313L37.4204 29.946C37.6288 30.3448 38.0456 30.6106 38.512 30.6106C39.1967 30.6106 39.7623 30.038 39.7623 29.3223C39.7623 29.2405 39.7523 29.1484 39.7424 29.0666L39.1768 29.2814C39.157 29.312 39.1669 29.3223 39.1669 29.3325ZM54.5177 38.3716L46.7381 28.402C46.1725 27.6862 45.8649 26.7762 45.8649 25.8559V16.2953C45.8649 15.3545 45.3687 14.4752 44.5749 14.0048L41.2011 12.0006C34.9596 8.29909 27.2197 8.29909 20.9781 12.0006L17.6043 14.0048C16.8105 14.4752 16.3144 15.3545 16.3144 16.2953V25.8559C16.3144 26.7762 16.0068 27.6862 15.4411 28.402L7.68141 38.3716H23.7268L12.2857 36.1118H21.9407V33.1158C21.3254 33.1158 20.8988 32.7477 20.8988 32.124V29.2916C20.8988 28.9541 21.0178 28.6167 21.2262 28.3611L22.3773 26.9602C22.5162 26.7864 22.5956 26.5717 22.5956 26.3467V23.9233H21.2461C20.8293 23.9233 20.4919 23.5757 20.4919 23.1462V19.6389C20.4919 19.4855 20.611 19.3731 20.7499 19.3731V19.1481C20.7499 18.7902 21.0278 18.4937 21.385 18.4937H22.7147C22.1987 18.2994 21.6827 17.4609 22.278 16.7861C22.8833 16.1112 24.0046 16.694 24.0543 17.4712C24.5306 17.2053 24.7886 17.0724 25.6618 17.0724C26.3663 14.7512 28.6089 13.1663 31.0896 13.1663C33.5703 13.1663 35.803 14.7615 36.5175 17.0724C37.3907 17.0724 37.6487 17.1951 38.125 17.4712C38.1746 16.694 39.2959 16.1112 39.9012 16.7861C40.5065 17.4609 39.9905 18.2994 39.4646 18.4937H40.7942C41.1415 18.4937 41.4293 18.78 41.4293 19.1481V19.3731C41.5782 19.3731 41.6873 19.4958 41.6873 19.6389V23.1462C41.6873 23.5757 41.3499 23.9233 40.9332 23.9233H39.5836V26.3467C39.5836 26.5717 39.663 26.7864 39.802 26.9602L40.953 28.3611C41.1713 28.6269 41.2805 28.9541 41.2805 29.2916V32.124C41.2805 32.7579 40.8538 33.1158 40.2386 33.1158V36.1118H49.8936L38.4524 38.3716H54.5177ZM4 50.0898H14.5183L18.1203 54.8139C18.6959 55.5705 19.5592 56 20.4919 56H41.6972C42.63 56 43.4933 55.5705 44.0688 54.8139L47.6708 50.0898H58.1891C58.1891 49.3024 57.564 48.6583 56.7999 48.6583H5.38921C4.62514 48.6583 4 49.3024 4 50.0898ZM43.146 54.0674C42.7987 54.5276 42.2728 54.7934 41.6972 54.7934H20.5018C19.9362 54.7934 19.4103 54.5276 19.0531 54.0674L16.0167 50.1H46.1725L43.146 54.0674Z" fill="black"/>
<path d="M37.8675 16.796C37.9865 16.6017 38.1453 16.4279 38.3338 16.295L40.7352 12.2662C37.8079 10.5791 34.4837 9.68945 31.1 9.68945C27.7163 9.68945 24.3921 10.5791 21.4648 12.2662L23.8662 16.295C24.0547 16.4279 24.2135 16.6017 24.3326 16.796C24.6005 16.6835 24.8883 16.6222 25.3348 16.6017C26.208 14.2806 28.5201 12.6855 31.1 12.6855C33.68 12.6855 35.992 14.2806 36.8652 16.6017C37.3118 16.6222 37.5995 16.6938 37.8675 16.796Z" fill="#FC060C"/>
<path d="M23.112 16.0193C23.0624 16.0091 23.0128 16.0091 22.9632 16.0091C22.5762 16.0091 22.2189 16.1727 21.951 16.459C21.6037 16.8373 21.4847 17.3179 21.5938 17.7985C21.6137 17.8701 21.6335 17.9417 21.6633 18.003H21.4053C20.8297 18.003 20.3534 18.4631 20.3038 19.0562C20.1451 19.1994 20.0359 19.4039 20.0359 19.6391V23.1463C20.0359 23.8416 20.5817 24.404 21.2564 24.404H22.1296V26.3468C22.1296 26.4593 22.09 26.5616 22.0304 26.6434L20.8794 28.0442C20.8297 28.1056 20.79 28.1567 20.7504 28.2283L16.801 25.539V16.2954C16.801 15.5285 17.2079 14.8127 17.8529 14.4242L20.8893 12.6245L23.112 16.0193ZM40.6161 17.8087C40.5962 17.8803 40.5764 17.9519 40.5466 18.0132H40.8046C41.3801 18.0132 41.8564 18.4734 41.9061 19.0664C42.0648 19.2096 42.174 19.4141 42.174 19.6493V23.1565C42.174 23.8519 41.6282 24.4143 40.9534 24.4143H40.0802V26.3571C40.0802 26.4695 40.1199 26.5718 40.1795 26.6536L41.3305 28.0544C41.3801 28.1158 41.4198 28.1669 41.4595 28.2385L45.4088 25.5493V16.3056C45.4088 15.5387 45.002 14.8229 44.357 14.4344L41.3206 12.6347L39.0979 16.0398C39.1475 16.0295 39.1971 16.0295 39.2467 16.0295C39.6337 16.0295 39.9909 16.1931 40.2588 16.4794C40.5962 16.8475 40.7252 17.3179 40.6161 17.8087Z" fill="#FF070A"/>
<path d="M20.5002 54.3027C20.0735 54.3027 19.6865 54.1085 19.4285 53.7608L16.9974 50.5808H45.2083L42.7772 53.7608C42.5192 54.0982 42.1222 54.3027 41.7055 54.3027H20.5002ZM8.66211 37.881H18.7637L10.0116 36.1529L8.66211 37.881ZM21.4726 33.5352V35.6212H12.2939L10.4383 35.6109L15.8265 28.7089C16.3722 28.0033 16.7096 27.1444 16.7791 26.2548L20.5597 28.6066C20.4803 28.8214 20.4307 29.0566 20.4307 29.302V32.1344C20.4307 32.8297 20.8376 33.3614 21.4726 33.5352ZM53.5336 37.881H43.4321L52.1841 36.1529L53.5336 37.881ZM49.9018 35.6212H40.7231V33.5352C41.3483 33.3614 41.765 32.8195 41.765 32.1139V29.2815C41.765 29.0463 41.7253 28.8111 41.636 28.5862L45.4167 26.2344C45.496 27.124 45.8235 27.9829 46.3693 28.6884L51.7574 35.5905L49.9018 35.6212Z" fill="#FF070A"/>
<path d="M4.5542 45.7589H5.41547V44.4016H6.93537V43.6707H5.41547V42.8353H7.442V42.1045H4.5542V45.7589ZM9.49865 45.8111C10.6338 45.8111 11.1965 45.2637 11.1965 44.0573L11.1911 42.1045H10.3298V44.2195C10.3298 44.798 10.0669 45.0802 9.49865 45.0802C8.93588 45.0802 8.66339 44.8093 8.66339 44.2195L8.65791 42.1045H7.79664V44.0573C7.79664 45.227 8.32792 45.8111 9.49865 45.8111ZM11.7032 45.7589H14.591V45.028H12.5645V44.2971H14.0843V43.5662H12.5645V42.8353H14.591V42.1045H11.7032V45.7589ZM15.0976 45.7589H17.9854V45.028H15.9589V42.1045H15.0976V45.7589ZM19.5053 45.7589H21.6688C22.4177 45.7589 22.7833 45.4034 22.7833 44.6104C22.7833 44.0982 22.6204 43.7595 22.3014 43.5931C22.4534 43.4364 22.53 43.2262 22.53 42.9666C22.53 42.4389 22.1946 42.1045 21.6934 42.1045H19.5053V45.7589ZM21.6688 45.028H20.3666V44.1927H21.6688C21.8454 44.1927 21.9221 44.3183 21.9221 44.6104C21.9221 44.8869 21.8454 45.028 21.6688 45.028ZM21.5003 43.4618H20.3666V42.8353H21.5003C21.6017 42.8353 21.6688 42.9666 21.6688 43.1486C21.6688 43.3363 21.5976 43.4618 21.5003 43.4618ZM24.992 45.8111C26.1271 45.8111 26.6885 45.2637 26.6885 44.0573L26.6844 42.1045H25.8231V44.2195C25.8231 44.798 25.5589 45.0802 24.992 45.0802C24.4292 45.0802 24.1554 44.8093 24.1554 44.2195L24.1512 42.1045H23.29V44.0573C23.29 45.227 23.8213 45.8111 24.992 45.8111ZM28.5631 44.3493V45.7589H29.4243V44.3493L30.7922 42.1045H29.8803L28.9944 43.5606L28.1071 42.1045H27.1951L28.5631 44.3493ZM31.2989 45.7589H34.1867V45.028H32.1601V44.2971H33.68V43.5662H32.1601V42.8353H34.1867V42.1045H31.2989V45.7589ZM34.6933 45.7589H35.5546V44.5582H36.1981L36.8718 45.7589H37.7837L37.0649 44.4749C37.5003 44.3183 37.718 43.9317 37.718 43.3207C37.718 42.5122 37.3237 42.1045 36.5322 42.1045H34.6933V45.7589ZM36.5281 43.8273H35.5546V42.8353H36.5281C36.7349 42.8353 36.8567 42.9976 36.8567 43.3264C36.8567 43.6608 36.7458 43.8273 36.5281 43.8273ZM39.8869 45.8111C40.7332 45.8111 41.1741 45.6235 41.3562 45.2834C41.4424 45.1113 41.4876 44.8926 41.4876 44.6203C41.4876 43.9105 41.1686 43.5662 40.2717 43.5662H39.8869C39.5323 43.5662 39.3297 43.5662 39.2283 43.4618C39.1818 43.4153 39.1571 43.332 39.1571 43.2163C39.1571 42.9821 39.2174 42.872 39.4255 42.8198C39.5268 42.793 39.6843 42.7831 39.8911 42.7831C40.1909 42.7831 40.3429 42.8099 40.4442 42.9708C40.4949 43.0498 40.5196 43.1754 40.5196 43.3363H41.3863C41.3863 42.3754 40.8797 42.0522 39.8911 42.0522C39.0462 42.0522 38.6053 42.2399 38.4273 42.58C38.3369 42.7521 38.2904 42.9708 38.2904 43.2431C38.2904 43.9529 38.6094 44.2971 39.5063 44.2971H39.8869C40.2265 44.2971 40.4442 44.3183 40.5497 44.4227C40.5962 44.4749 40.6209 44.5483 40.6209 44.6471C40.6209 44.8813 40.5606 44.9857 40.358 45.0379C40.2512 45.0647 40.0937 45.0802 39.8869 45.0802C39.5214 45.0802 39.3392 45.0492 39.2379 44.8926C39.1818 44.8136 39.1571 44.6936 39.1571 44.5271H38.2904C38.2904 45.1903 38.5396 45.5445 39.0051 45.6968C39.2324 45.7744 39.5268 45.8111 39.8869 45.8111ZM44.8369 45.8111C45.9912 45.8111 46.569 45.378 46.569 44.5116H45.7077C45.7077 44.8869 45.3024 45.0802 44.8369 45.0802C44.1824 45.0802 43.8688 44.736 43.8688 43.926C43.8688 43.1486 44.1632 42.7831 44.8369 42.7831C45.3284 42.7831 45.7132 42.9398 45.7132 43.3574H46.5745C46.5129 42.4854 45.8501 42.0522 44.8369 42.0522C43.6004 42.0522 43.0075 42.6265 43.0075 43.926C43.0075 45.2002 43.5648 45.8111 44.8369 45.8111ZM47.0811 45.7589H49.9689V45.028H47.9424V42.1045H47.0811V45.7589ZM52.1776 45.8111C53.3127 45.8111 53.8741 45.2637 53.8741 44.0573L53.87 42.1045H53.0087V44.2195C53.0087 44.798 52.7444 45.0802 52.1776 45.0802C51.6148 45.0802 51.3409 44.8093 51.3409 44.2195L51.3368 42.1045H50.4755V44.0573C50.4755 45.227 51.0068 45.8111 52.1776 45.8111ZM54.3807 45.7589H56.5442C57.2945 45.7589 57.6588 45.4034 57.6588 44.6104C57.6588 44.0982 57.4972 43.7595 57.1781 43.5931C57.3301 43.4364 57.4054 43.2262 57.4054 42.9666C57.4054 42.4389 57.0713 42.1045 56.5702 42.1045H54.3807V45.7589ZM56.5442 45.028H55.242V44.1927H56.5442C56.7222 44.1927 56.7975 44.3183 56.7975 44.6104C56.7975 44.8869 56.7222 45.028 56.5442 45.028ZM56.3771 43.4618H55.242V42.8353H56.3771C56.4784 42.8353 56.5442 42.9666 56.5442 43.1486C56.5442 43.3363 56.4743 43.4618 56.3771 43.4618Z" fill="black"/>
<path d="M20.9031 53.5353H22.464V53.1403H21.3686V52.7452H22.1902V52.3501H21.3686V51.955H22.464V51.56H20.9031V53.5353ZM24.5097 53.5636C24.9671 53.5636 25.2053 53.462 25.3039 53.2785C25.3505 53.1854 25.3751 53.0669 25.3751 52.9202C25.3751 52.5364 25.2026 52.3501 24.7179 52.3501H24.5097C24.318 52.3501 24.2085 52.3501 24.1537 52.2937C24.1291 52.2683 24.1154 52.2231 24.1154 52.161C24.1154 52.0341 24.1483 51.9748 24.2605 51.9466C24.3153 51.9325 24.4002 51.9268 24.5125 51.9268C24.6741 51.9268 24.7562 51.9409 24.811 52.0284C24.8384 52.0707 24.8521 52.1385 24.8521 52.2259H25.3204C25.3204 51.7067 25.0465 51.5317 24.5125 51.5317C24.0551 51.5317 23.8169 51.6333 23.721 51.8168C23.6717 51.9099 23.6471 52.0284 23.6471 52.1752C23.6471 52.5589 23.8196 52.7452 24.3044 52.7452H24.5097C24.6932 52.7452 24.811 52.7565 24.8685 52.8129C24.8931 52.8411 24.9068 52.8806 24.9068 52.9343C24.9068 53.0613 24.874 53.1177 24.7644 53.1459C24.7069 53.16 24.622 53.1685 24.5097 53.1685C24.3126 53.1685 24.214 53.1516 24.1592 53.0669C24.1291 53.0246 24.1154 52.9597 24.1154 52.8694H23.6471C23.6471 53.2278 23.7813 53.4196 24.0332 53.5015C24.1565 53.5438 24.3153 53.5636 24.5097 53.5636ZM27.1607 53.5353H27.6262V51.955H28.2287V51.56H26.5582V51.955H27.1607V53.5353ZM30.8714 53.1403L30.8687 53.5353H32.5419V53.1403H31.3397C31.3506 52.9173 31.4355 52.8299 31.6793 52.8299H31.8847C32.3694 52.8299 32.5419 52.6436 32.5419 52.2598V52.1752C32.5419 51.8817 32.4597 51.7039 32.2078 51.6051C32.0818 51.5571 31.9038 51.5317 31.6765 51.5317C31.1425 51.5317 30.8687 51.7067 30.8687 52.2259H31.3369C31.3369 52.0482 31.3972 51.9691 31.4876 51.9437C31.5341 51.9325 31.5971 51.9268 31.6765 51.9268C31.8764 51.9268 31.9997 51.9466 32.0435 52.0171C32.0627 52.0482 32.0736 52.0961 32.0736 52.161V52.2457C32.0736 52.3699 32.0216 52.415 31.923 52.4263C31.8737 52.432 31.7915 52.4348 31.6793 52.4348H31.5259C31.1014 52.4348 30.8906 52.6521 30.8714 53.1403ZM34.6588 53.5636C35.2859 53.5636 35.5872 53.2532 35.5872 52.5448C35.5872 51.8563 35.3051 51.5317 34.6588 51.5317C34.0262 51.5317 33.725 51.8422 33.725 52.5448C33.725 53.2334 34.0098 53.5636 34.6588 53.5636ZM34.1905 52.5448C34.1905 52.1244 34.3302 51.9268 34.6588 51.9268C34.9737 51.9268 35.1216 52.1159 35.1216 52.5448C35.1216 52.9653 34.9792 53.1685 34.6588 53.1685C34.3411 53.1685 34.1905 52.9766 34.1905 52.5448ZM36.773 53.1403L36.7702 53.5353H38.4435V53.1403H37.2413C37.2522 52.9173 37.3371 52.8299 37.5808 52.8299H37.7862C38.2709 52.8299 38.4435 52.6436 38.4435 52.2598V52.1752C38.4435 51.8817 38.3613 51.7039 38.1094 51.6051C37.9834 51.5571 37.8054 51.5317 37.5781 51.5317C37.0441 51.5317 36.7702 51.7067 36.7702 52.2259H37.2385C37.2385 52.0482 37.2988 51.9691 37.3891 51.9437C37.4357 51.9325 37.4987 51.9268 37.5781 51.9268C37.778 51.9268 37.9012 51.9466 37.9451 52.0171C37.9642 52.0482 37.9752 52.0961 37.9752 52.161V52.2457C37.9752 52.3699 37.9232 52.415 37.8246 52.4263C37.7753 52.432 37.6931 52.4348 37.5808 52.4348H37.4275C37.003 52.4348 36.7921 52.6521 36.773 53.1403ZM39.6265 52.6888V53.0838H40.6398V53.5353H41.1053V53.0838H41.297V52.6888H41.1053V51.56H40.4454L39.6265 52.6888ZM40.6398 52.6888H40.0921L40.6398 51.9325V52.6888Z" fill="white"/>
<path d="M80 43.8801V9.3201H100.808V15.1041H85.784V23.7201H97.928V29.4801H85.784V43.8801H80Z" fill="white"/>
<path d="M114.845 44.6241C112.925 44.6241 111.341 44.3041 110.093 43.6641C108.845 43.0241 107.853 42.2081 107.117 41.2161C106.381 40.2241 105.837 39.1681 105.485 38.0481C105.133 36.9281 104.901 35.8721 104.789 34.8801C104.693 33.8721 104.645 33.0561 104.645 32.4321V17.9601H110.501V30.4401C110.501 31.2401 110.557 32.1441 110.669 33.1521C110.781 34.1441 111.037 35.1041 111.437 36.0321C111.853 36.9441 112.461 37.6961 113.261 38.2881C114.077 38.8801 115.173 39.1761 116.549 39.1761C117.285 39.1761 118.013 39.0561 118.733 38.8161C119.453 38.5761 120.101 38.1681 120.677 37.5921C121.269 37.0001 121.741 36.1921 122.093 35.1681C122.445 34.1441 122.621 32.8481 122.621 31.2801L126.053 32.7441C126.053 34.9521 125.621 36.9521 124.757 38.7441C123.909 40.5361 122.653 41.9681 120.989 43.0401C119.325 44.0961 117.277 44.6241 114.845 44.6241ZM123.317 43.8801V35.8401H122.621V17.9601H128.429V43.8801H123.317Z" fill="white"/>
<path d="M146.956 44.6001C144.332 44.6001 142.028 44.0321 140.044 42.8961C138.06 41.7601 136.508 40.1841 135.388 38.1681C134.284 36.1521 133.732 33.8321 133.732 31.2081C133.732 28.3761 134.276 25.9201 135.364 23.8401C136.452 21.7441 137.964 20.1201 139.9 18.9681C141.836 17.8161 144.076 17.2401 146.62 17.2401C149.308 17.2401 151.588 17.8721 153.46 19.1361C155.348 20.3841 156.748 22.1521 157.66 24.4401C158.572 26.7281 158.916 29.4241 158.692 32.5281H152.956V30.4161C152.94 27.6001 152.444 25.5441 151.468 24.2481C150.492 22.9521 148.956 22.3041 146.86 22.3041C144.492 22.3041 142.732 23.0401 141.58 24.5121C140.428 25.9681 139.852 28.1041 139.852 30.9201C139.852 33.5441 140.428 35.5761 141.58 37.0161C142.732 38.4561 144.412 39.1761 146.62 39.1761C148.044 39.1761 149.268 38.8641 150.292 38.2401C151.332 37.6001 152.132 36.6801 152.692 35.4801L158.404 37.2081C157.412 39.5441 155.876 41.3601 153.796 42.6561C151.732 43.9521 149.452 44.6001 146.956 44.6001ZM138.028 32.5281V28.1601H155.86V32.5281H138.028Z" fill="white"/>
<path d="M164.527 43.8801V8.6001H170.311V43.8801H164.527Z" fill="white"/>
<path d="M187.109 43.8801V9.3201H200.813C203.149 9.3201 205.061 9.7921 206.549 10.7361C208.053 11.6641 209.165 12.8561 209.885 14.3121C210.621 15.7681 210.989 17.2721 210.989 18.8241C210.989 20.7281 210.533 22.3441 209.621 23.6721C208.725 25.0001 207.501 25.8961 205.949 26.3601V25.1601C208.125 25.6561 209.773 26.6881 210.893 28.2561C212.029 29.8241 212.597 31.6081 212.597 33.6081C212.597 35.6561 212.205 37.4481 211.421 38.9841C210.637 40.5201 209.469 41.7201 207.917 42.5841C206.381 43.4481 204.477 43.8801 202.205 43.8801H187.109ZM192.965 38.4321H201.485C202.493 38.4321 203.397 38.2321 204.197 37.8321C204.997 37.4161 205.621 36.8401 206.069 36.1041C206.533 35.3521 206.765 34.4641 206.765 33.4401C206.765 32.5121 206.565 31.6801 206.165 30.9441C205.765 30.2081 205.181 29.6241 204.413 29.1921C203.645 28.7441 202.725 28.5201 201.653 28.5201H192.965V38.4321ZM192.965 23.1201H200.741C201.573 23.1201 202.317 22.9601 202.973 22.6401C203.629 22.3201 204.149 21.8481 204.533 21.2241C204.917 20.6001 205.109 19.8321 205.109 18.9201C205.109 17.7201 204.725 16.7201 203.957 15.9201C203.189 15.1201 202.117 14.7201 200.741 14.7201H192.965V23.1201Z" fill="white"/>
<path d="M227.111 44.6241C225.191 44.6241 223.607 44.3041 222.359 43.6641C221.111 43.0241 220.119 42.2081 219.383 41.2161C218.647 40.2241 218.103 39.1681 217.751 38.0481C217.399 36.9281 217.167 35.8721 217.055 34.8801C216.959 33.8721 216.911 33.0561 216.911 32.4321V17.9601H222.767V30.4401C222.767 31.2401 222.823 32.1441 222.935 33.1521C223.047 34.1441 223.303 35.1041 223.703 36.0321C224.119 36.9441 224.727 37.6961 225.527 38.2881C226.343 38.8801 227.439 39.1761 228.815 39.1761C229.551 39.1761 230.279 39.0561 230.999 38.8161C231.719 38.5761 232.367 38.1681 232.943 37.5921C233.535 37.0001 234.007 36.1921 234.359 35.1681C234.711 34.1441 234.887 32.8481 234.887 31.2801L238.319 32.7441C238.319 34.9521 237.887 36.9521 237.023 38.7441C236.175 40.5361 234.919 41.9681 233.255 43.0401C231.591 44.0961 229.543 44.6241 227.111 44.6241ZM235.583 43.8801V35.8401H234.887V17.9601H240.695V43.8801H235.583Z" fill="white"/>
<path d="M250.846 55.4001L255.837 41.6961L255.934 45.7281L244.63 17.9601H250.654L258.669 38.5041H257.133L264.934 17.9601H270.717L256.27 55.4001H250.846Z" fill="white"/>
<path d="M285.143 44.6001C282.519 44.6001 280.215 44.0321 278.231 42.8961C276.247 41.7601 274.695 40.1841 273.575 38.1681C272.471 36.1521 271.919 33.8321 271.919 31.2081C271.919 28.3761 272.463 25.9201 273.551 23.8401C274.639 21.7441 276.151 20.1201 278.087 18.9681C280.023 17.8161 282.263 17.2401 284.807 17.2401C287.495 17.2401 289.775 17.8721 291.647 19.1361C293.535 20.3841 294.935 22.1521 295.847 24.4401C296.759 26.7281 297.103 29.4241 296.879 32.5281H291.143V30.4161C291.127 27.6001 290.631 25.5441 289.655 24.2481C288.679 22.9521 287.143 22.3041 285.047 22.3041C282.679 22.3041 280.919 23.0401 279.767 24.5121C278.615 25.9681 278.039 28.1041 278.039 30.9201C278.039 33.5441 278.615 35.5761 279.767 37.0161C280.919 38.4561 282.599 39.1761 284.807 39.1761C286.231 39.1761 287.455 38.8641 288.479 38.2401C289.519 37.6001 290.319 36.6801 290.879 35.4801L296.591 37.2081C295.599 39.5441 294.063 41.3601 291.983 42.6561C289.919 43.9521 287.639 44.6001 285.143 44.6001ZM276.215 32.5281V28.1601H294.047V32.5281H276.215Z" fill="white"/>
<path d="M302.234 43.8801V17.9601H307.346V24.2721L306.722 23.4561C307.042 22.5921 307.466 21.8081 307.994 21.1041C308.538 20.3841 309.186 19.7921 309.938 19.3281C310.578 18.8961 311.282 18.5601 312.05 18.3201C312.834 18.0641 313.634 17.9121 314.45 17.8641C315.266 17.8001 316.058 17.8321 316.826 17.9601V23.3601C316.058 23.1361 315.17 23.0641 314.162 23.1441C313.17 23.2241 312.274 23.5041 311.474 23.9841C310.674 24.4161 310.018 24.9681 309.506 25.6401C309.01 26.3121 308.642 27.0801 308.402 27.9441C308.162 28.7921 308.042 29.7121 308.042 30.7041V43.8801H302.234Z" fill="white"/>
<path d="M322.126 21.6081L322.462 19.1121C323.198 19.1761 323.782 19.0561 324.214 18.7521C324.646 18.4321 324.934 17.9921 325.078 17.4321C325.238 16.8561 325.278 16.2081 325.198 15.4881H322.126V9.3201H328.054V15.7281C328.054 17.8241 327.558 19.4081 326.566 20.4801C325.574 21.5521 324.094 21.9281 322.126 21.6081Z" fill="white"/>
<path d="M341.211 44.6001C338.011 44.6001 335.411 43.8801 333.411 42.4401C331.411 41.0001 330.195 38.9761 329.763 36.3681L335.667 35.4561C335.971 36.7361 336.643 37.7441 337.683 38.4801C338.723 39.2161 340.035 39.5841 341.619 39.5841C343.011 39.5841 344.083 39.3121 344.835 38.7681C345.603 38.2081 345.987 37.4481 345.987 36.4881C345.987 35.8961 345.843 35.4241 345.555 35.0721C345.283 34.7041 344.675 34.3521 343.731 34.0161C342.787 33.6801 341.339 33.2561 339.387 32.7441C337.211 32.1681 335.483 31.5521 334.203 30.8961C332.923 30.2241 332.003 29.4321 331.443 28.5201C330.883 27.6081 330.603 26.5041 330.603 25.2081C330.603 23.5921 331.027 22.1841 331.875 20.9841C332.723 19.7841 333.907 18.8641 335.427 18.2241C336.947 17.5681 338.739 17.2401 340.803 17.2401C342.819 17.2401 344.603 17.5521 346.155 18.1761C347.723 18.8001 348.987 19.6881 349.947 20.8401C350.907 21.9921 351.499 23.3441 351.723 24.8961L345.819 25.9521C345.675 24.8481 345.171 23.9761 344.307 23.3361C343.459 22.6961 342.323 22.3361 340.899 22.2561C339.539 22.1761 338.443 22.3841 337.611 22.8801C336.779 23.3601 336.363 24.0401 336.363 24.9201C336.363 25.4161 336.531 25.8401 336.867 26.1921C337.203 26.5441 337.875 26.8961 338.883 27.2481C339.907 27.6001 341.427 28.0321 343.443 28.5441C345.507 29.0721 347.155 29.6801 348.387 30.3681C349.635 31.0401 350.531 31.8481 351.075 32.7921C351.635 33.7361 351.915 34.8801 351.915 36.2241C351.915 38.8321 350.963 40.8801 349.059 42.3681C347.171 43.8561 344.555 44.6001 341.211 44.6001Z" fill="white"/>
<path d="M381.397 44.6001C377.941 44.6001 374.981 43.8481 372.517 42.3441C370.053 40.8241 368.157 38.7121 366.829 36.0081C365.517 33.3041 364.861 30.1681 364.861 26.6001C364.861 23.0321 365.517 19.8961 366.829 17.1921C368.157 14.4881 370.053 12.3841 372.517 10.8801C374.981 9.3601 377.941 8.6001 381.397 8.6001C385.381 8.6001 388.701 9.6001 391.357 11.6001C394.013 13.5841 395.877 16.2641 396.949 19.6401L391.117 21.2481C390.445 18.9921 389.301 17.2321 387.685 15.9681C386.069 14.6881 383.973 14.0481 381.397 14.0481C379.077 14.0481 377.141 14.5681 375.589 15.6081C374.053 16.6481 372.893 18.1121 372.109 20.0001C371.341 21.8721 370.949 24.0721 370.933 26.6001C370.933 29.1281 371.317 31.3361 372.085 33.2241C372.869 35.0961 374.037 36.5521 375.589 37.5921C377.141 38.6321 379.077 39.1521 381.397 39.1521C383.973 39.1521 386.069 38.5121 387.685 37.2321C389.301 35.9521 390.445 34.1921 391.117 31.9521L396.949 33.5601C395.877 36.9361 394.013 39.6241 391.357 41.6241C388.701 43.6081 385.381 44.6001 381.397 44.6001Z" fill="white"/>
<path d="M402.699 43.8801V8.6001H408.483V43.8801H402.699Z" fill="white"/>
<path d="M425.392 44.6241C423.472 44.6241 421.888 44.3041 420.64 43.6641C419.392 43.0241 418.4 42.2081 417.664 41.2161C416.928 40.2241 416.384 39.1681 416.032 38.0481C415.68 36.9281 415.448 35.8721 415.336 34.8801C415.24 33.8721 415.192 33.0561 415.192 32.4321V17.9601H421.048V30.4401C421.048 31.2401 421.104 32.1441 421.216 33.1521C421.328 34.1441 421.584 35.1041 421.984 36.0321C422.4 36.9441 423.008 37.6961 423.808 38.2881C424.624 38.8801 425.72 39.1761 427.096 39.1761C427.832 39.1761 428.56 39.0561 429.28 38.8161C430 38.5761 430.648 38.1681 431.224 37.5921C431.816 37.0001 432.288 36.1921 432.64 35.1681C432.992 34.1441 433.168 32.8481 433.168 31.2801L436.6 32.7441C436.6 34.9521 436.168 36.9521 435.304 38.7441C434.456 40.5361 433.2 41.9681 431.536 43.0401C429.872 44.0961 427.824 44.6241 425.392 44.6241ZM433.864 43.8801V35.8401H433.168V17.9601H438.976V43.8801H433.864Z" fill="white"/>
<path d="M458.175 44.6001C455.647 44.6001 453.527 44.0001 451.815 42.8001C450.103 41.6001 448.815 39.9681 447.951 37.9041C447.087 35.8241 446.655 33.4961 446.655 30.9201C446.655 28.3121 447.087 25.9761 447.951 23.9121C448.815 21.8481 450.079 20.2241 451.743 19.0401C453.423 17.8401 455.495 17.2401 457.959 17.2401C460.407 17.2401 462.527 17.8401 464.319 19.0401C466.127 20.2241 467.527 21.8481 468.519 23.9121C469.511 25.9601 470.007 28.2961 470.007 30.9201C470.007 33.5121 469.519 35.8401 468.543 37.9041C467.567 39.9681 466.191 41.6001 464.415 42.8001C462.639 44.0001 460.559 44.6001 458.175 44.6001ZM445.671 43.8801V9.3201H451.503V25.6881H450.783V43.8801H445.671ZM457.287 39.4161C458.791 39.4161 460.031 39.0401 461.007 38.2881C461.983 37.5361 462.703 36.5201 463.167 35.2401C463.647 33.9441 463.887 32.5041 463.887 30.9201C463.887 29.3521 463.647 27.9281 463.167 26.6481C462.687 25.3521 461.943 24.3281 460.935 23.5761C459.927 22.8081 458.647 22.4241 457.095 22.4241C455.623 22.4241 454.423 22.7841 453.495 23.5041C452.567 24.2081 451.879 25.2001 451.431 26.4801C450.999 27.7441 450.783 29.2241 450.783 30.9201C450.783 32.6001 450.999 34.0801 451.431 35.3601C451.879 36.6401 452.575 37.6401 453.519 38.3601C454.479 39.0641 455.735 39.4161 457.287 39.4161Z" fill="white"/>
</svg>
