<svg width="325" height="65" viewBox="0 0 325 65" fill="none" xmlns="http://www.w3.org/2000/svg">
<rect y="0.25" width="64" height="64" rx="8" fill="white"/>
<path d="M26.922 31.4026H35.2771L35.2572 31.4742C35.1679 31.8423 34.8504 32.0979 34.4833 32.0979H27.7158C27.3487 32.0979 27.0311 31.8423 26.9418 31.4742L26.922 31.4026ZM26.6938 30.4619L25.3641 24.8891C25.2946 24.5823 25.1061 24.3165 24.858 24.1324L24.1336 23.6109C23.9848 23.4984 23.8955 23.3144 23.9153 23.1303C23.9947 22.3328 24.213 20.2161 24.3122 19.6435C24.4313 18.938 24.7191 18.6005 25.5526 18.6005C26.3762 18.6005 31.1095 18.6005 31.1095 18.6005C31.1095 18.6005 35.8427 18.6005 36.6663 18.6005C37.4899 18.6005 37.7876 18.938 37.9067 19.6435C38.0059 20.2161 38.2242 22.3328 38.3036 23.1303C38.3234 23.3246 38.244 23.5087 38.0853 23.6109L37.3609 24.1324C37.1128 24.3165 36.9243 24.5823 36.8548 24.8891L35.5252 30.4516C35.4359 30.8197 35.1183 31.0754 34.7512 31.0754H27.4975C27.1105 31.0856 26.7831 30.83 26.6938 30.4619ZM24.5107 22.6088C24.8977 22.0567 26.8327 19.7458 31.3079 19.1322H25.2649C25.0565 19.1322 24.8878 19.2856 24.858 19.5004C24.7786 20.2366 24.5802 21.8522 24.5107 22.6088ZM26.019 24.2347C26.2274 24.3676 26.4655 24.4392 26.7037 24.4392H35.4855C35.7335 24.4392 35.9717 24.3676 36.1702 24.2347L37.6189 23.2735C37.7082 23.2121 37.6884 23.0792 37.5891 23.0485C36.1503 22.6804 32.2109 22.6191 31.0896 22.6191C29.9683 22.6191 26.0289 22.6804 24.5901 23.0485C24.4909 23.0792 24.471 23.2121 24.5603 23.2735L26.019 24.2347ZM26.6441 25.9627H29.3134C29.5416 25.9627 29.7699 26.0241 29.9683 26.1366C30.2263 26.2695 30.6332 26.3615 31.0995 26.3615C31.5659 26.3615 31.9728 26.2695 32.2307 26.1366C32.4391 26.0241 32.6574 25.9627 32.8857 25.9627H35.5549C35.6442 25.9627 35.7038 25.8912 35.7038 25.8094C35.7038 25.7173 35.6343 25.6457 35.5549 25.6457H32.8857C32.6574 25.6457 32.4292 25.5844 32.2307 25.4719C31.9728 25.339 31.5659 25.247 31.0995 25.247C30.6332 25.247 30.2263 25.339 29.9683 25.4719C29.7599 25.5844 29.5416 25.6457 29.3134 25.6457H26.6441C26.5548 25.6457 26.4953 25.7173 26.4953 25.8094C26.4854 25.8912 26.5548 25.9627 26.6441 25.9627ZM58.1991 38.6216C58.1991 39.409 57.5739 40.0532 56.8099 40.0532H42.0247L34.2352 40.1145H34.1756L31.0995 40.135L28.0234 40.1145H27.9639L20.1744 40.0532H5.38921C4.62514 40.0532 4 39.409 4 38.6216H6.17312L14.5382 27.8851C14.9351 27.384 15.1534 26.7501 15.1534 26.0957V16.535C15.1534 15.1546 15.8678 13.8765 17.0288 13.1914L20.4026 11.1872C27.0014 7.27093 35.2076 7.27093 41.8064 11.1872L45.1802 13.1914C46.3412 13.8765 47.0556 15.1546 47.0556 16.535V26.0957C47.0556 26.7399 47.2739 27.384 47.6708 27.8851L56.0359 38.6216H58.1991ZM36.7755 33.8055H35.0588C35.0588 33.9896 34.9893 34.1634 34.8702 34.2861C34.7512 34.4088 34.5825 34.4804 34.4039 34.4804H27.8051C27.6265 34.4804 27.4578 34.3986 27.3387 34.2861C27.2197 34.1634 27.1502 33.9896 27.1502 33.8055H25.4335V35.7381L26.0785 35.0735H36.1305L36.7755 35.7381V33.8055ZM38.0059 31.7093H36.0015L36.5671 30.3903C36.6861 30.1142 36.9044 29.8995 37.1823 29.8074L39.9409 28.8156C40.1393 28.744 40.2088 28.4986 40.0798 28.335L39.4348 27.4965C39.276 27.292 38.9982 27.2102 38.76 27.3125L37.9166 27.6601L38.125 25.7378C38.1448 25.5742 38.2044 25.4208 38.2937 25.2879L38.8791 24.4801C39.018 24.2858 39.0776 24.0404 39.0577 23.8052C38.9387 22.7622 38.6211 19.8378 38.5616 19.2447C38.4921 18.5085 37.8769 17.8848 36.9045 17.8848C35.9419 17.8848 31.0995 17.8848 31.0995 17.8848C31.0995 17.8848 26.2671 17.8848 25.2946 17.8848C24.3222 17.8848 23.7169 18.5187 23.6375 19.2447C23.5779 19.8378 23.2505 22.7622 23.1413 23.8052C23.1116 24.0404 23.181 24.2858 23.32 24.4801L23.9054 25.2879C24.0046 25.4208 24.0543 25.5742 24.0741 25.7378L24.2825 27.6601L23.439 27.3125C23.2009 27.2102 22.923 27.292 22.7643 27.4965L22.1193 28.335C21.9903 28.4986 22.0597 28.744 22.2582 28.8156L25.0168 29.8074C25.2946 29.9097 25.5129 30.1142 25.632 30.3903L26.1976 31.7093H24.1932C24.4016 32.3229 25.1855 33.2431 26.2671 33.2431H35.9419C37.0235 33.2431 37.7975 32.3229 38.0059 31.7093ZM23.0322 29.5825C23.0322 29.5723 23.0322 29.562 23.0322 29.5416L22.4666 29.3268C22.4467 29.4086 22.4467 29.4905 22.4467 29.5825C22.4467 30.2982 23.0024 30.8709 23.697 30.8709C24.1634 30.8709 24.5802 30.605 24.7885 30.2062L24.2229 29.9915C24.1039 30.1551 23.9153 30.2676 23.697 30.2676C23.3299 30.2573 23.0322 29.9608 23.0322 29.5825ZM22.0994 20.2059V22.7622C22.0994 23.0792 21.8514 23.3348 21.5437 23.3348H21.1468C21.1468 23.5393 21.3056 23.7029 21.5041 23.7029H22.7147V19.2856H21.5041C21.4048 19.2856 21.3254 19.3265 21.256 19.3879C21.1964 19.4492 21.1568 19.5413 21.1568 19.6435H21.5338C21.8514 19.6435 22.0994 19.8889 22.0994 20.2059ZM30.3553 17.3326L30.5935 16.218C30.6232 16.0953 30.7225 16.0135 30.8515 16.0135H31.3377C31.4568 16.0135 31.5659 16.0953 31.5957 16.218L31.8338 17.3326H35.4656C34.4833 15.3387 32.7765 14.5207 31.0896 14.5207C29.4027 14.5207 27.696 15.3489 26.7136 17.3326H30.3553ZM40.0996 22.7622V20.2059C40.0996 19.8889 40.3477 19.6333 40.6553 19.6333H41.0324C41.0324 19.531 40.9927 19.4492 40.9332 19.3777C40.8736 19.3163 40.7843 19.2754 40.6851 19.2754H39.4745V23.6927H40.6851C40.8835 23.6927 41.0423 23.5291 41.0423 23.3246H40.6454C40.3477 23.3348 40.0996 23.0792 40.0996 22.7622ZM39.1669 29.5825C39.1669 29.9608 38.8692 30.2573 38.512 30.2573C38.2937 30.2573 38.1051 30.1449 37.9861 29.9813L37.4204 30.196C37.6288 30.5948 38.0456 30.8606 38.512 30.8606C39.1966 30.8606 39.7623 30.288 39.7623 29.5723C39.7623 29.4905 39.7523 29.3984 39.7424 29.3166L39.1768 29.5314C39.157 29.562 39.1669 29.5723 39.1669 29.5825ZM54.5177 38.6216L46.7381 28.652C46.1725 27.9362 45.8649 27.0262 45.8649 26.1059V16.5453C45.8649 15.6045 45.3687 14.7252 44.5749 14.2548L41.2011 12.2506C34.9596 8.54909 27.2197 8.54909 20.9781 12.2506L17.6043 14.2548C16.8105 14.7252 16.3144 15.6045 16.3144 16.5453V26.1059C16.3144 27.0262 16.0068 27.9362 15.4411 28.652L7.68141 38.6216H23.7268L12.2856 36.3618H21.9407V33.3658C21.3254 33.3658 20.8988 32.9977 20.8988 32.374V29.5416C20.8988 29.2041 21.0178 28.8667 21.2262 28.6111L22.3773 27.2102C22.5162 27.0364 22.5956 26.8217 22.5956 26.5967V24.1733H21.2461C20.8293 24.1733 20.4919 23.8256 20.4919 23.3962V19.8889C20.4919 19.7355 20.611 19.6231 20.7499 19.6231V19.3981C20.7499 19.0402 21.0278 18.7437 21.385 18.7437H22.7147C22.1987 18.5494 21.6827 17.7109 22.278 17.0361C22.8833 16.3612 24.0046 16.944 24.0543 17.7212C24.5306 17.4553 24.7885 17.3224 25.6618 17.3224C26.3663 15.0012 28.6089 13.4163 31.0896 13.4163C33.5703 13.4163 35.803 15.0115 36.5175 17.3224C37.3907 17.3224 37.6487 17.4451 38.125 17.7212C38.1746 16.944 39.2959 16.3612 39.9012 17.0361C40.5065 17.7109 39.9905 18.5494 39.4646 18.7437H40.7942C41.1415 18.7437 41.4293 19.03 41.4293 19.3981V19.6231C41.5782 19.6231 41.6873 19.7458 41.6873 19.8889V23.3962C41.6873 23.8256 41.3499 24.1733 40.9332 24.1733H39.5836V26.5967C39.5836 26.8217 39.663 27.0364 39.8019 27.2102L40.953 28.6111C41.1713 28.8769 41.2805 29.2041 41.2805 29.5416V32.374C41.2805 33.0079 40.8538 33.3658 40.2386 33.3658V36.3618H49.8936L38.4524 38.6216H54.5177ZM4 50.3398H14.5183L18.1203 55.0639C18.6959 55.8205 19.5592 56.25 20.4919 56.25H41.6972C42.63 56.25 43.4933 55.8205 44.0688 55.0639L47.6708 50.3398H58.1891C58.1891 49.5524 57.564 48.9083 56.7999 48.9083H5.38921C4.62514 48.9083 4 49.5524 4 50.3398ZM43.146 54.3174C42.7987 54.7776 42.2728 55.0434 41.6972 55.0434H20.5018C19.9362 55.0434 19.4103 54.7776 19.0531 54.3174L16.0167 50.35H46.1725L43.146 54.3174Z" fill="black"/>
<path d="M37.8675 17.046C37.9865 16.8517 38.1453 16.6779 38.3338 16.545L40.7352 12.5162C37.8079 10.8291 34.4837 9.93945 31.1 9.93945C27.7163 9.93945 24.3921 10.8291 21.4648 12.5162L23.8662 16.545C24.0547 16.6779 24.2135 16.8517 24.3326 17.046C24.6005 16.9335 24.8883 16.8722 25.3348 16.8517C26.208 14.5306 28.5201 12.9355 31.1 12.9355C33.68 12.9355 35.992 14.5306 36.8652 16.8517C37.3118 16.8722 37.5995 16.9438 37.8675 17.046Z" fill="#FC060C"/>
<path d="M23.112 16.2693C23.0624 16.2591 23.0128 16.2591 22.9632 16.2591C22.5762 16.2591 22.2189 16.4227 21.951 16.709C21.6037 17.0873 21.4847 17.5679 21.5938 18.0485C21.6137 18.1201 21.6335 18.1917 21.6633 18.253H21.4053C20.8297 18.253 20.3534 18.7131 20.3038 19.3062C20.1451 19.4494 20.0359 19.6539 20.0359 19.889V23.3963C20.0359 24.0916 20.5817 24.654 21.2564 24.654H22.1296V26.5968C22.1296 26.7093 22.09 26.8116 22.0304 26.8934L20.8794 28.2942C20.8297 28.3556 20.79 28.4067 20.7504 28.4783L16.801 25.789V16.5454C16.801 15.7785 17.2079 15.0627 17.8529 14.6742L20.8893 12.8745L23.112 16.2693ZM40.6161 18.0587C40.5962 18.1303 40.5764 18.2019 40.5466 18.2632H40.8046C41.3801 18.2632 41.8564 18.7234 41.906 19.3164C42.0648 19.4596 42.174 19.6641 42.174 19.8993V23.4065C42.174 24.1019 41.6282 24.6643 40.9534 24.6643H40.0802V26.6071C40.0802 26.7195 40.1199 26.8218 40.1795 26.9036L41.3305 28.3044C41.3801 28.3658 41.4198 28.4169 41.4595 28.4885L45.4088 25.7993V16.5556C45.4088 15.7887 45.002 15.0729 44.357 14.6844L41.3206 12.8847L39.0979 16.2898C39.1475 16.2795 39.1971 16.2795 39.2467 16.2795C39.6337 16.2795 39.9909 16.4431 40.2588 16.7294C40.5962 17.0975 40.7252 17.5679 40.6161 18.0587Z" fill="#FF070A"/>
<path d="M20.5002 54.5527C20.0735 54.5527 19.6865 54.3585 19.4285 54.0108L16.9974 50.8308H45.2083L42.7772 54.0108C42.5192 54.3482 42.1222 54.5527 41.7055 54.5527H20.5002ZM8.66211 38.131H18.7637L10.0116 36.4029L8.66211 38.131ZM21.4726 33.7852V35.8712H12.2939L10.4383 35.8609L15.8265 28.9589C16.3722 28.2533 16.7096 27.3944 16.7791 26.5048L20.5597 28.8566C20.4803 29.0714 20.4307 29.3066 20.4307 29.552V32.3844C20.4307 33.0797 20.8376 33.6114 21.4726 33.7852ZM53.5336 38.131H43.4321L52.1841 36.4029L53.5336 38.131ZM49.9018 35.8712H40.7231V33.7852C41.3483 33.6114 41.765 33.0695 41.765 32.3639V29.5315C41.765 29.2963 41.7253 29.0611 41.636 28.8362L45.4167 26.4844C45.496 27.374 45.8235 28.2329 46.3693 28.9384L51.7574 35.8405L49.9018 35.8712Z" fill="#FF070A"/>
<path d="M4.5542 46.0089H5.41547V44.6516H6.93537V43.9207H5.41547V43.0853H7.442V42.3545H4.5542V46.0089ZM9.49865 46.0611C10.6338 46.0611 11.1965 45.5137 11.1965 44.3073L11.1911 42.3545H10.3298V44.4695C10.3298 45.048 10.0669 45.3302 9.49865 45.3302C8.93588 45.3302 8.66339 45.0593 8.66339 44.4695L8.65791 42.3545H7.79664V44.3073C7.79664 45.477 8.32792 46.0611 9.49865 46.0611ZM11.7032 46.0089H14.591V45.278H12.5645V44.5471H14.0843V43.8162H12.5645V43.0853H14.591V42.3545H11.7032V46.0089ZM15.0976 46.0089H17.9854V45.278H15.9589V42.3545H15.0976V46.0089ZM19.5053 46.0089H21.6688C22.4177 46.0089 22.7833 45.6534 22.7833 44.8604C22.7833 44.3482 22.6204 44.0095 22.3014 43.8431C22.4533 43.6864 22.53 43.4762 22.53 43.2166C22.53 42.6889 22.1946 42.3545 21.6934 42.3545H19.5053V46.0089ZM21.6688 45.278H20.3666V44.4427H21.6688C21.8454 44.4427 21.9221 44.5683 21.9221 44.8604C21.9221 45.1369 21.8454 45.278 21.6688 45.278ZM21.5003 43.7118H20.3666V43.0853H21.5003C21.6017 43.0853 21.6688 43.2166 21.6688 43.3986C21.6688 43.5863 21.5976 43.7118 21.5003 43.7118ZM24.992 46.0611C26.1271 46.0611 26.6885 45.5137 26.6885 44.3073L26.6844 42.3545H25.8231V44.4695C25.8231 45.048 25.5589 45.3302 24.992 45.3302C24.4292 45.3302 24.1554 45.0593 24.1554 44.4695L24.1512 42.3545H23.29V44.3073C23.29 45.477 23.8213 46.0611 24.992 46.0611ZM28.563 44.5993V46.0089H29.4243V44.5993L30.7922 42.3545H29.8803L28.9944 43.8106L28.1071 42.3545H27.1951L28.563 44.5993ZM31.2989 46.0089H34.1867V45.278H32.1601V44.5471H33.68V43.8162H32.1601V43.0853H34.1867V42.3545H31.2989V46.0089ZM34.6933 46.0089H35.5546V44.8082H36.1981L36.8718 46.0089H37.7837L37.0649 44.7249C37.5003 44.5683 37.718 44.1817 37.718 43.5707C37.718 42.7622 37.3237 42.3545 36.5322 42.3545H34.6933V46.0089ZM36.5281 44.0773H35.5546V43.0853H36.5281C36.7349 43.0853 36.8567 43.2476 36.8567 43.5764C36.8567 43.9108 36.7458 44.0773 36.5281 44.0773ZM39.8869 46.0611C40.7332 46.0611 41.1741 45.8735 41.3562 45.5334C41.4424 45.3613 41.4876 45.1426 41.4876 44.8703C41.4876 44.1605 41.1686 43.8162 40.2717 43.8162H39.8869C39.5323 43.8162 39.3296 43.8162 39.2283 43.7118C39.1818 43.6653 39.1571 43.582 39.1571 43.4663C39.1571 43.2321 39.2174 43.122 39.4255 43.0698C39.5268 43.043 39.6843 43.0331 39.8911 43.0331C40.1909 43.0331 40.3429 43.0599 40.4442 43.2208C40.4949 43.2998 40.5195 43.4254 40.5195 43.5863H41.3863C41.3863 42.6254 40.8797 42.3022 39.8911 42.3022C39.0462 42.3022 38.6053 42.4899 38.4273 42.83C38.3369 43.0021 38.2904 43.2208 38.2904 43.4931C38.2904 44.2029 38.6094 44.5471 39.5063 44.5471H39.8869C40.2265 44.5471 40.4442 44.5683 40.5497 44.6727C40.5962 44.7249 40.6209 44.7983 40.6209 44.8971C40.6209 45.1313 40.5606 45.2357 40.358 45.2879C40.2512 45.3147 40.0937 45.3302 39.8869 45.3302C39.5213 45.3302 39.3392 45.2992 39.2379 45.1426C39.1818 45.0636 39.1571 44.9436 39.1571 44.7771H38.2904C38.2904 45.4403 38.5396 45.7945 39.0051 45.9468C39.2324 46.0244 39.5268 46.0611 39.8869 46.0611ZM44.8369 46.0611C45.9912 46.0611 46.569 45.628 46.569 44.7616H45.7077C45.7077 45.1369 45.3024 45.3302 44.8369 45.3302C44.1824 45.3302 43.8688 44.986 43.8688 44.176C43.8688 43.3986 44.1632 43.0331 44.8369 43.0331C45.3284 43.0331 45.7132 43.1898 45.7132 43.6074H46.5745C46.5129 42.7354 45.8501 42.3022 44.8369 42.3022C43.6004 42.3022 43.0075 42.8765 43.0075 44.176C43.0075 45.4502 43.5648 46.0611 44.8369 46.0611ZM47.0811 46.0089H49.9689V45.278H47.9424V42.3545H47.0811V46.0089ZM52.1775 46.0611C53.3127 46.0611 53.8741 45.5137 53.8741 44.3073L53.87 42.3545H53.0087V44.4695C53.0087 45.048 52.7444 45.3302 52.1775 45.3302C51.6148 45.3302 51.3409 45.0593 51.3409 44.4695L51.3368 42.3545H50.4755V44.3073C50.4755 45.477 51.0068 46.0611 52.1775 46.0611ZM54.3807 46.0089H56.5442C57.2945 46.0089 57.6587 45.6534 57.6587 44.8604C57.6587 44.3482 57.4972 44.0095 57.1781 43.8431C57.3301 43.6864 57.4054 43.4762 57.4054 43.2166C57.4054 42.6889 57.0713 42.3545 56.5702 42.3545H54.3807V46.0089ZM56.5442 45.278H55.242V44.4427H56.5442C56.7222 44.4427 56.7975 44.5683 56.7975 44.8604C56.7975 45.1369 56.7222 45.278 56.5442 45.278ZM56.3771 43.7118H55.242V43.0853H56.3771C56.4784 43.0853 56.5442 43.2166 56.5442 43.3986C56.5442 43.5863 56.4743 43.7118 56.3771 43.7118Z" fill="black"/>
<path d="M20.9031 53.7853H22.464V53.3903H21.3686V52.9952H22.1902V52.6001H21.3686V52.205H22.464V51.81H20.9031V53.7853ZM24.5097 53.8136C24.9671 53.8136 25.2053 53.712 25.3039 53.5285C25.3505 53.4354 25.3751 53.3169 25.3751 53.1702C25.3751 52.7864 25.2026 52.6001 24.7179 52.6001H24.5097C24.318 52.6001 24.2085 52.6001 24.1537 52.5437C24.1291 52.5183 24.1154 52.4731 24.1154 52.411C24.1154 52.2841 24.1483 52.2248 24.2605 52.1966C24.3153 52.1825 24.4002 52.1768 24.5125 52.1768C24.6741 52.1768 24.7562 52.1909 24.811 52.2784C24.8384 52.3207 24.8521 52.3885 24.8521 52.4759H25.3204C25.3204 51.9567 25.0465 51.7817 24.5125 51.7817C24.0551 51.7817 23.8169 51.8833 23.721 52.0668C23.6717 52.1599 23.6471 52.2784 23.6471 52.4252C23.6471 52.8089 23.8196 52.9952 24.3044 52.9952H24.5097C24.6932 52.9952 24.811 53.0065 24.8685 53.0629C24.8931 53.0911 24.9068 53.1306 24.9068 53.1843C24.9068 53.3113 24.874 53.3677 24.7644 53.3959C24.7069 53.41 24.622 53.4185 24.5097 53.4185C24.3126 53.4185 24.214 53.4016 24.1592 53.3169C24.1291 53.2746 24.1154 53.2097 24.1154 53.1194H23.6471C23.6471 53.4778 23.7813 53.6696 24.0332 53.7515C24.1565 53.7938 24.3153 53.8136 24.5097 53.8136ZM27.1607 53.7853H27.6262V52.205H28.2287V51.81H26.5582V52.205H27.1607V53.7853ZM30.8714 53.3903L30.8687 53.7853H32.5419V53.3903H31.3397C31.3506 53.1673 31.4355 53.0799 31.6793 53.0799H31.8847C32.3694 53.0799 32.5419 52.8936 32.5419 52.5098V52.4252C32.5419 52.1317 32.4597 51.9539 32.2078 51.8551C32.0818 51.8071 31.9038 51.7817 31.6765 51.7817C31.1425 51.7817 30.8687 51.9567 30.8687 52.4759H31.3369C31.3369 52.2982 31.3972 52.2191 31.4876 52.1937C31.5341 52.1825 31.5971 52.1768 31.6765 52.1768C31.8764 52.1768 31.9997 52.1966 32.0435 52.2671C32.0627 52.2982 32.0736 52.3461 32.0736 52.411V52.4957C32.0736 52.6199 32.0216 52.665 31.923 52.6763C31.8737 52.682 31.7915 52.6848 31.6793 52.6848H31.5259C31.1014 52.6848 30.8906 52.9021 30.8714 53.3903ZM34.6588 53.8136C35.2859 53.8136 35.5872 53.5032 35.5872 52.7948C35.5872 52.1063 35.3051 51.7817 34.6588 51.7817C34.0262 51.7817 33.725 52.0922 33.725 52.7948C33.725 53.4834 34.0098 53.8136 34.6588 53.8136ZM34.1905 52.7948C34.1905 52.3744 34.3302 52.1768 34.6588 52.1768C34.9737 52.1768 35.1216 52.3659 35.1216 52.7948C35.1216 53.2153 34.9792 53.4185 34.6588 53.4185C34.3411 53.4185 34.1905 53.2266 34.1905 52.7948ZM36.773 53.3903L36.7702 53.7853H38.4435V53.3903H37.2413C37.2522 53.1673 37.3371 53.0799 37.5808 53.0799H37.7862C38.2709 53.0799 38.4435 52.8936 38.4435 52.5098V52.4252C38.4435 52.1317 38.3613 51.9539 38.1094 51.8551C37.9834 51.8071 37.8054 51.7817 37.5781 51.7817C37.0441 51.7817 36.7702 51.9567 36.7702 52.4759H37.2385C37.2385 52.2982 37.2988 52.2191 37.3891 52.1937C37.4357 52.1825 37.4987 52.1768 37.5781 52.1768C37.778 52.1768 37.9012 52.1966 37.9451 52.2671C37.9642 52.2982 37.9752 52.3461 37.9752 52.411V52.4957C37.9752 52.6199 37.9231 52.665 37.8246 52.6763C37.7753 52.682 37.6931 52.6848 37.5808 52.6848H37.4275C37.003 52.6848 36.7921 52.9021 36.773 53.3903ZM39.6265 52.9388V53.3338H40.6398V53.7853H41.1053V53.3338H41.297V52.9388H41.1053V51.81H40.4454L39.6265 52.9388ZM40.6398 52.9388H40.0921L40.6398 52.1825V52.9388Z" fill="white"/>
<path d="M72 40.17V17.13H85.872V20.986H75.856V26.73H83.952V30.57H75.856V40.17H72Z" fill="#101828"/>
<path d="M95.23 40.666C93.95 40.666 92.894 40.4527 92.062 40.026C91.23 39.5994 90.5687 39.0554 90.078 38.394C89.5873 37.7327 89.2247 37.0287 88.99 36.282C88.7553 35.5354 88.6007 34.8314 88.526 34.17C88.462 33.498 88.43 32.954 88.43 32.538V22.89H92.334V31.21C92.334 31.7434 92.3713 32.346 92.446 33.018C92.5207 33.6794 92.6913 34.3194 92.958 34.938C93.2353 35.546 93.6407 36.0474 94.174 36.442C94.718 36.8367 95.4487 37.034 96.366 37.034C96.8567 37.034 97.342 36.954 97.822 36.794C98.302 36.634 98.734 36.362 99.118 35.978C99.5127 35.5834 99.8273 35.0447 100.062 34.362C100.297 33.6794 100.414 32.8154 100.414 31.77L102.702 32.746C102.702 34.218 102.414 35.5514 101.838 36.746C101.273 37.9407 100.435 38.8954 99.326 39.61C98.2167 40.314 96.8513 40.666 95.23 40.666ZM100.878 40.17V34.81H100.414V22.89H104.286V40.17H100.878Z" fill="#101828"/>
<path d="M116.637 40.65C114.888 40.65 113.352 40.2714 112.029 39.514C110.707 38.7567 109.672 37.706 108.925 36.362C108.189 35.018 107.821 33.4714 107.821 31.722C107.821 29.834 108.184 28.1967 108.909 26.81C109.635 25.4127 110.643 24.33 111.933 23.562C113.224 22.794 114.717 22.41 116.413 22.41C118.205 22.41 119.725 22.8314 120.973 23.674C122.232 24.506 123.165 25.6847 123.773 27.21C124.381 28.7354 124.611 30.5327 124.461 32.602H120.637V31.194C120.627 29.3167 120.296 27.946 119.645 27.082C118.995 26.218 117.971 25.786 116.573 25.786C114.995 25.786 113.821 26.2767 113.053 27.258C112.285 28.2287 111.901 29.6527 111.901 31.53C111.901 33.2794 112.285 34.634 113.053 35.594C113.821 36.554 114.941 37.034 116.413 37.034C117.363 37.034 118.179 36.826 118.861 36.41C119.555 35.9834 120.088 35.37 120.461 34.57L124.269 35.722C123.608 37.2794 122.584 38.49 121.197 39.354C119.821 40.218 118.301 40.65 116.637 40.65ZM110.685 32.602V29.69H122.573V32.602H110.685Z" fill="#101828"/>
<path d="M128.351 40.17V16.65H132.207V40.17H128.351Z" fill="#101828"/>
<path d="M143.406 40.17V17.13H152.542C154.1 17.13 155.374 17.4447 156.366 18.074C157.369 18.6927 158.11 19.4874 158.59 20.458C159.081 21.4287 159.326 22.4314 159.326 23.466C159.326 24.7354 159.022 25.8127 158.414 26.698C157.817 27.5834 157.001 28.1807 155.966 28.49V27.69C157.417 28.0207 158.516 28.7087 159.262 29.754C160.02 30.7994 160.398 31.9887 160.398 33.322C160.398 34.6874 160.137 35.882 159.614 36.906C159.092 37.93 158.313 38.73 157.278 39.306C156.254 39.882 154.985 40.17 153.47 40.17H143.406ZM147.31 36.538H152.99C153.662 36.538 154.265 36.4047 154.798 36.138C155.332 35.8607 155.748 35.4767 156.046 34.986C156.356 34.4847 156.51 33.8927 156.51 33.21C156.51 32.5914 156.377 32.0367 156.11 31.546C155.844 31.0554 155.454 30.666 154.942 30.378C154.43 30.0794 153.817 29.93 153.102 29.93H147.31V36.538ZM147.31 26.33H152.494C153.049 26.33 153.545 26.2234 153.982 26.01C154.42 25.7967 154.766 25.482 155.022 25.066C155.278 24.65 155.406 24.138 155.406 23.53C155.406 22.73 155.15 22.0634 154.638 21.53C154.126 20.9967 153.412 20.73 152.494 20.73H147.31V26.33Z" fill="#101828"/>
<path d="M170.074 40.666C168.794 40.666 167.738 40.4527 166.906 40.026C166.074 39.5994 165.412 39.0554 164.922 38.394C164.431 37.7327 164.068 37.0287 163.834 36.282C163.599 35.5354 163.444 34.8314 163.37 34.17C163.306 33.498 163.274 32.954 163.274 32.538V22.89H167.178V31.21C167.178 31.7434 167.215 32.346 167.29 33.018C167.364 33.6794 167.535 34.3194 167.802 34.938C168.079 35.546 168.484 36.0474 169.018 36.442C169.562 36.8367 170.292 37.034 171.21 37.034C171.7 37.034 172.186 36.954 172.666 36.794C173.146 36.634 173.578 36.362 173.962 35.978C174.356 35.5834 174.671 35.0447 174.906 34.362C175.14 33.6794 175.258 32.8154 175.258 31.77L177.546 32.746C177.546 34.218 177.258 35.5514 176.682 36.746C176.116 37.9407 175.279 38.8954 174.17 39.61C173.06 40.314 171.695 40.666 170.074 40.666ZM175.722 40.17V34.81H175.258V22.89H179.13V40.17H175.722Z" fill="#101828"/>
<path d="M185.897 47.85L189.225 38.714L189.289 41.402L181.753 22.89H185.769L191.113 36.586H190.089L195.289 22.89H199.145L189.513 47.85H185.897Z" fill="#101828"/>
<path d="M208.762 40.65C207.013 40.65 205.477 40.2714 204.154 39.514C202.832 38.7567 201.797 37.706 201.05 36.362C200.314 35.018 199.946 33.4714 199.946 31.722C199.946 29.834 200.309 28.1967 201.034 26.81C201.76 25.4127 202.768 24.33 204.058 23.562C205.349 22.794 206.842 22.41 208.538 22.41C210.33 22.41 211.85 22.8314 213.098 23.674C214.357 24.506 215.29 25.6847 215.898 27.21C216.506 28.7354 216.736 30.5327 216.586 32.602H212.762V31.194C212.752 29.3167 212.421 27.946 211.77 27.082C211.12 26.218 210.096 25.786 208.698 25.786C207.12 25.786 205.946 26.2767 205.178 27.258C204.41 28.2287 204.026 29.6527 204.026 31.53C204.026 33.2794 204.41 34.634 205.178 35.594C205.946 36.554 207.066 37.034 208.538 37.034C209.488 37.034 210.304 36.826 210.986 36.41C211.68 35.9834 212.213 35.37 212.586 34.57L216.394 35.722C215.733 37.2794 214.709 38.49 213.322 39.354C211.946 40.218 210.426 40.65 208.762 40.65ZM202.81 32.602V29.69H214.698V32.602H202.81Z" fill="#101828"/>
<path d="M220.156 40.17V22.89H223.564V27.098L223.148 26.554C223.362 25.978 223.644 25.4554 223.996 24.986C224.359 24.506 224.791 24.1114 225.292 23.802C225.719 23.514 226.188 23.29 226.7 23.13C227.223 22.9594 227.756 22.858 228.3 22.826C228.844 22.7834 229.372 22.8047 229.884 22.89V26.49C229.372 26.3407 228.78 26.2927 228.108 26.346C227.447 26.3994 226.85 26.586 226.316 26.906C225.783 27.194 225.346 27.562 225.004 28.01C224.674 28.458 224.428 28.97 224.268 29.546C224.108 30.1114 224.028 30.7247 224.028 31.386V40.17H220.156Z" fill="#101828"/>
<path d="M238.984 40.65C236.851 40.65 235.118 40.17 233.785 39.21C232.451 38.25 231.64 36.9007 231.352 35.162L235.288 34.554C235.491 35.4074 235.939 36.0794 236.633 36.57C237.326 37.0607 238.201 37.306 239.257 37.306C240.185 37.306 240.899 37.1247 241.4 36.762C241.912 36.3887 242.169 35.882 242.169 35.242C242.169 34.8474 242.072 34.5327 241.88 34.298C241.699 34.0527 241.294 33.818 240.665 33.594C240.035 33.37 239.07 33.0874 237.768 32.746C236.318 32.362 235.166 31.9514 234.312 31.514C233.459 31.066 232.846 30.538 232.473 29.93C232.099 29.322 231.913 28.586 231.913 27.722C231.913 26.6447 232.195 25.706 232.76 24.906C233.326 24.106 234.115 23.4927 235.128 23.066C236.142 22.6287 237.336 22.41 238.712 22.41C240.056 22.41 241.246 22.618 242.281 23.034C243.326 23.45 244.169 24.042 244.809 24.81C245.449 25.578 245.843 26.4794 245.993 27.514L242.057 28.218C241.961 27.482 241.625 26.9007 241.049 26.474C240.483 26.0474 239.726 25.8074 238.777 25.754C237.87 25.7007 237.139 25.8394 236.585 26.17C236.03 26.49 235.753 26.9434 235.753 27.53C235.753 27.8607 235.865 28.1434 236.089 28.378C236.313 28.6127 236.76 28.8474 237.432 29.082C238.115 29.3167 239.129 29.6047 240.473 29.946C241.849 30.298 242.947 30.7034 243.768 31.162C244.6 31.61 245.198 32.1487 245.561 32.778C245.934 33.4074 246.12 34.17 246.12 35.066C246.12 36.8047 245.486 38.17 244.217 39.162C242.958 40.154 241.214 40.65 238.984 40.65Z" fill="#101828"/>
<path d="M265.775 40.65C263.471 40.65 261.498 40.1487 259.855 39.146C258.213 38.1327 256.949 36.7247 256.063 34.922C255.189 33.1194 254.751 31.0287 254.751 28.65C254.751 26.2714 255.189 24.1807 256.063 22.378C256.949 20.5754 258.213 19.1727 259.855 18.17C261.498 17.1567 263.471 16.65 265.775 16.65C268.431 16.65 270.645 17.3167 272.415 18.65C274.186 19.9727 275.429 21.7594 276.143 24.01L272.255 25.082C271.807 23.578 271.045 22.4047 269.967 21.562C268.89 20.7087 267.493 20.282 265.775 20.282C264.229 20.282 262.938 20.6287 261.903 21.322C260.879 22.0154 260.106 22.9914 259.583 24.25C259.071 25.498 258.81 26.9647 258.799 28.65C258.799 30.3354 259.055 31.8074 259.567 33.066C260.09 34.314 260.869 35.2847 261.903 35.978C262.938 36.6714 264.229 37.018 265.775 37.018C267.493 37.018 268.89 36.5914 269.967 35.738C271.045 34.8847 271.807 33.7114 272.255 32.218L276.143 33.29C275.429 35.5407 274.186 37.3327 272.415 38.666C270.645 39.9887 268.431 40.65 265.775 40.65Z" fill="#101828"/>
<path d="M279.976 40.17V16.65H283.832V40.17H279.976Z" fill="#101828"/>
<path d="M295.105 40.666C293.825 40.666 292.769 40.4527 291.937 40.026C291.105 39.5994 290.444 39.0554 289.953 38.394C289.462 37.7327 289.1 37.0287 288.865 36.282C288.63 35.5354 288.476 34.8314 288.401 34.17C288.337 33.498 288.305 32.954 288.305 32.538V22.89H292.209V31.21C292.209 31.7434 292.246 32.346 292.321 33.018C292.396 33.6794 292.566 34.3194 292.833 34.938C293.11 35.546 293.516 36.0474 294.049 36.442C294.593 36.8367 295.324 37.034 296.241 37.034C296.732 37.034 297.217 36.954 297.697 36.794C298.177 36.634 298.609 36.362 298.993 35.978C299.388 35.5834 299.702 35.0447 299.937 34.362C300.172 33.6794 300.289 32.8154 300.289 31.77L302.577 32.746C302.577 34.218 302.289 35.5514 301.713 36.746C301.148 37.9407 300.31 38.8954 299.201 39.61C298.092 40.314 296.726 40.666 295.105 40.666ZM300.753 40.17V34.81H300.289V22.89H304.161V40.17H300.753Z" fill="#101828"/>
<path d="M316.96 40.65C315.275 40.65 313.862 40.25 312.72 39.45C311.579 38.65 310.72 37.562 310.144 36.186C309.568 34.7994 309.28 33.2474 309.28 31.53C309.28 29.7914 309.568 28.234 310.144 26.858C310.72 25.482 311.563 24.3994 312.672 23.61C313.792 22.81 315.174 22.41 316.816 22.41C318.448 22.41 319.862 22.81 321.056 23.61C322.262 24.3994 323.195 25.482 323.856 26.858C324.518 28.2234 324.848 29.7807 324.848 31.53C324.848 33.258 324.523 34.81 323.872 36.186C323.222 37.562 322.304 38.65 321.12 39.45C319.936 40.25 318.55 40.65 316.96 40.65ZM308.624 40.17V17.13H312.512V28.042H312.032V40.17H308.624ZM316.368 37.194C317.371 37.194 318.198 36.9434 318.848 36.442C319.499 35.9407 319.979 35.2634 320.288 34.41C320.608 33.546 320.768 32.586 320.768 31.53C320.768 30.4847 320.608 29.5354 320.288 28.682C319.968 27.818 319.472 27.1354 318.8 26.634C318.128 26.122 317.275 25.866 316.24 25.866C315.259 25.866 314.459 26.106 313.84 26.586C313.222 27.0554 312.763 27.7167 312.464 28.57C312.176 29.4127 312.032 30.3994 312.032 31.53C312.032 32.65 312.176 33.6367 312.464 34.49C312.763 35.3434 313.227 36.01 313.856 36.49C314.496 36.9594 315.334 37.194 316.368 37.194Z" fill="#101828"/>
</svg>
